<?xml version="1.0" encoding="utf-8"?>
<!-- Generator: Adobe Illustrator 26.0.3, SVG Export Plug-In . SVG Version: 6.00 Build 0)  -->
<svg version="1.1" id="Layer_1" xmlns="http://www.w3.org/2000/svg" xmlns:xlink="http://www.w3.org/1999/xlink" x="0px" y="0px"
	 viewBox="0 0 1200 800" style="enable-background:new 0 0 1200 800;" xml:space="preserve">
<style type="text/css">
	.st0{fill:#FFFFFF;}
</style>
<rect class="st0" width="1200" height="800"/>
<path d="M1051.33,470.54c0.67-1.53,1.32-3.14,1.95-4.83c1.24-3.28,0.18-5.55-0.93-6.87c-1.57-1.87-4.37-3.23-8.22-4.08
	c0.21-2.04,0.41-3.95,0.62-5.58c1.05-8.13-5.8-44.32-17.71-56.14c-2.91-2.88-5.93-4.13-9.03-3.71c-2.97,0.41-5.46,2.1-7.41,5.04
	c-6.38,9.64-6.16,32.06,0.38,61.29c-1.87,0.3-3.78,0.64-5.74,1c-3.81,0.72-7.23,1.43-10.24,2.05c-9.28,1.92-15.41,3.19-21.75,2.55
	c-2.63-0.27-5.17-0.55-7.67-0.83c-0.15-0.02-6.25-0.55-16.26-0.59c-8.19-2.6-22.62-3.79-43.17-3.58
	c-28.73,0.31-66.86,15.2-92.97,29.03c-6.45,3.42-11.3,6.64-16.44,10.06c-7.68,5.1-16.32,10.84-32.91,19.16
	c-13.11-1.78-19.28-0.98-22.21,2.48c-1.83,2.16-2.53,5.06-1.93,7.96c-35.24,12.53-59.31,9.11-62.38,8.59
	c-5.23-0.88-16.9-5.13-28.25-11.28c-10.66-5.78-18.65-10.69-25.07-14.63c-12.91-7.93-20.02-12.3-31.14-13.12
	c-15.88-1.17-35.2,0.82-37.36,10.29c-0.66,2.89,0.64,4.81,3.24,8.64c1.56,2.29,3.69,5.43,6.37,10.12
	c5.49,9.58,28.91,47.88,34.45,50.21c5.02,2.11,15.25-1.63,20.75-3.64l1.2-0.43c14.34-5.16,24.76,0.67,26.91,2.88
	c-3.08,1.42-15.87,3.7-24.56,5.25c-22.17,3.95-57.38,14.55-57.74,14.66c-0.71,0.21-1.13,0.95-0.96,1.67
	c0.18,0.72,0.89,1.19,1.62,1.05c24.62-4.6,58.11-9.23,96.9-14.59c8.42-1.16,17.09-2.36,25.91-3.59
	c-19.38,4.97-39.17,11.52-58.97,20.27c-38.49,17.02-136.84,35.86-250,18.04c-98.15-15.46-239.08-64.05-353.06-207.72
	C17.16,394.47,7.94,379.01,0,361.83v6.69c7.51,15.3,16.01,29.01,25.38,40.82c49.42,62.29,108.01,112.09,174.16,148.02
	c55.54,30.16,116.32,50.6,180.66,60.73c32.47,5.11,63.72,7.22,92.73,7.22c72.63,0,131.11-13.2,158.84-25.46
	c54.85-24.24,109.7-31.44,156.11-35.29c4.53-0.38,8.9-0.73,13.14-1.07c64.89-5.21,100.64-8.09,213.75-59.25
	c3.01-1.36,6.16-3.18,9.21-5.44c9.18,23.44,18.99,37.03,26.02,40.56c1.85,0.93,3.47,1.13,4.83,0.59
	c11.79-4.64,6.29-40.88-1.15-63.91C1053.03,474.03,1052.23,472.2,1051.33,470.54z M1043.84,457.6c3.18,0.72,5.31,1.78,6.36,3.04
	c0.94,1.12,1.09,2.42,0.46,4.08c-0.38,1-0.76,1.96-1.14,2.9c-1.85-2.63-3.96-4.67-6.08-6.18
	C1043.58,460.17,1043.71,458.88,1043.84,457.6z M1043.08,464.67c1.82,1.52,3.6,3.51,5.12,6.02c-2.27,5.03-4.72,9.16-7.41,12.54
	c-0.38,0.47-0.46,0.42-0.72,0.25c-0.5-0.33-1.01-0.94-1.51-1.75c1.63-3.29,2.88-6.88,3.6-10.75
	C1042.5,469.14,1042.8,466.98,1043.08,464.67z M1036.98,478.47c-2.43-6.09-4.21-15.51-3.45-17.4c0.48-0.23,1.78-0.32,3.7,0.29
	c1.03,0.33,2.12,0.82,3.23,1.47c-0.32,2.81-0.67,5.5-1.06,7.64C1038.88,473.3,1038.05,475.97,1036.98,478.47z M1012.94,395.92
	c1.48-2.24,3.32-3.52,5.45-3.81c0.25-0.03,0.51-0.05,0.76-0.05c1.94,0,3.92,1,5.92,2.97c11.14,11.05,17.88,46.22,16.9,53.79
	c-0.21,1.61-0.41,3.46-0.61,5.44c-6.87-0.98-16.31-0.67-27.61,0.98C1007.32,426.68,1006.94,404.99,1012.94,395.92z M948.87,462.65
	c3.72,1.19,5.48,2.53,5.7,3.82c0.44,2.68-4.55,10.85-60.25,28.96c-29.78,9.68-75.98,14.73-85.24,9.31c-0.7-0.41-1.09-0.83-1.18-1.26
	c-0.09-1.02,3.97-5.74,23.53-15.14c14.28-6.87,30.68-13.24,41.78-16.23c29.49-7.95,57.74-9.46,75-9.46
	C948.42,462.65,948.65,462.65,948.87,462.65z M764.32,517.42c2.87,0.4,6.07,0.92,9.63,1.57c21.6,3.9,36.21,4.21,75.28,5.04
	c6.87,0.15,14.51,0.31,23.08,0.51c22.6,0.53,37.63-0.45,45.7-0.97c1.96-0.13,3.77-0.25,5.02-0.29c-2.08,2.18-8.92,7.12-31.01,13.53
	c-23.43,6.8-51.23,12.86-80.78,18.32c-5.96-1.25-10.87-2.87-12.72-3.52c-4.23-1.47-8.27-2.79-12.18-4.05
	c-10.55-3.43-20.52-6.66-33.04-12.66c-5.95-2.85-8.76-5.81-10.02-8.23c5.92-2.22,12.14-4.88,18.63-8.06
	C762.73,518.21,763.53,517.82,764.32,517.42z M743.78,518.82c1.35-1.6,4.15-2.4,8.86-2.4c1.88,0,4.07,0.13,6.59,0.38
	c-5.84,2.81-11.47,5.19-16.85,7.19C741.98,521.31,743.21,519.5,743.78,518.82z M663.32,577.83c-26.56,3.67-50.64,7-71.11,10.21
	c10.57-2.81,22.59-5.76,32.15-7.46c24.74-4.41,27.24-5.41,27.21-7.75c-0.01-1.09-0.97-2.3-2.85-3.6c-3.43-2.38-8.99-4.38-15.73-4.38
	c-3.82,0-8.01,0.64-12.42,2.23l-1.21,0.44c-4.4,1.61-14.7,5.37-18.7,3.69c-3.53-1.48-23.13-31.6-33.11-49.02
	c-2.74-4.78-4.9-7.97-6.48-10.3c-2.55-3.76-3.2-4.81-2.82-6.45c1.57-6.88,18.5-9.29,34.42-8.11c10.44,0.77,17.34,5.01,29.88,12.71
	c6.45,3.96,14.47,8.9,25.2,14.71c11.61,6.3,23.67,10.67,29.12,11.58c5.11,0.86,28.94,3.78,63.77-8.68
	c1.45,2.96,4.65,6.53,11.46,9.79c12.69,6.08,22.74,9.35,33.38,12.8c3.89,1.26,7.92,2.57,12.12,4.04c1.2,0.42,3.66,1.24,6.85,2.11
	C757.79,564.78,707.36,571.75,663.32,577.83z M1013.61,501.69c-112.67,50.96-146.14,53.65-212.82,59.01
	c-2.86,0.23-5.78,0.46-8.76,0.71c6.49-1.12,12.92-2.26,19.27-3.43c0.15,0,0.3-0.03,0.44-0.08c29.63-5.47,57.54-11.55,81.06-18.38
	c34.1-9.9,34-16.84,33.87-17.6c-0.28-1.69-1.42-1.61-8.84-1.13c-8.03,0.52-22.98,1.5-45.46,0.97c-8.57-0.2-16.21-0.36-23.08-0.51
	c-38.91-0.83-53.46-1.14-74.84-5c-2.06-0.37-3.99-0.7-5.82-1c14.48-7.44,22.5-12.76,29.68-17.54c5.3-3.52,9.87-6.56,16.2-9.91
	c25.82-13.68,63.46-28.4,91.69-28.71c12.21-0.13,21.72,0.29,28.97,1.05c-17.05,0.72-39.5,3.03-62.69,9.27
	c-11.37,3.06-28.08,9.56-42.59,16.56c-25.86,12.48-25.02,16.68-24.74,18.06c0.25,1.25,1.1,2.3,2.51,3.13
	c10.77,6.3,59.22,0.14,87.52-9.06c57.37-18.65,62.95-27.24,62.15-32.08c-0.2-1.2-0.9-2.3-2.1-3.28c6.27,0.16,9.94,0.48,10.06,0.49
	c2.5,0.28,5.05,0.56,7.7,0.83c6.77,0.69,13.07-0.62,22.6-2.59c3-0.62,6.4-1.33,10.19-2.04c2.01-0.38,3.96-0.72,5.85-1.02
	c0.85,3.63,1.79,7.36,2.83,11.18c2.68,9.86,5.54,18.7,8.49,26.51C1019.86,498.44,1016.66,500.31,1013.61,501.69z M1017.14,468.85
	c-1.01-3.71-1.93-7.34-2.76-10.86c11.64-1.67,20.57-1.77,26.69-0.89c-0.09,0.89-0.18,1.81-0.28,2.72c-0.93-0.48-1.84-0.85-2.71-1.13
	c-2.7-0.86-5.02-0.79-6.34,0.2c-0.53,0.39-2.14,1.6-0.26,10.67c0.22,1.05,1.62,7.55,3.93,12.16c-2.67,4.95-6.28,9.14-10.21,12.52
	C1022.48,486.91,1019.76,478.48,1017.14,468.85z M1053.8,537.36c-0.57,0.22-1.47,0.05-2.55-0.49c-4.81-2.41-14.86-13.71-24.99-39.86
	c4.09-3.39,7.9-7.6,10.83-12.58c0.79,0.98,1.64,1.67,2.56,1.89c0.7,0.17,2.07,0.22,3.31-1.35c2.47-3.1,4.74-6.79,6.85-11.16
	c0.43,0.97,0.83,2,1.18,3.1C1060.24,505.49,1061.57,534.3,1053.8,537.36z"/>
</svg>
