<?xml version="1.0" encoding="utf-8"?>
<!-- Generator: Adobe Illustrator 26.0.3, SVG Export Plug-In . SVG Version: 6.00 Build 0)  -->
<svg version="1.1" id="Layer_1" xmlns="http://www.w3.org/2000/svg" xmlns:xlink="http://www.w3.org/1999/xlink" x="0px" y="0px"
	 viewBox="0 0 960 560" style="enable-background:new 0 0 960 560;" xml:space="preserve">
<style type="text/css">
	.st0{fill-rule:evenodd;clip-rule:evenodd;fill:none;stroke:#FFFFFF;stroke-width:8;stroke-miterlimit:22.9256;}
</style>
<g>
	<path class="st0" d="M946.36,384.02c-8.65,0-17.3,0-24.09,0c-6.8,0-11.74,0-14.32-0.07c-2.59-0.07-2.82-0.2-2.93-1.02
		c-0.11-0.82-0.11-2.32-0.11-6.02c0-3.7,0-9.59,0-14.14c0-4.55,0-7.75-0.36-11.51c-0.36-3.76-1.08-8.09-2.14-11.78
		c-1.06-3.69-2.46-6.74-3.9-9.28c-1.44-2.54-2.93-4.58-4.24-5.55c-1.31-0.98-2.46-0.89-4.62,1.29c-2.16,2.18-5.34,6.47-7.29,8.95
		c-1.95,2.48-2.67,3.16-4.54,1.1c-1.87-2.06-4.88-6.85-8.65-10.28c-3.77-3.43-8.31-5.51-11-7.27c-2.69-1.76-3.54-3.2-3.99-4.43
		c-0.45-1.23-0.49-2.25,0.21-2.88c0.7-0.64,2.14-0.89,4.64-1.14c2.5-0.25,6.06-0.51,8.33-0.21c2.27,0.3,3.24,1.14,4.11,3.09
		c0.87,1.95,1.63,5,2.29,7.72c0.66,2.71,1.21,5.09,2.18,6.57c0.98,1.48,2.37,2.08,4.43,1.4c2.06-0.68,4.77-2.63,6.04-5.15
		c1.27-2.52,1.1-5.62,0.47-8.78c-0.64-3.16-1.74-6.38-2.65-8.99c-0.91-2.61-1.63-4.6-2.46-7.27c-0.83-2.67-1.76-6.02-2.23-9.2
		c-0.47-3.18-0.47-6.19-0.61-9.14c-0.15-2.95-0.45-5.83-1.48-9.05c-1.04-3.22-2.82-6.78-6.3-9.48c-3.48-2.69-8.65-4.52-13.42-4.96
		c-4.77-0.45-9.14,0.49-12.23,2.22c-3.09,1.73-4.92,4.25-6.15,7.21c-1.23,2.96-1.87,6.35-1.95,10.76
		c-0.08,4.41,0.38,9.84,0.23,14.61c-0.15,4.77-0.91,8.88-1,11.81c-0.08,2.93,0.51,4.66,1.25,5.7c0.74,1.04,1.63,1.38,3.54,0.64
		c1.91-0.74,4.83-2.56,6.42-4.26c1.59-1.7,1.84-3.26,1.06-6.25c-0.78-2.99-2.61-7.4-3.5-11.43c-0.89-4.03-0.85-7.67-0.55-10.71
		c0.3-3.03,0.85-5.45,2.65-7.16c1.8-1.72,4.85-2.73,8.2-2.33c3.35,0.4,7,2.23,9.75,3.84c2.76,1.61,4.62,3.01,5.74,5.53
		c1.12,2.52,1.51,6.17,1.29,10.19c-0.21,4.02-1.02,8.4-2.18,11.85c-1.17,3.44-2.69,5.95-4.71,7.37c-2.01,1.42-4.52,1.76-7.04,1.57
		s-5.07-0.91-6.59-0.7c-1.53,0.21-2.03,1.36-2.61,2.14c-0.57,0.78-1.21,1.21-2.31,1.5c-1.1,0.3-2.67,0.47-3.94,0.85
		c-1.27,0.38-2.25,0.98-2.44,2.14s0.4,2.9,1.7,4.81c1.29,1.91,3.29,3.99,5.64,4.92c2.35,0.93,5.07,0.72,6.93,0.45
		c1.87-0.28,2.88-0.61,4.49-0.19c1.61,0.42,3.82,1.61,5.94,3.58c2.12,1.97,4.15,4.73,6.47,8.86c2.31,4.13,4.9,9.65,6.55,15.56
		c1.65,5.91,2.37,12.23,2.65,16.53c0.28,4.3,0.11,6.59-0.23,8.12c-0.34,1.53-0.85,2.29-6.68,2.67c-5.83,0.38-16.98,0.38-22.96,0.38
		c-5.98,0-6.78,0-7.25-0.47c-0.47-0.47-0.59-1.4-0.68-3.09c-0.08-1.7-0.13-4.15,0.21-9.22c0.34-5.07,1.06-12.74,1.42-17.85
		c0.36-5.11,0.36-7.65,0.02-9.2s-1.02-2.1-1.76,3.73c-0.74,5.83-1.55,18.04-2.06,25.18c-0.51,7.14-0.72,9.22-2.46,10.26
		c-1.74,1.04-5,1.04-8.16,1.04c-3.16,0-6.21,0-7.89-0.06c-1.67-0.06-1.97-0.19-2.16-0.59c-0.19-0.4-0.28-1.08-0.49-2.97
		c-0.21-1.89-0.55-4.98-1.06-9.14c-0.51-4.15-1.19-9.37-1.27-13.91c-0.08-4.54,0.42-8.39,1.59-12.95c1.17-4.56,2.99-9.81,5.41-13.88
		c2.42-4.07,5.43-6.95,7.4-9.35c1.97-2.4,2.9-4.3,3.24-5.68c0.34-1.38,0.08-2.23-0.59-3.41c-0.68-1.19-1.78-2.71-3.29-4.43
		c-1.51-1.72-3.41-3.62-5.35-3.43c-1.94,0.19-3.91,2.48-5.74,5.49c-1.83,3.01-3.53,6.74-4.74,10.9c-1.21,4.15-1.93,8.73-2.52,12.49
		c-0.59,3.75-1.06,6.68-2.08,8.12c-1.02,1.44-2.59,1.4-3.88,0.53c-1.29-0.87-2.31-2.56-3.31-4.54c-1-1.97-1.97-4.22-3.33-7.25
		c-1.36-3.03-3.09-6.85-4.15-9.88c-1.06-3.03-1.44-5.28-0.78-6.42c0.66-1.14,2.35-1.19,4.57,2.37c2.22,3.56,4.95,10.73,6.95,16.87
		c2,6.15,3.28,11.28,4.38,17.72c1.1,6.44,2.04,14.2,2.1,19.59c0.06,5.38-0.74,8.39-1.99,10.19c-1.25,1.79-2.95,2.36-8.61,2.65
		c-5.66,0.29-15.28,0.29-20.35,0.12c-5.07-0.17-5.58-0.51-5.83-1.82c-0.25-1.31-0.25-3.6,0.06-8.63c0.32-5.02,0.95-12.78,0.9-19.27
		c-0.05-6.49-0.79-11.7-1.25-15.88c-0.46-4.18-0.63-7.31,0.29-10.68c0.91-3.37,2.9-6.97,5.15-9.6c2.25-2.63,4.75-4.28,7.14-5.53
		c2.4-1.25,4.68-2.1,8.29-2.84c3.6-0.74,8.52-1.38,11.83-2.65c3.31-1.27,5-3.18,6.53-4.11c1.53-0.93,2.88-0.89,5.05,0.4
		c2.16,1.29,5.13,3.84,6.73,4.5c1.6,0.67,1.83-0.54,1.78-3.75c-0.05-3.21-0.39-8.43-2.02-13.11c-1.63-4.68-4.56-8.84-5.94-11.87
		c-1.38-3.03-1.21-4.94-1.36-7.27c-0.15-2.33-0.61-5.09-2.65-7.78c-2.04-2.69-5.64-5.32-8.95-6.74c-3.31-1.42-6.32-1.63-10.08-0.03
		c-3.76,1.6-8.28,5.01-10.85,7.8c-2.58,2.79-3.21,4.95-3.08,8.32c0.13,3.37,1.02,7.95,1.59,12.23c0.57,4.28,0.83,8.27-0.08,11.4
		c-0.91,3.14-2.99,5.43-4.28,7.21c-1.29,1.78-1.8,3.05-1.44,3.75c0.36,0.7,1.59,0.83,4.13-0.02c2.54-0.85,6.4-2.67,8.67-4.28
		c2.27-1.61,2.95-3.01,2.12-5.41c-0.83-2.4-3.16-5.79-4.43-9.48c-1.27-3.69-1.48-7.67-0.61-10.51c0.87-2.84,2.82-4.54,5.41-6.13
		c2.59-1.59,5.81-3.07,8.61-3.75c2.8-0.68,5.17-0.55,7.53,1.93c2.35,2.48,4.68,7.31,5.71,11.56c1.03,4.25,0.75,7.92-0.3,11.23
		c-1.05,3.32-2.87,6.29-5.08,8.13c-2.2,1.84-4.79,2.56-7,2.8c-2.2,0.23-4.03-0.02-5.6,0.36c-1.57,0.38-2.88,1.4-5.88,2.68
		c-3,1.28-7.68,2.83-11.21,4.01c-3.53,1.18-5.9,1.98-7.73,2.79c-1.82,0.81-3.09,1.61-4.75,4.49c-1.65,2.88-3.69,7.84-5.44,13.56
		c-1.75,5.71-3.21,12.18-4.24,20.86c-1.03,8.68-1.62,19.58-2.32,25.46c-0.7,5.88-1.5,6.74-5.38,7.17c-3.88,0.43-10.83,0.43-14.65,0
		c-3.82-0.43-4.5-1.29-4.84-3.38c-0.34-2.08-0.34-5.39,0.25-9.76c0.59-4.37,1.78-9.79,2.42-15.3c0.64-5.51,0.72-11.11,0.3-15.24
		c-0.42-4.13-1.36-6.8-2.65-9.07c-1.29-2.27-2.95-4.13-3.75-5.34c-0.81-1.21-0.76-1.76,1.57-3.67c2.33-1.91,6.95-5.17,10.34-6.97
		c3.39-1.8,5.55-2.14,7.67-0.57c2.12,1.57,4.2,5.05,6.21,7.67c2.01,2.63,3.96,4.41,5.3,5.19c1.34,0.78,2.06,0.57,2.84-0.87
		c0.78-1.44,1.63-4.11,2.54-6.87c0.91-2.76,1.89-5.6,3.61-7.63c1.73-2.03,4.21-3.26,5.6-6.1c1.39-2.84,1.69-7.29,1.37-11.83
		c-0.32-4.54-1.25-9.16-2.97-13.12c-1.72-3.96-4.22-7.27-7.25-9.48c-3.03-2.2-6.59-3.31-9.73-3.86c-3.14-0.55-5.85-0.55-8.93,0.37
		c-3.08,0.92-6.54,2.77-9.14,5.36c-2.6,2.6-4.34,5.95-5.12,8.94c-0.78,2.99-0.61,5.62-0.23,10.28c0.38,4.66,0.98,11.36,1.84,15.11
		c0.87,3.75,2.01,4.56,3.84,3.75c1.82-0.81,4.32-3.22,5.85-5.26c1.53-2.04,2.08-3.69,1.82-6.04c-0.25-2.35-1.31-5.41-1.8-8.69
		c-0.49-3.29-0.4-6.8-0.04-9.45c0.36-2.65,1-4.43,2.71-5.7c1.72-1.27,4.52-2.04,7.29-2.27c2.78-0.23,5.53,0.06,8.25,2.25
		c2.71,2.18,5.38,6.25,6.66,9.58c1.27,3.33,1.14,5.91,0.95,8.84c-0.19,2.93-0.45,6.19-1.17,8.75c-0.72,2.56-1.91,4.43-3.46,5.68
		c-1.55,1.25-3.46,1.89-6.4,1.78c-2.95-0.11-6.93-0.95-9.26-1.48c-2.33-0.53-3.01-0.74-3.69-0.36c-0.68,0.38-1.36,1.36-2.88,2.29
		c-1.53,0.93-3.9,1.82-7.29,3.26c-3.39,1.44-7.8,3.43-10.5,5.26c-2.7,1.82-3.68,3.48-4.18,9.12c-0.49,5.64-0.49,15.26-0.49,25.14
		c0,9.87,0,20-0.28,25.3c-0.28,5.3-0.84,5.77-2.14,6.01c-1.3,0.24-3.33,0.24-4.65,0.14c-1.32-0.1-1.92-0.29-2.23-2.96
		c-0.3-2.67-0.3-7.82-0.3-14.28c0-6.45,0-14.21-1.02-20.74c-1.02-6.53-3.05-11.83-5.85-15.69c-2.8-3.86-6.36-6.27-10.26-7.93
		c-3.9-1.65-8.14-2.54-11-3.01c-2.86-0.47-4.35-0.51-4.88-0.23c-0.53,0.28-0.11,0.87,0.64,2.63c0.74,1.76,1.8,4.68,1.97,6.8
		c0.17,2.12-0.55,3.43-1.66,5.02c-1.11,1.59-2.62,3.46-4.09,6.93c-1.47,3.48-2.91,8.56-2.96,14.27c-0.04,5.7,1.31,12.02,2.18,17.02
		c0.87,5,1.25,8.69,0.66,10.64c-0.59,1.95-2.16,2.16-8.33,2.27c-6.17,0.11-16.94,0.11-24.02,0.11s-10.47,0-12.76-0.17
		c-4.4-0.33-4.73-1.39-5.45-5.47c-0.28-1.57-0.57-3.18-0.72-7.86c-0.15-4.68-0.15-12.44-0.08-17.74c0.06-5.3,0.19-8.14,0.66-9.81
		c0.47-1.67,1.27-2.18,1.91-0.34c0.64,1.84,1.1,6.04,1.55,12.34c0.45,6.3,0.87,14.69,1.27,19.23c0.4,4.54,0.78,5.21,6.63,5.55
		c5.85,0.34,17.17,0.34,23.36,0.32c6.19-0.02,7.25-0.06,7.95-0.74c0.7-0.68,1.04-1.99,1.17-5.05c0.13-3.05,0.04-7.84-1.08-12.46
		c-1.12-4.62-3.29-9.07-6.47-13.62c-3.18-4.55-7.38-9.19-10.96-11.91c-3.58-2.72-6.55-3.53-8.8-4.19c-2.25-0.66-3.77-1.17-4.37-2.71
		c-0.59-1.55-0.25-4.13-0.7-6.83c-0.45-2.69-1.67-5.49-3.94-6.04c-2.27-0.55-5.58,1.14-7.46,1.72c-1.89,0.57-2.35,0.02-1.87-1.52
		c0.49-1.54,1.93-4.06,2.97-6.4c1.04-2.34,1.67-4.5,1.51-6.84c-0.17-2.33-1.14-4.83-2.23-7.74c-1.08-2.9-2.27-6.21-2.59-9.67
		s0.23-7.06,1.89-10.79c1.65-3.73,4.41-7.59,7.72-10.18c3.31-2.59,7.16-3.9,11.26-4.56c4.09-0.66,8.42-0.66,12.8,0.57
		c4.39,1.23,8.84,3.69,12.89,6.66c4.05,2.97,7.69,6.44,9.71,9.94c2.01,3.5,2.4,7.02,3.92,9.41c1.53,2.4,4.2,3.67,5.98,4.75
		c1.78,1.08,2.67,1.97,2.48,3.58c-0.19,1.61-1.46,3.94-2.23,5.96c-0.76,2.01-1.02,3.71-1.42,5.72c-0.4,2.01-0.95,4.35-1.8,5.91
		c-0.85,1.57-1.99,2.37-3.46,2.5c-1.46,0.13-3.24-0.42-5.24-1.4c-1.99-0.98-4.2-2.37-5.6-3.52c-1.4-1.14-1.99-2.03-2.12-3.23
		c-0.13-1.2,0.21-2.7,0.38-5.41c0.17-2.7,0.17-6.6-0.25-9.27c-0.42-2.67-1.27-4.11-3.67-5.3c-2.4-1.19-6.34-2.12-9.77-3.71
		c-3.43-1.59-6.36-3.84-8.82-5.72c-2.46-1.89-4.45-3.41-6-3.84c-1.55-0.42-2.65,0.25-3.96,2.54c-1.31,2.29-2.84,6.19-3.32,9.73
		c-0.48,3.54,0.1,6.72,0.81,9.88c0.71,3.16,1.56,6.3,2.77,9.14c1.21,2.84,2.78,5.38,4.9,7.33c2.12,1.95,4.79,3.31,8.03,3.43
		c3.24,0.13,7.06-0.98,10.22-2.33c3.16-1.36,5.66-2.97,7.86-2.33c2.2,0.64,4.11,3.52,5.09,5.45c0.98,1.93,1.02,2.9,0.02,7.16
		c-1,4.26-3.03,11.81-4.35,16.6c-1.31,4.79-1.91,6.83-3.03,6.76c-1.12-0.06-2.78-2.23-6-7c-3.22-4.77-8.01-12.15-11.43-16.77
		c-3.41-4.62-5.45-6.49-6.7-7.33c-1.25-0.85-1.72-0.68-4.42,0.68c-2.7,1.36-7.64,3.9-11.45,5.77c-3.8,1.87-6.48,3.05-8.34,4.45
		c-1.87,1.4-2.93,3.01-4.77,7.46c-1.84,4.45-4.47,11.74-6.36,20.06c-1.89,8.32-3.03,17.66-3.71,22.86c-2.3,17.62,9.59,2.53,9.69,0.9
		c0.15-2.65,0.46-6.16,1.28-11.49c0.82-5.33,2.15-12.47,2.66-19.73c0.51-7.26,0.21-14.64-0.44-20.15
		c-0.65-5.51-1.65-9.14-4.05-14.13c-2.41-4.99-6.22-11.34-10.24-16c-4.02-4.66-8.26-7.62-11.95-10.07
		c-3.69-2.45-6.84-4.39-9.29-5.81c-2.45-1.42-4.21-2.33-5.32-2.93s-1.6-0.91-3.87,1.54c-2.27,2.45-6.32,7.65-9.53,10.92
		c-3.21,3.27-5.57,4.6-8.11,5.99c-2.54,1.39-5.26,2.84-8.17,6.32c-2.9,3.48-5.99,8.99-7.9,11.68c-1.91,2.69-2.63,2.57-3.27,0.24
		c-0.64-2.33-1.18-6.87-2.48-8.71c-1.3-1.85-3.36-1-5.35-1.33c-2-0.33-3.93-1.85-4.75-6.93c-0.82-5.08-0.51-13.74-0.05-20.35
		c0.47-6.61,1.1-11.18,2.36-14.88c1.26-3.71,3.13-6.55,4.7-9.15c1.57-2.6,2.84-4.96,3.63-7.32c0.79-2.36,1.09-4.72,0.79-7.84
		c-0.3-3.12-1.21-6.99-1.35-11.22c-0.14-4.24,0.5-8.83,3.03-13.16c2.53-4.33,6.94-8.38,11.72-11.01c4.78-2.63,9.92-3.84,15.43-3.87
		c5.51-0.03,11.38,1.12,15.67,3.36c4.3,2.24,7.02,5.57,8.41,9.56c1.39,3.99,1.45,8.65,2,15.76c0.54,7.11,1.57,16.67,2.41,25.69
		c0.83,9.02,1.47,17.49,0.76,21.84c-0.71,4.36-2.77,4.6-5.7,3.63c-2.93-0.97-6.75-3.15-8.86-4.99c-2.12-1.85-2.54-3.36-1.51-8.32
		c1.03-4.96,3.51-13.37,4.33-19.79c0.82-6.41-0.03-10.83-0.86-14.16c-0.83-3.33-1.65-5.57-1.94-7.68c-0.29-2.12-0.05-4.11,0.17-5.78
		c0.21-1.66,0.39-3,0.03-3.57c-0.36-0.57-1.27-0.39-2.54,0.42c-1.27,0.82-2.9,2.27-6.02,3c-3.12,0.73-7.71,0.73-12.52,2.33
		c-4.81,1.6-9.83,4.81-12.89,7.9c-3.06,3.09-4.14,6.05-4.87,9.08c-0.73,3.03-1.09,6.11-1.18,9.35c-0.09,3.24,0.09,6.63,1.15,10.13
		c1.06,3.51,3,7.14,6.04,9.77c3.04,2.63,7.19,4.27,10.74,5.05c3.55,0.79,6.52,0.73,9.09-0.27c2.57-1,4.75-2.93,5.99-3.24
		c1.24-0.3,1.54,1.03,3.66,4.45c2.12,3.42,6.05,8.92,7.56,12.52c1.51,3.6,0.61,5.29-1.15,7.29c-1.75,2-4.36,4.3-6.35,5.17
		c-2,0.88-3.39,0.33-4.9-0.21c-1.51-0.54-3.15-1.09-5.26-0.57c-2.12,0.51-4.72,2.09-6.84,3.3c-2.12,1.21-3.75,2.06-5.32-0.21
		c-1.57-2.27-3.09-7.65-4.39-12.86c-1.3-5.2-2.39-10.23-3.39-12.16c-1-1.94-1.91-0.79-3.06,2.57c-1.15,3.36-2.54,8.92-3.57,17.86
		c-1.03,8.94-1.69,21.25-2.93,32.2c-1.24,10.95-3.06,20.54-4.11,28.36c-1.06,7.82-1.36,13.87-1.12,17.08
		c0.24,3.21,1.03,3.57,8.77,3.75c7.74,0.18,22.45,0.18,30.04-1.18c7.59-1.36,8.08-4.08,8.05-10.65c-0.03-6.56-0.57-16.97,0.03-26.14
		c0.6-9.17,2.36-17.09,4.04-21.36c1.68-4.27,3.28-4.87,3.9-3.36c0.62,1.51,0.26,5.14-0.29,11.41c-0.54,6.26-1.27,15.16-1.21,23.05
		c0.06,7.9,0.91,14.79,1.29,20.1c0.38,5.31,0.29,9.03-0.3,11.01c-0.59,1.98-1.68,2.22-11.3,2.34c-9.62,0.12-27.77,0.12-37.48,0.12
		c-9.71,0-10.98,0-11.68-1.36c-0.7-1.36-0.82-4.08-0.42-10.23c0.39-6.14,1.3-15.7,2.07-24.16c0.77-8.46,1.41-15.81,1.36-21.24
		c-0.05-5.43-0.77-8.94-2.71-12.63c-1.94-3.69-5.08-7.56-7.29-10.47c-2.21-2.9-3.48-4.84-6.56-6.85c-3.09-2.01-7.99-4.1-11.56-6.47
		c-3.57-2.37-5.81-5.04-7.84-8.61c-2.03-3.57-3.84-8.05-6.01-12.83c-2.16-4.78-4.67-9.86-7.08-13.83c-2.41-3.96-4.7-6.81-7.22-9.35
		c-2.51-2.54-5.23-4.78-7.32-6.96c-2.09-2.18-3.54-4.3-5.14-5.42c-1.6-1.12-3.36-1.24-4.93-0.36c-1.57,0.88-2.96,2.75-3.69,5.54
		c-0.73,2.78-0.79,6.47-1.36,9.74c-0.57,3.27-1.66,6.11-3.15,8.02c-1.48,1.91-3.36,2.87-4.11,5.69c-0.76,2.81-0.39,7.47,1.57,11.92
		c1.97,4.45,5.54,8.68,10.04,11.19c4.51,2.51,9.95,3.3,14.07,2.78c4.11-0.51,6.9-2.33,9.26-4.02c2.36-1.69,4.3-3.27,5.51-4.24
		c1.21-0.97,1.69-1.33,3.21-1.36c1.51-0.03,4.05,0.27,6.56,1.33c2.51,1.06,4.99,2.87,7.53,4.21c2.54,1.33,5.14,2.18,6.63,1.21
		c1.48-0.97,1.85-3.75,1-10.38c-0.85-6.63-2.9-17.09-5.02-25.2c-2.12-8.11-4.3-13.86-7.97-19.2c-3.68-5.34-8.85-10.27-14.31-13.04
		c-5.46-2.77-11.21-3.37-16.56-2.77c-5.35,0.61-10.32,2.42-15.01,6.35c-4.69,3.93-9.11,9.98-12.31,16.55
		c-3.21,6.56-5.2,13.64-5.81,20.57c-0.61,6.93,0.18,13.7,1.53,19.79c1.35,6.08,3.25,11.47,4.08,15.4c0.83,3.93,0.59,6.41,0.59,8.65
		c0,2.24,0.24,4.24,1.88,5.63c1.63,1.39,4.66,2.18,7.38,1.78c2.72-0.39,5.14-1.97,6.02-4.99c0.88-3.03,0.21-7.5-0.06-10.01
		c-0.27-2.51-0.15-3.06,1.09-3.18c1.24-0.12,3.6,0.18,6.6,0.39s6.63,0.33,10.8-0.76c4.17-1.09,8.89-3.39,12.8-3.54
		s6.99,1.85,8.86,3.48c1.88,1.63,2.54,2.9,2.39,4.6c-0.15,1.69-1.12,3.81-1.78,5.57c-0.67,1.75-1.03,3.15-0.64,5.29
		c0.39,2.15,1.54,5.05,2.18,8.29c0.64,3.24,0.76,6.81-0.06,11.98c-0.82,5.17-2.57,11.95-2.93,19.66
		c-0.36,7.71,0.67,16.37,1.21,21.87c0.54,5.51,0.61,7.87,0.63,9.55c0.03,1.68,0.02,2.69-0.08,3.56c-0.1,0.87-0.3,1.62-6.02,1.99
		c-5.72,0.37-16.95,0.37-23.41,0.31c-6.46-0.06-8.16-0.17-9.46-1.17c-1.3-1-2.21-2.87-3.66-9.62c-1.45-6.75-3.45-18.36-4.67-25.44
		c-1.23-7.08-1.68-9.62-1.6-11.71c0.08-2.09,0.68-3.72,3.74-8.05c3.06-4.33,8.56-11.34,12.89-16.25c4.33-4.9,7.47-7.68,10.17-10.47
		c2.69-2.78,4.93-5.57,6.96-7.14c2.03-1.57,3.84-1.94,5.45-1.63c1.6,0.3,3,1.27,4.11,2.69c1.12,1.42,1.97,3.3,2.09,4.81
		c0.12,1.51-0.48,2.66-2.12,3.24c-1.63,0.57-4.3,0.57-7.68,1.63c-3.39,1.06-7.5,3.18-11.83,7.05c-4.33,3.87-8.86,9.5-11.95,13.77
		c-3.09,4.27-4.72,7.17-6.32,6.85c-1.6-0.32-3.18-3.86-4.42-9.02c-1.24-5.16-2.15-11.93-3-16.32c-0.85-4.39-1.63-6.38-3.54-8.26
		c-1.91-1.88-4.93-3.63-7.17-4.14c-2.24-0.51-3.69,0.21-5.42,0.73c-1.72,0.51-3.72,0.82-7.02,0.06c-3.3-0.76-7.9-2.57-12.06-4.34
		c-4.16-1.77-7.88-3.49-11.59-3.39c-3.71,0.11-7.4,2.04-12.18,2.77c-4.78,0.73-10.65,0.24-15.25-2.24
		c-4.6-2.48-7.93-6.96-10.26-11.13c-2.33-4.18-3.66-8.05-4.24-11.89c-0.57-3.84-0.39-7.65,1.85-10.38
		c2.24-2.72,6.53-4.36,11.19-6.38c4.66-2.03,9.68-4.45,13.19-7.05c3.51-2.6,5.51-5.39,7.53-7.81c2.03-2.42,4.08-4.48,6.26-4.99
		c2.18-0.51,4.48,0.51,6.41,2.63c1.94,2.12,3.51,5.32,4.36,8.41c0.85,3.09,0.97,6.05,0.76,10.32c-0.21,4.27-0.76,9.83-1.6,14.61
		c-0.85,4.78-2,8.77-3.72,12.04c-1.72,3.27-4.02,5.81-4.21,8.44c-0.18,2.63,1.75,5.35,3.72,7.29c1.97,1.94,3.96,3.09,5.75,3.69
		c1.78,0.61,3.36,0.67,6.23-0.15c2.87-0.82,7.05-2.51,9.17-5.26c2.12-2.75,2.18-6.56,2-10.65c-0.18-4.08-0.61-8.44-0.85-13.8
		c-0.24-5.35-0.3-11.71-0.76-17.43c-0.45-5.72-1.3-10.8-3.03-15.25c-1.72-4.45-4.33-8.26-9.54-12.42
		c-5.22-4.16-13.05-8.67-20.81-10.41c-7.76-1.74-15.44-0.71-23.67,3.59c-8.23,4.3-17,11.86-21.81,19.82
		c-4.81,7.96-5.66,16.31-6.26,21.66c-0.61,5.35-0.97,7.71-2.24,10.26c-1.27,2.54-3.45,5.26-4.67,8.02s-1.5,5.54-0.24,7.87
		c1.26,2.33,4.04,4.21,6.67,4.87c2.63,0.67,5.11,0.12,7.65-1.66c2.54-1.78,5.14-4.81,7.14-6.41c2-1.6,3.39-1.78,4.24-1.18
		c0.85,0.6,1.15,2,1.94,4.08c0.79,2.09,2.06,4.87,4.33,7.2c2.27,2.33,5.54,4.21,8.71,5.26c3.18,1.06,6.26,1.3,9.77,1.09
		c3.51-0.21,7.44-0.88,10.95-0.57c3.51,0.3,6.6,1.57,9.05,2.6c2.45,1.03,4.27,1.82,8.26,2.9c3.99,1.09,10.17,2.48,14.49,3.87
		c4.33,1.39,6.81,2.78,8.74,5.35c1.94,2.57,3.33,6.32,5.45,13.9c2.12,7.58,4.96,18.98,6.9,29.36c1.93,10.38,2.96,19.73,3.5,24.95
		c0.54,5.22,0.61,6.3,0.16,6.93c-0.45,0.63-1.42,0.81-6.2,0.78c-4.78-0.03-13.37-0.27-17.55-1.51c-4.17-1.24-3.93-3.48-3.57-13.04
		c0.36-9.56,0.85-26.44,0.67-35.11c-0.18-8.67-1.03-9.12-1.91-8.56c-0.88,0.56-1.79,2.13-2.09,6.34c-0.3,4.21,0,11.04-0.03,19.21
		c-0.03,8.17-0.39,17.67-0.54,23.05c-0.15,5.39-0.09,6.66-0.61,7.59c-0.51,0.94-1.6,1.54-11.98,1.85
		c-10.38,0.3-30.04,0.3-40.13,0.12c-10.09-0.18-10.6-0.54-10.98-2.84c-0.38-2.3-0.62-6.53-0.23-12.52
		c0.39-5.99,1.42-13.74,4.02-21.03c2.6-7.29,6.78-14.13,11.19-20.95c4.42-6.82,9.08-13.63,12.4-18.36c3.33-4.73,5.32-7.4,7.08-8.3
		c1.75-0.91,3.27-0.06,3.9,1.39c0.64,1.45,0.39,3.51-0.85,5.9c-1.24,2.39-3.48,5.11-7.05,8.62c-3.57,3.51-8.47,7.81-12.37,11.95
		c-3.9,4.14-6.81,8.14-9.14,8.86c-2.33,0.73-4.08-1.82-5.69-7.08c-1.6-5.26-3.06-13.25-4.9-19.57c-1.85-6.32-4.08-10.98-6.2-13.75
		c-2.12-2.77-4.11-3.65-7.78-3.69c-3.66-0.05-8.99,0.74-14.28,2.41c-5.29,1.66-10.56,4.21-14.26,6.9c-3.7,2.69-5.83,5.54-7.4,10.32
		c-1.57,4.78-2.59,11.5-3.09,21.78c-0.51,10.29-0.51,24.14-0.51,33.14c0,29.56,18.27,33.26,17.74-3.86
		c-0.08-5.79-0.24-10.81-1.6-16.36c-1.35-5.54-3.89-11.6-6.7-17.36c-2.81-5.76-5.89-11.22-8.49-14.76c-2.6-3.54-4.7-5.16-6.76-5.73
		c-2.05-0.57-4.06-0.08-5.11,0.7c-1.05,0.78-1.16,1.87-0.34,4.29c0.82,2.42,2.58,6.18,2.62,10.19c0.04,4.01-1.64,8.29-3.01,11.99
		c-1.38,3.7-2.46,6.84-2.32,14.36c0.14,7.52,1.49,19.41,1.76,26.22c0.27,6.81-0.54,8.53-1.3,8.5c-0.76-0.03-1.46-1.8-2.04-4.87
		c-0.58-3.06-1.04-7.42-1.35-13.24c-0.31-5.83-0.47-13.13-1.53-19.59c-1.05-6.46-3-12.08-6.76-18.03
		c-3.76-5.95-9.33-12.22-13.3-15.68c-3.97-3.46-6.35-4.11-8.89-3.05c-2.54,1.05-5.24,3.81-7.03,4.62c-1.78,0.81-2.65-0.32-4.22-2.57
		c-1.57-2.24-3.84-5.6-5.73-7c-1.89-1.41-3.41-0.87-5.11,0.54c-1.7,1.41-3.6,3.68-3.54,5.97c0.05,2.3,2.05,4.62,3.97,7.76
		c1.92,3.14,3.76,7.08,4.68,10.22c0.92,3.14,0.92,5.46,0.73,13.68c-0.19,8.22-0.57,22.33-0.89,30.17
		c-0.32,7.84-0.59,9.41-4.79,10.19c-4.19,0.78-12.3,0.78-16.88,0.76c-4.58-0.03-5.64-0.08-6.16-2.03c-0.53-1.95-0.53-5.79-0.8-12.6
		c-0.27-6.81-0.81-16.6-0.66-24.01c0.15-7.41,0.99-12.44,2.35-16.95c1.37-4.51,3.26-8.52,5.85-12.33c2.6-3.81,5.89-7.43,10.21-10.88
		c4.31-3.45,9.64-6.72,12.79-9.57c3.15-2.85,4.12-5.29,3.5-8.15c-0.62-2.87-2.84-6.16-4.14-11c-1.3-4.84-1.68-11.22-1.46-17.14
		c0.22-5.92,1.03-11.38,2.57-14.63c1.54-3.24,3.81-4.27,8.52-3.51c4.7,0.76,11.84,3.3,16.6,6.54c4.76,3.24,7.14,7.19,8.33,12.27
		c1.19,5.08,1.19,11.3-0.05,16.38c-1.24,5.08-3.73,9.03-7.35,11.17c-3.62,2.14-8.38,2.46-12.25,0.97c-3.87-1.49-6.84-4.79-9-8.81
		c-2.16-4.03-3.51-8.79-4.19-13.44c-0.68-4.65-0.68-9.19-0.22-12.87c0.46-3.68,1.38-6.49,3.3-8.68c1.92-2.19,4.84-3.76,9.11-3.78
		c4.27-0.03,9.89,1.49,13.9,3.3c4,1.81,6.38,3.92,8.25,7.43c1.87,3.51,3.22,8.43,3.5,13.79c0.28,5.35-0.5,11.14-1.35,17.41
		c-0.85,6.27-1.77,13.03-1.01,19.76c0.76,6.73,3.19,13.44,5.68,17.63c2.49,4.19,5.03,5.87,7.14,4.14s3.78-6.87,4.41-11.11
		c0.62-4.24,0.19-7.6-0.81-13.07c-1-5.47-2.57-13.07-3.78-18.95c-1.22-5.88-2.08-10.04-2.81-15.5c-0.73-5.46-1.32-12.22-2.81-18.25
		c-1.49-6.03-3.87-11.33-8.92-15.14c-5.06-3.81-12.79-6.14-18.75-6.15c-5.96-0.01-10.15,2.28-13.06,3.92
		c-2.91,1.64-4.53,2.61-5.88,4.45c-1.35,1.84-2.43,4.54-3.33,11.99c-0.89,7.45-1.6,19.64-2.3,28.47c-0.7,8.83-1.41,14.29-2.38,16.83
		c-0.97,2.54-2.22,2.16-4.93,3.73c-2.72,1.57-6.91,5.08-10.52,9.44c-3.61,4.35-6.64,9.54-8.42,16.64c-1.78,7.1-2.32,16.1-2.65,26.06
		c-0.32,9.96-0.43,20.88-0.73,26.53c-0.3,5.65-0.78,6.03-7,6.22c-6.22,0.19-18.17,0.19-25.87,0.19c-7.71,0-11.17,0-12.9-4.46
		c-1.73-4.46-1.73-13.38-1.7-22.2c0.03-8.81,0.08-17.52-0.49-24.25c-0.57-6.73-1.76-11.49-1.92-14.52c-0.16-3.03,0.7-4.33,1.89-2.84
		c1.19,1.49,2.7,5.76,3.78,11.54c1.08,5.79,1.73,13.08,1.73,22.41s-0.65,20.68-0.87,27.41c-0.22,6.73,0,8.84,3.22,9.65
		c3.22,0.81,9.44,0.32,15.27,0.32c5.84,0,11.3,0.49,14.46-2.57c3.16-3.05,4.03-9.65,3.78-17.78c-0.24-8.12-1.6-17.78-3.35-27.44
		c-1.76-9.66-3.92-19.34-6.52-25.43c-2.6-6.08-5.62-8.57-8.95-9.44c-3.33-0.87-6.95-0.11-9.08-0.62c-2.14-0.51-2.78-2.3-2.89-4.19
		c-0.11-1.89,0.32-3.89,2.51-5.38c2.19-1.49,6.14-2.46,9.46-1.62c3.33,0.84,6.03,3.49,9.27,9.68c3.24,6.19,7.03,15.92,9.41,21.68
		c2.38,5.76,3.35,7.54,4.07,6.8c0.72-0.74,1.18-4.01,1.41-7.35c0.23-3.34,0.23-6.75,1.28-12.15c1.05-5.41,3.16-12.81,4.97-19.76
		c1.81-6.95,3.33-13.44,4.08-17.98c0.76-4.54,0.76-7.14,0.49-9.08c-0.27-1.95-0.81-3.24-1.95-3.11c-1.14,0.14-2.87,1.7-3.76,3.87
		c-0.89,2.16-0.95,4.92-1.43,7.48c-0.49,2.55-1.41,4.91-3.27,7.06c-1.87,2.15-4.68,4.1-7.35,4.69c-2.68,0.59-5.22-0.16-8.08-1.73
		c-2.87-1.57-6.06-3.95-8.27-6.87c-2.22-2.92-3.46-6.38-4.14-10.38c-0.68-4-0.78-8.54-0.73-11.79c0.05-3.24,0.27-5.19,2.11-6.92
		s5.3-3.24,8.27-4.65c2.97-1.41,5.46-2.7,7.84-3.24c2.38-0.54,4.65-0.32,7.12,2.39c2.47,2.72,5.15,7.93,7,12.11
		c1.85,4.18,2.88,7.31,3.04,10.96c0.16,3.65-0.54,7.81-0.59,11.17c-0.05,3.35,0.54,5.89,2.19,9c1.65,3.11,4.35,6.79,7,8.68
		c2.65,1.89,5.24,2,6.22,1.19c0.97-0.81,0.32-2.54-0.46-5.38c-0.78-2.84-1.7-6.79-2.3-11.33c-0.59-4.54-0.87-9.68-1.89-13.92
		c-1.03-4.24-2.81-7.6-4.33-10.08c-1.51-2.49-2.76-4.11-3.3-6.6c-0.54-2.49-0.38-5.84-1.16-9.06c-0.78-3.22-2.51-6.3-5.7-8.68
		c-3.19-2.38-7.84-4.06-11.87-4.76c-4.03-0.7-7.43-0.43-11.4,1.62c-3.96,2.05-8.48,5.89-11.14,10.14
		c-2.66,4.24-3.47,8.89-3.12,12.54c0.35,3.65,1.87,6.3,2.64,10.37c0.77,4.07,0.8,9.56,0.97,13.54c0.18,3.99,0.5,6.47-0.64,8.75
		c-1.14,2.27-3.73,4.33-5.49,6.3c-1.76,1.97-2.68,3.87-4.54,5.57c-1.87,1.7-4.68,3.22-6.95,4.87c-2.27,1.65-4,3.43-6.06,6.89
		c-2.05,3.46-4.43,8.6-6.43,14.09s-3.62,11.33-4.95,21.84c-1.32,10.52-2.35,25.71-3.04,34.09c-0.69,8.38-1.04,9.95-5.7,10.73
		c-4.66,0.78-13.64,0.78-18.4,0.76c-4.76-0.03-5.3-0.08-5.79-0.7c-0.49-0.62-0.92-1.81-1.22-3.89c-0.3-2.08-0.46-5.06-0.26-9.46
		c0.2-4.41,0.77-10.25,1.22-16.36c0.45-6.11,0.77-12.49,0.31-17.98c-0.46-5.49-1.7-10.08-2.41-13.27c-0.7-3.19-0.87-4.97,1.38-5.35
		c2.24-0.38,6.89,0.65,9.27,0.49c2.38-0.16,2.49-1.51,2.3-2.62c-0.19-1.11-0.68-1.97-1.19-3.92c-0.51-1.95-1.05-4.97,0.05-8.68
		c1.11-3.7,3.87-8.08,3.6-12.87c-0.27-4.79-3.57-9.98-5.11-13.25c-1.54-3.27-1.32-4.62-0.05-5.24c1.27-0.62,3.6-0.51,5.16,0.92
		c1.57,1.43,2.38,4.19,3.7,7.33c1.32,3.14,3.16,6.65,5.24,8.73c2.08,2.08,4.41,2.73,7.14,2.97c2.73,0.24,5.87,0.08,8.65-0.97
		c2.78-1.05,5.22-3,6.54-6.3c1.32-3.3,1.54-7.95,1.24-12.71c-0.3-4.76-1.11-9.62-2.46-13.49c-1.35-3.87-3.24-6.73-5.6-8.54
		c-2.35-1.81-5.16-2.57-8.6-2.57c-3.43,0-7.49,0.76-10.79,3.14c-3.3,2.38-5.84,6.38-7.06,11.68c-1.22,5.3-1.11,11.9-0.65,16.38
		c0.46,4.49,1.27,6.87,1.22,9.06c-0.05,2.19-0.97,4.19-2.73,5.16c-1.76,0.97-4.35,0.92-6.19-0.38c-1.84-1.3-2.92-3.84-3.97-8.54
		c-1.05-4.7-2.08-11.57-2.05-17.57c0.03-6,1.11-11.14,3.92-15.65c2.81-4.51,7.35-8.41,12.11-10.73c4.76-2.33,9.73-3.08,14.52-3
		c4.79,0.08,9.38,1,13.54,4.33c4.16,3.33,7.89,9.06,10.62,15.49c2.73,6.43,4.46,13.57,5.33,18.71c0.87,5.14,0.87,8.27-0.38,10.73
		c-1.24,2.46-3.73,4.24-5.97,5.61c-2.24,1.37-4.24,2.31-5.62,3.92c-1.38,1.61-2.14,3.88-4.24,7.45c-2.11,3.57-5.57,8.43-7.73,10.84
		c-2.16,2.41-3.03,2.35-5.03,0.11c-2-2.24-5.14-6.68-7.41-10.22c-2.27-3.54-3.68-6.19-6.73-6.7c-3.05-0.51-7.76,1.11-12.95,3.65
		c-5.19,2.54-10.87,6-14.19,8.49c-3.33,2.49-4.3,4-4.79,10.84c-0.49,6.84-0.49,19.01-0.49,30.77s0,23.11-0.53,29.01
		c-0.53,5.89-1.58,6.33-11.64,6.54s-29.12,0.22-48.18,0.22"/>
</g>
</svg>
