<?xml version="1.0" encoding="utf-8"?>
<!-- Generator: Adobe Illustrator 26.0.3, SVG Export Plug-In . SVG Version: 6.00 Build 0)  -->
<svg version="1.1" id="Layer_1_copy" xmlns="http://www.w3.org/2000/svg" xmlns:xlink="http://www.w3.org/1999/xlink" x="0px"
	 y="0px" viewBox="0 0 4768 3165.33" style="enable-background:new 0 0 4768 3165.33;" xml:space="preserve">
<style type="text/css">
	.st0{fill:none;stroke:#000000;stroke-width:17;stroke-linecap:round;stroke-linejoin:round;}
	.st1{fill:none;stroke:#000000;stroke-width:16;stroke-linecap:round;stroke-linejoin:round;}
</style>
<g>
	<g>
		<path d="M1781,1424.89c16,0,33.46-148.68,33.66-151c6.68-76.05,16.56-152.01,7.25-228.57c-2.46-20.25-4.45-40.56-6.8-60.83
			c-2.12-18.3,2.38-34.9,13.47-49.36c19.15-24.98,38.61-49.74,58.31-74.28c8.9-11.09,20.94-16.4,35.37-15.82
			c9.9,0.4,19.83,0.46,29.72,1.05c36.04,2.14,68.33-3.76,104.95-19.76c-9.14-28.83-7.69-58.19,0.04-87.29
			c3.13-11.79,7.43-23.31,11.87-34.69c6.7-17.17,9.83-34.41,6.66-53c-5.85-34.21-1.45-67.35,12.73-99.17
			c4.74-10.64,8.73-21.62,13.25-32.36c9.44-22.49,11.25-45.72,10.93-70.1c-0.94-69.74,14.09-134.22,67.47-184.66
			c12.66-11.96,23.09-26.25,34.89-39.15c10.22-11.17,20.09-22.88,31.58-32.63c31.36-26.6,66.62-34.78,105.87-19.02
			c7.03,2.82,14.03,5.73,21.41,8.75c1.3-0.48,3.13-0.75,4.45-1.72c23.2-16.95,48.65-18.96,74.86-9.63
			c77.19,27.46,137.47,74.78,175.1,149.18c14.17,28.01,29.31,55.81,46.83,81.79c26.26,38.94,29.53,78.65,11.38,121.1
			c-4.35,10.18-8.67,20.4-12.47,30.79c-8.58,23.43-5.82,46.05,6.87,67.19c5.67,9.44,12.77,18.08,19.68,26.72
			c26.15,32.72,41.24,70.04,47.09,111.33c2.92,20.63,0.19,40.7-5.45,60.51c-2.23,7.85-4.97,15.54-7.38,23.34
			c-6.3,20.42-5.28,40.26,4.91,59.32c3.3,6.17,6.44,12.44,10.03,18.43c19.23,32.07,24.81,66.61,16.54,102.76
			c-11.3,49.38-22.86,98.72-40.97,146.26c-26.55,69.7-32.38,140.39-8.52,212.27c2.66,8.01,7.55,17.59-0.07,24.72
			c-7.75,7.25-16.42,0.76-24.49-2.01c-32.04-11.01-56.35-31.82-76.67-58.48c-41.06-53.87-61.02-113.44-51.86-181.57
			c2.09-15.59,2.04-31.56,5.11-46.92c6.77-33.77-1-64.84-15.14-94.98c-9.48-20.22-17.89-41-18.58-63.35
			c-0.61-19.68,1.12-39.58,3.5-59.18c5.63-46.44,2.7-84.64-10.63-122.87c-16.06,8.62-32.47,16.87-48.25,26.18
			c-5.85,3.45-10.26,9.37-15.29,14.2c-29.34,28.2-63.19,35.73-101.5,21.82c-5.4-1.96-10.74-4.78-15.28-8.28
			c-12.66-9.75-14.47-23.89-5.39-37.11c15.68-22.85,53.21-36.82,79.34-27.9c8.85,3.02,17.33,9.43,23.93,16.27
			c11.3,11.7,19.73,12.42,29.43-0.64c4.85-6.53,9.47-13.43,12.89-20.77c13.83-29.63,25.53-60.01,31.38-92.42
			c2.27-12.6,5.35-25.08,8.71-37.44c6.4-23.56,6.83-46.94,1.46-70.87c-11.99-53.42-23.2-107.02-34.71-160.54
			c-5.89-27.36-19.45-50.52-35.99-73c-22.45-30.52-50.82-54.1-79.89-76.87c-1.66,0.31-3.06,0.16-3.86,0.78
			c-32.66,25.44-65.36,50.83-97.85,76.49c-31.75,25.08-44.03,59.43-44.66,98.46c-0.35,21.54,0.95,43.14,2.23,64.66
			c2.15,36.13,1.87,71.98-1.81,108.2c-4.76,46.91-4.88,94.27-7.77,141.4c-2.57,41.88-5.76,83.74-9.56,125.53
			c-1.58,17.34-0.2,33.51,7.73,49.24c9.19,18.21,17.75,36.74,26.27,55.28c15.71,34.17,26.74,69.87,29.61,107.38
			c5.91,77.25-16.25,143.91-77.19,194.96c-7.15,5.99-14.56,11.74-21.19,18.27c-17.24,16.97-36.26,27.6-62.85,17.91
			c-0.37,5.79-1.4,10.18-0.81,14.34c4.39,30.74-0.53,60.5-9.52,89.72c-7.37,23.94-15.35,47.7-23.5,71.4
			c-15.51,45.08-23.31,91.42-23.39,139.05c-0.1,54.81,0.92,109.64-0.21,164.42c-0.94,45.76-10.6,90.19-26.25,133.27
			c-10.68,29.41-26.45,55.67-47.03,79.25c-5.93,6.79-10.28,14.97-16.37,24.03c8.96,10.6,16.4,20.99,25.43,29.72
			c14.24,13.77,29.39,26.62,44.43,39.55c68.08,58.5,146.53,87.02,236.7,81.62c9.88-0.59,19.86-0.92,29.72-0.31
			c21.01,1.31,30.1,14.55,23.54,34.81c-3.02,9.34-7.37,18.45-12.42,26.88c-8.67,14.49-18.03,28.61-27.69,42.48
			c-51.8,74.36-87.02,156.73-117.17,241.57c-0.32,0.91,0.3,2.17,0.68,4.46c1.77-2.22,3.24-3.68,4.26-5.41
			c46.55-78.8,92.87-157.74,139.68-236.39c16.08-27.03,33.41-53.31,50.06-80.01c11.16-17.91,27.25-28.87,47.81-32.22
			c22.4-3.64,44.95-6.76,67.56-8.63c70.61-5.82,139.46-20.48,207.37-40.08c7.27-2.1,14.36-4.82,21.47-7.44
			c3.25-1.2,6.33-2.84,8.55-3.86c2.39-6.33,3.67-12.03,6.49-16.84c19.18-32.66,38.67-65.14,58.09-97.66
			c2.68-4.49,4.95-9.45,8.5-13.13c1.83-1.9,6.38-2.5,9.13-1.71c1.77,0.51,3.65,4.69,3.47,7.08c-0.3,3.93-1.91,7.87-3.51,11.57
			c-47.37,109.67-89.86,221.42-141.75,329.19c-24.55,50.99-41.96,104.93-56.43,159.7c-0.6,2.25-1.29,4.49-1.72,6.78
			c-2.57,13.7-1.42,15.5,12.78,19.15c25.37,6.52,51.03,12.08,76.08,19.65c34.54,10.45,64.75,28.45,90.68,54.13
			c23.87,23.64,37.5,24.08,63.04,1.73c21.91-19.18,42.04-40.38,63.11-60.53c5.77-5.52,6.96-11.18,4.23-18.82
			c-6.07-17.01-10.97-34.43-17.02-51.44c-20.2-56.82-35.15-114.85-39.46-175.18c-3.87-54.2-13.85-107.45-22.12-161.03
			c-7.9-51.21-13.27-102.93-17.14-154.62c-3.97-52.97-8.76-105.7-19.35-157.81c-5.84-28.74-7.42-57.83-4.99-87.06
			c4.85-58.27,4.73-116.5-0.93-174.71c-0.06-0.58,0.11-1.24-0.11-1.74c-11.06-24.45-4.61-51.02-9.35-76.43
			c-10.49-56.25-21.96-112.04-42.78-165.61c-6.74-17.34-11.3-35.52-16.95-53.29c-6.7-21.09-4.67-41.59,4.9-61.21
			c5.61-11.49,11.83-22.78,18.8-33.49c28.15-43.21,51.3-88.75,67.11-137.97c4.98-15.52,11.24-30.64,17.07-45.87
			c9.32-24.32,25.36-42.91,47.8-56.16c6.37-3.76,12.22-8.4,19.37-13.37c-7.07-16.82-17.27-28.46-32.84-35.57
			c-13.77-6.29-27.97-11.99-40.87-19.78c-11.86-7.16-22.52-16.44-33.12-25.47c-4.31-3.67-8.18-9.15-4.19-15.42
			c3.88-6.09,9.95-5.64,15.58-3.05c11.6,5.35,23.55,10.27,34.29,17.05c10.78,6.81,20.85,15.05,30.17,23.79
			c10.93,10.25,23.34,17.23,37.41,21.73c18.32,5.86,36.77,11.34,54.86,17.83c11.06,3.97,19.33,1.66,25.95-7.64
			c11.49-16.14,23.24-32.12,34.3-48.55c17.91-26.59,35.03-53.73,53.19-80.14c5.68-8.26,7.62-16.16,6.82-26.03
			c-2.13-26.25-12.18-49.48-24.32-72.34c-12.01-22.62-24.17-45.32-33.87-68.96c-13.8-33.62-17.59-68.89-8.57-104.57
			c2.97-11.75,7.35-23.47,13.06-34.14c10.88-20.34,16.95-41.96,21.8-64.3c18.68-86.14,62.25-156.51,134.83-207.46
			c60.33-42.35,127.94-50.53,198.85-38.21c32.7,5.68,64.96,13.81,97.56,20.14c13.12,2.55,26.56,3.8,39.92,4.7
			c46.32,3.11,82.95,25.38,114.36,57.66c21.87,22.48,36.71,49.55,48.53,78.35c35.59,86.69,61.25,176.05,72.89,269.24
			c2.02,16.17,5.54,32.15,8.45,48.21c12.41,68.54,52.2,121.12,99,169.58c7.29,7.55,14.91,14.78,22.06,22.46
			c4.1,4.41,7.76,10.4,3.01,15.51c-2.94,3.16-8.99,4.11-13.81,4.63c-3.88,0.42-7.97-1.37-11.99-2.03
			c-23.25-3.81-46.28-3.85-69.43,1.71c-37.12,8.91-72.52,21.72-105.02,42.08c-9.87,6.18-19.99,12.09-30.45,17.18
			c-24.15,11.75-40.7,7.13-55.73-14.81c-1.32-1.92-2.59-3.89-3.73-5.91c-12.5-22.02-28.64-41.09-47.1-58.28
			c-5.55-5.17-10.71-10.78-16.51-15.64c-53.9-45.13-82.07-104.79-97.33-171.78c-1.51-6.62-3.2-13.21-5.53-22.79
			c-8.14,15.66-9.99,29.99-11.39,44.09c-6.61,66.49,8.91,127.14,48.21,181.69c23.72,32.93,52.49,60.83,82.67,87.58
			c21.81,19.33,43.14,39.2,64.44,59.1c5.08,4.74,9.85,10.13,13.42,16.04c2.05,3.39,3.25,9.64,1.45,12.37
			c-1.89,2.88-8.43,5.16-11.88,4.14c-18.9-5.58-38.31-10.56-55.91-19.09c-13.89-6.73-26.56-17.11-37.84-27.9
			c-81.67-78.1-135.59-171.5-152.47-284.26c-5.47-36.57-1.61-73.33,3.9-109.78c5.42-35.85,10.35-71.95,1.3-107.72
			c-5.69-22.51-11.75-45.58-22.16-66.11c-18.94-37.34-40.75-73.27-62.46-109.12c-6.21-10.25-15.35-19.22-24.65-26.98
			c-17.71-14.76-37.07-17.52-58.33-5.83c-26.85,14.76-50.91,32.89-71.88,55.12c-17.49,18.54-29.4,40.38-37.42,64.53
			c-19.12,57.55-23.79,116.8-15.77,176.28c11.68,86.62,35.16,170.02,78.64,246.77c1.72,3.04,3.15,6.26,4.98,9.23
			c5.79,9.37,8.14,9.99,18.5,5.47c5.3-2.31,10.45-5.43,16-6.57c11.36-2.31,20.14,3.06,21.76,12.15c1.52,8.51-3.75,16.5-14.1,19.09
			c-6.04,1.51-12.76,1.89-18.92,1c-8.97-1.29-11.51,2.82-11.78,11.08c13.14,10.21,26.72,20.22,39.7,30.96
			c31.53,26.1,55.74,57.8,71.7,95.63c17.55,41.6,8.22,62.69-34.69,77.94c-11.25,4-22.66,7.54-34,11.29c0.2,1.17,0.39,2.34,0.59,3.51
			c4.23,0.41,8.44,1.07,12.68,1.19c43.47,1.21,84.27,11.05,120.16,36.91c1.89,1.36,4.09,2.33,5.85,3.82
			c22.16,18.77,44.54,16.89,67.14,0.88c1.9-1.34,4.06-2.31,5.95-3.67c48.34-34.68,103.32-47.04,161.65-48.2
			c31.02-0.61,36.99-5.08,44.72-35.08c6.1-23.67,11.83-47.43,17.5-71.2c5.13-21.52,18.72-36.16,38.03-45.28
			c31.07-14.66,62.31-29.03,94-42.28c14.94-6.25,30.84-10.91,46.75-14.02c34.99-6.84,67.11,3.78,97.33,20.24
			c35.58,19.39,67.01,44.23,92.62,75.95c0.65,0.8,0.55,2.2,1.15,4.92c-2.74,1.71-5.72,4.93-9.13,5.49
			c-17.64,2.88-31.14,13.01-43.46,24.68c-10.97,10.4-21.55,21.41-30.99,33.2c-26.32,32.89-48.03,68.8-67.03,106.36
			c-1.31,2.59-2.55,5.24-3.54,7.96c-0.32,0.88,0.27,2.09,0.45,3.22c27.84-20.94,55.56-41.97,83.5-62.71
			c10.76-7.99,21.64-15.96,33.18-22.72c7.38-4.33,15.84-7.81,24.23-9.21c13.3-2.22,24.87,3.57,30.77,15.43
			c6.93,13.93,13.26,28.64,16.74,43.73c9.48,41.08,11.26,83.14,12.18,125.14c2.05,94.46,3.67,188.92,5.6,283.38
			c0.89,43.73,2.09,87.45,3.18,131.17c0.75,30.39-5.24,58.87-21.5,85.17c-14.83,23.98-20.3,51.42-19.76,78.84
			c1.01,50.87-18.26,91.64-54.74,125.64c-78.02,72.72-143.71,156.04-206.63,241.65c-26.29,35.78-57.05,66-96.08,87.72
			c-14.74,8.2-28.43,18.03-37.44,33.32c-7.01,11.89-20.05,9.93-31.45,10.72c-25.54,52.84-53.83,103.2-102.66,142.21
			c-0.82,10.56-2.29,24.4-2.87,38.27c-0.92,22.16,5.94,42.62,15.71,62.07c12.55,25,26.17,49.48,38.54,74.57
			c13.4,27.17,26.77,54.42,38.45,82.35c7.67,18.34,19.78,28.56,39.26,29.31c15.11,0.59,30.33,0.67,45.41-0.33
			c53.03-3.5,106.11-5.9,158.9,1.67c36.32,5.21,72.33,12.65,108.48,19.04c9.18,1.62,18.37,3.72,27.63,4.29
			c9.61,0.59,19.31-0.42,30.58-0.78c-0.98-13.32-2.72-24.25-2.43-35.12c1.88-69.65-13.48-136.57-30.82-203.31
			c-7.32-28.18-12.63-56.88-19.17-85.27c-9.23-40.08-7.01-79.85,2.14-119.59c6.8-29.53,12.64-59.29,19.91-88.71
			c11.71-47.36,15.91-95.29,14.23-143.97c-1.1-32.05-1.35-64.15-0.84-96.22c0.2-12.67,3.04-25.37,5.57-37.88
			c1.3-6.42,5.34-13.39,12.86-11.31c4.39,1.22,9.81,7.39,10.46,11.95c2.86,20.15,4.98,40.49,5.87,60.83
			c2.35,53.75-0.21,107.19-10.78,160.16c-13.31,66.71-10.33,133.3,2.23,199.88c8.85,46.94,17.95,93.94,23.98,141.29
			c6.7,52.58,12.29,105.45,9.39,158.72c-1.56,28.72-6.33,56.71-17.37,83.45c-5.04,12.23-9.66,24.64-14.73,36.86
			c-12.3,29.65-33.24,51.82-60.47,68.16c-17.99,10.8-36.36,20.97-54.6,31.35c-41.34,23.52-72.39,57.83-102.95,97.67
			c9.1,0.29,15.7,0.69,22.3,0.69c180.22,0.03,360.45-0.71,540.67,0.43c62.92,0.4,125.81,5.39,188.72,8.28
			c10.48,0.48,21.01,0.53,31.44,1.58c4.2,0.43,9.93,1.9,11.89,4.91c3.77,5.77-2.06,9.14-6.13,12.35c-1.17,0-2.33,0-3.5,0
			c-9.2-1.1-18.38-2.63-27.61-3.24c-211.49-14.07-423.26-6.78-634.92-8.45c-41.41-0.33-82.82,0.04-124.23-0.14
			c-6.68-0.03-15.19,2.29-18.46-6.02c-3.08-7.82,1.37-14.53,6.56-20.48c12.27-14.06,24.27-28.36,36.7-42.27
			c21.55-24.1,46.35-44.26,74.49-60.25c16.22-9.22,32.59-18.18,48.66-27.66c21.45-12.65,39.58-28.86,51.47-51.14
			c3.21-6.01,5.47-12.52,8.81-20.28c-68-0.63-130.76-24.42-196.45-27.38c-30.83-1.39-61.75-1-92.63-0.71
			c-26.8,0.25-53.59,2.09-80.39,2.12c-26.01,0.03-42.7-13.02-53.79-37.07c-21.95-47.61-45.69-94.4-69.2-141.27
			c-19.77-39.4-22.58-47.91-25.74-92.11c-13.09,19.97-20.18,39.21-18.29,61.5c1.99,23.5,8.69,45.76,17,67.6
			c4.87,12.78,7.46,25.72,5.09,39.38c-2.77,15.92-12.21,21-26.14,12.89c-16.2-9.43-25.52-24.71-33.9-41.18
			c-14.96-29.38-31.27-58.08-48.8-90.36c-3.95,8.76-6.6,14.22-8.9,19.83c-9.27,22.65-18.97,45.14-27.49,68.07
			c-7.89,21.26-14.2,43.11-21.73,64.51c-5.39,15.33-11.39,30.46-17.69,45.44c-1.99,4.72-5.53,8.91-8.91,12.89
			c-6.35,7.49-14.18,12.35-24.52,10.14c-9.98-2.14-13.7-10-15.98-18.84c-1.54-5.97-2.91-11.98-4.99-20.6
			c-10.07,22.19-19.12,42.22-28.24,62.2c-2.66,5.82-4.85,12.01-8.46,17.21c-9.88,14.25-22.82,13.07-30.95-2.39
			c-1.22-2.31-2.26-4.72-6.78-6.48c0.5,6.52,0.82,13.06,1.54,19.56c2.36,21.41,5.24,42.77,7.09,64.22
			c0.53,6.16-0.57,13.02-2.93,18.74c-4.54,11.03-16.53,13.34-23.65,3.87c-6.12-8.14-9.96-18.25-13.52-27.97
			c-3.36-9.16-5.03-18.93-7.76-29.66c-1.73,2.2-2.68,2.84-2.73,3.54c-0.8,12.58-4.61,22.98-18.61,26.11
			c-14.58,3.26-31.28-2.6-38.29-14.69c-4.33-7.47-7.14-15.89-9.99-24.11c-11.27-32.44-22.09-65.05-33.46-97.45
			c-8.87-25.26-18.29-50.33-27.5-75.47c-1.55-4.22-3.28-8.36-5.83-14.81c-11.08,17.87-18.23,34.93-20.36,53.11
			c-4.34,36.98-23.55,65.23-49.19,90.22c-3.3,3.21-7.1,6.09-11.11,8.35c-8.14,4.58-16.66,5.47-24.79-0.12
			c-8.8-6.05-11.48-14.99-8.6-24.67c8.14-27.32,16.63-54.56,25.65-81.6c12.44-37.29,17.36-74.74,4.9-113.02
			c-0.51-1.57-1.51-2.98-3.02-5.9c-3.85,3.01-7.54,5.41-10.67,8.41c-16.01,15.33-31.41,31.32-47.96,46.03
			c-9.48,8.43-20.19,15.87-31.34,21.93c-17.18,9.33-33.8,6.4-48.64-6.29c-2.66-2.27-5.44-4.46-7.8-7.02
			c-33.42-36.38-77-53.53-123.45-65.09c-13.56-3.38-27.43-5.54-41.01-8.85c-23.91-5.82-29.08-13.93-23.2-37.58
			c15.95-64.1,38.81-125.77,65.95-185.94c24.68-54.72,48.94-109.63,73.3-164.49c2.29-5.16,3.92-10.61,6.83-18.58
			c-6.66,2.33-10.78,3.74-14.88,5.2c-50.67,18.08-102.82,30.61-155.87,38.73c-39.72,6.08-79.85,9.39-119.78,14.13
			c-8.66,1.03-17.3,2.6-25.81,4.53c-15.37,3.47-27.88,11.21-36.56,24.89c-11.86,18.7-24.79,36.74-36.17,55.71
			c-43.17,72.01-86.14,144.13-128.66,216.52c-19.48,33.17-37.7,67.07-56.61,100.58c-2.57,4.55-5.13,9.49-8.93,12.85
			c-3.06,2.7-8.78,5.39-11.84,4.22c-2.86-1.09-4.38-7.14-5.31-11.27c-0.58-2.57,0.79-5.72,1.73-8.45
			c32.45-93.69,64.94-187.38,117.52-272.35c10.43-16.85,21.81-33.1,32.49-49.8c8.48-13.25,17.32-26.35,24.64-40.23
			c12.62-23.92,8.2-30.44-18.19-28.93c-1.75,0.1-3.49,0.27-5.23,0.41c-96.83,7.52-181.82-21.09-255.24-84.23
			c-22.54-19.39-44.2-39.8-66.28-59.71c-2.09-1.89-4.34-3.6-8.05-6.67c-10.05,13.06-20.1,25.01-28.94,37.79
			c-49.69,71.79-90.41,148.38-119.41,230.77c-22.25,63.21-42.47,127.13-63.85,190.65c-3.52,10.45-7.64,20.84-12.9,30.49
			c-2.1,3.84-7.93,7.61-12.25,7.83c-6.6,0.33-9.78-5.76-10.37-11.98c-0.66-6.93-1.54-14.09-0.5-20.88
			c7.02-46.06,13.04-92.35,22.25-137.99c11.76-58.27,37.69-111.36,66.23-163.03c38.32-69.4,77.2-138.49,115.89-207.68
			c3.12-5.59,6.12-11.37,10.09-16.34c7.68-9.6,15.56-9.01,22.37,1.38c2.54,3.87,4.07,8.39,6.44,12.4c2.01,3.39,4.57,6.46,8.03,11.27
			c5.35-5.02,10.11-9,14.31-13.51c34.69-37.16,50.69-83.1,61.29-131.49c11.2-51.13,11.61-102.98,9.86-154.96
			c-1.6-47.24-1.98-94.44,3.78-141.5c4.35-35.53,14.93-69.39,26.45-103.1c7.72-22.59,14.9-45.41,21.29-68.41
			c6.4-23.04,7.4-46.56,3.06-74.13c-6.83,7.43-11,12.76-15.98,17.19c-6.45,5.74-13.01,11.74-20.51,15.83
			c-7.6,4.14-17.14,1.76-19.35-5.97c-9.64-33.68-32.72-64.26-25.26-101.98c3.27-16.54,6.88-33.18,12.3-49.1
			c7.5-22.04,16.54-43.57,25.48-65.09c21.32-51.37,21.86-103.19,3.76-155.4c-2.99-8.62-7.4-16.75-12.29-27.62
			c-6.89,6.57-11.69,11.34-16.69,15.88c-21.56,19.54-42.87,39.37-64.97,58.29c-7.28,6.24-16.71,13.63-26.85,7.19
			c-11.2-7.12-6.73-19.22-4.06-28.81c15.52-55.7,40.71-105.46,89.59-139.92c0.89-0.63,1.39-1.81,3.11-4.15
			c-2.88,0.33-4.69,0.28-6.34,0.76c-27.29,7.99-55.16,10.16-83.14,5.83c-21.47-3.32-37.16,3.28-49.8,20.88
			c-13.6,18.93-28.47,36.95-43.01,55.19c-13.45,16.88-18.49,35.1-14.92,57.06c13.1,80.59,12.14,161.6,2.3,242.36
			c-8.67,71.14-18.72,142.15-29.71,212.97 M1781.36,1424.42 M4003.58,931.42c-32.39-31.54-65.68-57.41-106.7-72.01
			c-26.2-9.32-52.54-10.21-78.81-0.76c-19.73,7.1-39.56,14.1-58.75,22.51c-20.78,9.12-41.01,19.54-61.2,29.94
			c-12.38,6.37-21.21,16.09-24.69,30.17c-4.48,18.06-9.28,36.04-14.13,54.01c-3.64,13.47-6.47,27.3-11.65,40.17
			c-6.92,17.19-20.61,26.29-39.57,26.52c-7.58,0.09-15.17,0.01-22.74,0.3c-49.85,1.96-96.82,13.19-138.61,42.04
			c-9.54,6.59-19.94,12.14-30.46,17.06c-17.59,8.24-35.06,7.38-51.69-3.24c-7.37-4.7-14.87-9.23-22.11-14.12
			c-22.61-15.27-47.15-26-74.39-28.41c-21.99-1.94-44.17-1.72-66.26-2.41c-5.72-0.18-13.42,1.36-14.32-6.08
			c-0.57-4.74,2.47-11.9,6.3-14.79c9.18-6.92,19.44-12.7,29.92-17.52c9.47-4.36,19.96-6.44,29.73-10.22
			c30.47-11.78,35.45-23.46,23.1-53.8c-19.6-48.13-53.62-84.12-95.91-113.02c-1.26-0.86-3.13-0.82-7.01-1.75
			c-1.18,23.27-2.75,45.69-3.36,68.14c-1.45,53.11-12.56,104.13-33.61,152.77c-6.43,14.85-15.45,28.72-24.51,42.21
			c-3.62,5.38-10.42,11.73-16.02,11.97c-9.27,0.4-11.79,5.85-15.38,11.75c-26.36,43.26-44.26,89.79-54.37,139.4
			c-1.39,6.8-2.98,13.83-6.04,19.97c-4.97,9.98-14.01,10.4-20.74,1.52c-2.07-2.73-3.63-6.05-4.65-9.34
			c-6.4-20.74-11.69-42-8.08-63.66c4.59-27.54,10.21-55.01,17.19-82.04c12.32-47.73,20.62-95.61,16.3-145.22
			c-5.03-57.76,3.8-113.95,21.41-168.94c1.24-3.88,1.87-7.95,2.78-11.94c-5.18,4.19-8.02,9.21-11.33,13.91
			c-12.4,17.64-24.65,35.4-37.55,52.67c-10.16,13.59-23.26,18.16-40.05,11.88c-14.53-5.43-29.6-9.4-45.05-14.21
			c2.13,26.83,0.79,29.32-22.16,43.26c-1,0.61-1.97,1.24-2.98,1.83c-18.82,11-32.27,26.67-40.15,46.94
			c-6.34,16.29-12.79,32.57-18.23,49.17c-15.53,47.41-37.65,91.55-64.58,133.43c-6.93,10.77-13.57,21.78-19.45,33.14
			c-9.24,17.82-11.23,36.51-4.85,55.92c5.82,17.71,10.45,35.84,16.95,53.29c32.65,87.65,48.43,178.72,53.85,271.59
			c2.41,41.23,1.48,82.73,0.35,124.06c-1.04,37.92-3.98,75.82,4.02,113.3c10.14,47.47,15.05,95.5,18.17,143.87
			c3.9,60.51,9.36,120.85,19.9,180.71c7.47,42.43,13.75,85.17,18.14,128.02c5.61,54.69,13.5,108.73,31.19,160.99
			c8.72,25.77,17.36,51.57,26.48,78.66c4.31-2.23,7.37-3.67,10.29-5.36c27.88-16.15,57.06-29.51,88.22-37.65
			c38.32-10.01,76.98-18.7,115.5-27.92c9.07-2.17,18.09-4.73,27.29-6.12c15.31-2.31,23.95,3.73,29.61,18.16
			c2.69,6.86,6.21,13.71,10.77,19.46c11.74,14.8,21.78,30.07,24.89,49.32c1.76,10.89,7.51,20.38,14.5,28.41
			c0.82-4.5,1.57-8.41,2.25-12.33c6.24-36.25,11.15-73.4,32.84-104.22c24.31-34.53,28.86-74.45,36.07-113.9
			c0.5-2.74-0.6-5.74-0.57-8.61c0.08-9.16-0.87-18.55,0.78-27.44c2.75-14.85,9.24-29.21,10.53-44.09
			c3.02-34.73,5.27-69.65,5.19-104.49c-0.07-27.31-3.73-54.64-6.47-81.89c-4.09-40.56-11.17-80.77-9.62-121.9
			c2.23-59.19,11.96-116.95,27.19-174.09c12.45-46.73,25.58-93.61,27.51-142.24c1.73-43.65,2.28-87.45,0.77-131.09
			c-2.74-79.44-3.14-158.66,12.12-237.05c3.09-15.86,7.75-31.98,14.97-46.33c13.1-26.04,34.26-40.52,65.19-37.04
			c13.29,1.49,26.89,3.06,40.11,1.93c55.34-4.74,107.56-19.96,155.2-49.28c53.63-33,107.2-66.11,160.94-98.93
			c9.92-6.06,20.28-11.59,30.92-16.26c10.08-4.43,21.56-9.69,30.6,1.05c8.2,9.75,2.36,20.22-2.63,29.34
			c-8.94,16.36-19.03,32.1-28.2,48.34c-12.04,21.32-24.65,42.39-35.2,64.44c-13.5,28.2-20.87,57.67-15.51,89.77
			c3.04,18.23,3.87,37.15,3.03,55.64c-1.74,38.43-5.36,76.78-8.02,115.17c-3.34,48.32-9.06,96.27-18.02,143.94
			c-4.5,23.95-6.11,48.61-7.1,73.03c-1.13,28.07,7,51.45,36.51,63.13c8.58,3.4,16.43,11.28,22.01,18.99
			c7.55,10.42,1.96,21.2-10.79,22.9c-5.65,0.75-11.62-0.14-17.34-1.01c-5.74-0.87-11.31-2.8-17.02-3.99
			c-44.46-9.31-71.65,4.84-89.38,46.44c-1.37,3.22-2.74,6.44-3.96,9.71c-13.99,37.38-33.17,71.98-56.48,104.28
			c-18.43,25.53-37.54,50.57-55.95,76.11c-27.95,38.77-55.78,77.62-83.14,116.81c-6.96,9.97-12.64,21.01-17.68,32.12
			c-6.57,14.48-3.92,21.17,9.56,28.83c3.54,2.01,7.27,3.72,10.95,5.47c25.26,12.05,45.56,30.34,63.37,51.43
			c6.71,7.95,12.16,17.11,17.21,26.25c3.74,6.78,5.73,14.88-1.42,20.84c-6.28,5.24-13.45,2.9-19.49-1.17
			c-8.2-5.53-16.19-11.44-23.87-17.67c-28.01-22.71-59.88-38.28-93.64-49.95c-11.42-3.94-23.77-6.15-35.85-6.99
			c-22.77-1.58-33.45,5.48-41.5,26.8c-7,18.52-13.91,37.22-18.76,56.37c-5.24,20.69-7.35,42.07-8.97,63.23
			c6.75,3.47,11.83,6.31,17.1,8.77c38.84,18.09,74.68,40.64,106.44,69.64c9,8.22,19.05,15.43,29.29,22.09
			c14.96,9.73,23.62,9,35.11-4.79c28.4-34.07,55.69-69.07,71.26-111.36c4.18-11.35,10.71-17.03,23.34-16.53
			c5.1,0.2,12.67-1.87,15.13-5.56c10.76-16.18,25.91-26.99,42.16-36.09c36.37-20.38,64.61-48.92,89.85-81.73
			c41.58-54.04,79.96-110.69,127.34-160.12c29.45-30.73,58.72-61.64,88.58-91.96c26.96-27.38,42.42-58.63,42.36-98.2
			c-0.06-38.28,8.71-74.85,28.82-108.59c6.86-11.52,10.05-26.17,11.47-39.76c2.05-19.63,1.58-39.61,1.11-59.41
			c-2.23-93.87-4.82-187.73-7.3-281.6c-1.45-54.78-2.21-109.6-4.71-164.33c-1.27-27.89-4.67-55.91-15.54-82.12
			c-9.74-23.49-20.41-26.65-42.04-13.42c-3.48,2.13-6.86,4.44-10.16,6.84c-23.11,16.8-46.51,33.23-69.2,50.59
			c-28.29,21.64-55.87,44.16-74.97,75.08c-2.84,4.59-6.84,9.28-12.73,5.7c-6.84-4.15-3.38-9.89-0.7-15.25
			c6.26-12.49,12.74-24.89,18.41-37.65c18.53-41.7,40.8-81.26,67.09-118.54C3938.32,982.28,3964.21,951.75,4003.58,931.42z
			 M3814.9,1703.58c0.42-1.02,0.85-2.03,1.27-3.05c-5.52-3.7-10.59-8.52-16.63-10.91c-29.69-11.73-40.14-35.82-41.61-64.97
			c-0.79-15.64-0.01-31.56,2.03-47.09c4.41-33.49,11.72-66.65,14.91-100.23c6.73-70.78,11.7-141.72,17.03-212.63
			c0.6-8.01-0.21-16.4-1.96-24.25c-6.4-28.64-5.37-56.85,4.74-84.32c5.61-15.26,12-30.41,19.79-44.65
			c15.65-28.63,32.57-56.56,48.78-84.89c3.48-6.09,6.14-12.66,10.75-22.29c-16.93,3.68-27.89,10.21-38.68,16.8
			c-51.25,31.27-102.9,61.92-153.38,94.39c-39.86,25.64-82.91,42.04-128.81,52.26c-28.16,6.27-56.47,9.16-85.04,4.44
			c-23.51-3.88-39.95,6.12-50.85,25.47c-5.91,10.49-10.81,22.35-12.71,34.15c-5.65,35.05-12.4,70.28-13.56,105.6
			c-1.91,58.2-0.55,116.56,0.91,174.81c1.26,50.29,0.35,100.39-9.22,149.8c-7.2,37.15-16.34,73.96-25.74,110.63
			c-20.48,79.87-28.53,160.31-16.36,242.47c7.35,49.58,12.41,99.49,11.31,149.79c-0.02,0.77,1.22,1.56,3.13,3.84
			c12.09-22.82,32.28-29.13,55.92-27.01c8.66,0.78,17.4,2.25,25.74,4.67c38.43,11.15,73.74,28.69,105.59,53.03
			c5.74,4.38,11.45,8.8,17.17,13.21c0.96-0.91,1.93-1.82,2.89-2.73c-5.1-6.65-9.78-13.68-15.37-19.89
			c-17.35-19.26-37.66-34.46-61.18-45.79c-26.1-12.57-31.26-28.02-18.32-53.96c7.53-15.09,15.8-30.01,25.52-43.75
			c27.25-38.54,55.15-76.62,83.28-114.53c40.66-54.79,81.61-109.05,105.89-174.1c19.34-51.81,53.57-68.78,107.88-58.19
			c5.71,1.11,11.33,2.76,17.05,3.81C3809.59,1703.97,3812.28,1703.58,3814.9,1703.58z M2702.22,1391.9
			c-1.1-5.67-1.38-8.53-2.22-11.21c-22.9-72.63-16.24-143.96,10.03-214.17c17.82-47.62,29.95-96.77,40.86-146.26
			c7.07-32.07,3.19-62.96-14.84-90.79c-22.28-34.4-27.5-69.9-10.78-107.99c2.09-4.75,3.81-10.02,4.08-15.13
			c0.93-17.92,3.86-36.32,1.09-53.74c-5.66-35.55-19.85-68.13-43.44-96.04c-4.51-5.34-8.91-10.81-12.96-16.51
			c-21.51-30.27-27.01-62.52-12.28-97.49c5.87-13.95,11.23-28.15,16.13-42.47c9.02-26.4,6.08-51.69-8.33-75.62
			c-2.71-4.49-5.49-8.95-8.1-13.5c-15.62-27.27-32.47-53.93-46.54-81.99c-35.45-70.67-92.35-115.66-165.37-142.2
			c-14-5.09-28.48-6.74-42.96-2.52c-8.24,2.4-16.24,5.1-20.93,14.11c-4.66,8.93-6.52,8.06-16.1,2.01
			c-43.48-27.45-77.52-22.88-108.63,1.03c-11,8.45-20.47,19.02-29.96,29.26c-17.04,18.38-33.37,37.4-50.35,55.84
			c-14.37,15.61-26.98,32.5-34.05,52.5c-13.29,37.58-22.57,76.13-19.05,116.44c1.98,22.66-1.65,44.11-9.9,65.03
			c-6.62,16.81-13.33,33.58-19.86,50.43c-9.05,23.35-11.82,47.45-7.61,72.17c4.23,24.85,1.73,48.73-8.84,71.75
			c-2.67,5.81-4.85,11.89-6.71,18.01c-12.45,40.81-12.43,80.07,11.98,117.5c14.73,22.58,23.48,48.06,30.24,74.19
			c13.63,52.71,20.82,106.41,23.87,160.62c2.76,48.95-2.73,96.69-26.31,140.93c-2.72,5.1-5,10.68-6.15,16.31
			c-1.25,6.14-1.97,12.75-1.09,18.89c1.47,10.29,4.4,20.38,6.62,30.18c16.35,6.13,31.83,10.08,46.39-2.82
			c15.27-13.53,31.97-25.69,45.83-40.52c12.98-13.89,25.11-29.4,34.02-46.11c26.66-49.98,30.33-103.11,18-158.04
			c-9.17-40.86-26.99-78.17-45.72-115.05c-10.71-21.09-14.91-42.48-11.95-65.87c7.84-61.99,9.72-124.34,11.19-186.75
			c0.63-26.77,2.82-53.58,5.91-80.18c3.65-31.41,4.39-62.64,2.19-94.21c-1.99-28.45-2.59-57.11-1.81-85.62
			c1.1-40.56,17.33-74.63,49.32-100.26c31.86-25.52,64.01-50.68,96.27-75.68c11.28-8.74,17.77-8.88,28.18,0.16
			c26.33,22.84,53.72,44.16,75.28,72.55c21.29,28.03,37.48,57.33,44.71,91.73c11.37,54.15,23.76,108.1,34.22,162.43
			c3.02,15.69,3.79,32.99,0.55,48.49c-9.03,43.25-16.06,87.19-33.88,128.17c-4.33,9.95-8.39,20.02-12.57,30.03
			c7.15-3.16,12-8.34,16.9-13.48c8.51-8.91,16.46-8.31,22.26,2.42c3,5.55,4.92,11.86,6.39,18.05c9.04,38.15,16.41,76.45,8.71,115.92
			c-1.56,7.99-1.71,16.23-2.92,24.3c-4.62,30.88-0.25,60.39,13,88.65c3.22,6.86,6.18,13.84,9.12,20.82
			c11.31,26.92,15.5,54.79,11.37,83.85c-1.97,13.85-4.37,27.75-4.78,41.68c-0.78,26.15-3.43,52.81,0.41,78.4
			c7.78,51.94,35.62,94.29,72.57,130.71C2665.97,1378.07,2682.28,1385.74,2702.22,1391.9z M3603.92,979.29
			c-4.25-5.26-5.77-7.73-7.83-9.6c-20.75-18.78-41.46-37.61-62.43-56.15c-30.67-27.13-59.23-56.09-82.65-89.95
			c-35.07-50.7-51.33-106.69-49.15-168.18c1.02-28.83,7.36-56.59,16.96-83.65c2.13-6,5.22-12.75,13.14-11.87
			c7.72,0.86,9.37,7.79,10.69,14.22c2.46,11.99,4.51,24.08,7.33,35.98c13.77,58.13,34.73,112.43,80.23,154.24
			c31.78,29.2,63.16,58.75,84.69,97.19c7.57,13.51,17.33,15.36,31.5,8.6c13.12-6.26,25.75-13.64,38.21-21.17
			c35.91-21.71,74.86-35.36,115.92-42.47c15.86-2.75,32.43-1.48,48.68-1.87c3.62-0.09,7.26,0.56,14.22,1.16
			c-6.78-7.12-10.99-11.78-15.44-16.2c-60.77-60.35-98.88-131.57-108.42-217.81c-10.39-93.89-36.14-184.02-72.51-271.08
			c-6.49-15.53-13.87-31.02-23.12-45.01c-32.26-48.81-75.56-80.15-136.26-82.88c-13.35-0.6-26.74-2.59-39.86-5.2
			c-32.57-6.49-64.73-15.64-97.54-20.24c-71.43-10-138.02,1.51-195.72,49.02c-59.56,49.05-96.28,111.56-112.37,186.42
			c-5.18,24.12-12.15,47.2-23.84,69.08c-13.86,25.93-17.98,53.84-13.85,83.11c4.23,29.95,15.73,57.17,29.74,83.57
			c8.74,16.47,18.34,32.56,26,49.53c11.25,24.92,16.87,51.32,16.8,78.85c-0.05,21.96,5.03,41.27,26.35,53.13
			c11.17,6.21,21.19,14.44,31.96,21.41c2.39,1.55,5.73,1.63,11.68,3.18c-6.82-11.8-12.01-20.74-17.16-29.69
			c-40.08-69.63-62.56-145.45-77.33-223.73c-13.17-69.81-10.97-139.24,9.65-207.67c8.54-28.33,21.68-54.11,41.93-75.87
			c22.83-24.54,49.2-44.43,78.82-60.32c25.16-13.5,48.69-10.43,70.34,6.09c10.97,8.37,21.11,18.74,29.02,30.03
			c30.5,43.54,57.8,88.97,76.28,139.18c14.74,40.03,21.54,81.02,15.61,123.66c-2.09,15.01-3.85,30.07-5.85,45.09
			c-4.95,37.16-6.8,74.2,0.16,111.44c14.72,78.76,51.36,146.96,99.81,209.52c19.01,24.54,40.8,46.43,65.84,64.93
			C3567.8,967.36,3582.4,975.46,3603.92,979.29z M3125.32,2824.18c0-5.85,0.71-12.1-0.13-18.14c-2.98-21.34-6.71-42.57-9.67-63.92
			c-0.98-7.1-4.64-17.03,4.92-19.85c11.07-3.27,12.84,7.96,15.24,15.12c10.53,31.43,20.39,63.09,30.55,94.64
			c2.35,7.29,4.9,14.51,7.36,21.77c5.23-20.17,2.41-39.1-1.43-57.81c-4.46-21.73-3.64-42.71,4.95-63.39
			c3.11-7.49,5.36-15.41,7.26-23.32c8.85-36.83,18.17-73.47,34.06-108.1c3.13-6.83,4.77-14.35,7.1-21.55
			c5.38-16.69,6.46-33.04-2.85-48.97c-2-3.43-3.18-7.6-3.77-11.57c-2.56-17.46-11.83-31.23-22.73-44.49
			c-5.03-6.12-9.54-13.31-11.93-20.78c-2.72-8.51-7.25-11.35-15.37-9.99c-4.59,0.77-9.16,1.7-13.7,2.72
			c-29.54,6.61-59.14,13.01-88.6,19.97c-41.56,9.8-81.68,23.56-118.82,45.06c-14.38,8.33-15.16,9.93-9.83,24.78
			c16.18,45.05,11.07,89.09-4.86,133.06c-8.11,22.4-14.79,45.33-21.68,68.16c-1.57,5.2-4.01,11.26,2.87,17.25
			c3.55-1.61,8.5-2.49,11.45-5.4c20.85-20.62,40.5-42.09,44.93-72.96c3.17-22.09,10.34-43,20.12-62.99c4-8.17,6.58-18.9,18.37-18.37
			c11.79,0.54,13.51,11.55,16.66,19.99c11.97,32.16,23.83,64.37,35.16,96.77c10.75,30.74,20.78,61.74,31.1,92.63
			C3098.8,2824.71,3103.62,2827.79,3125.32,2824.18z M3480.43,2629.63c3.02-16.81,2.46-18.34-1.93-32.92
			c-6.03-20.03-12.45-40.05-16.66-60.49c-4.55-22.11-1.99-43.85,8.33-64.64c7.68-15.47,13.68-31.77,20.3-47.4
			c-50.29-36.55-94.13-82.27-156.32-102.16c-1.22,5.97-2.41,11.56-3.51,17.17c-5.41,27.39-8.45,55.81-24.8,79.45
			c-22.52,32.55-33.17,68.99-38.66,107.44c-7.03,49.26-18.22,97.25-41.02,141.98c-4.74,9.3-9.24,19.09-11.57,29.17
			c-4.3,18.58-7.05,37.54-10.06,56.4c-0.44,2.78,1.26,5.9,2.61,11.58c3.38-5.37,5.53-8.01,6.85-11.02
			c10.3-23.45,20.24-47.05,30.73-70.42c3.79-8.44,7.74-17.15,13.44-24.28c6.9-8.66,17.24-5.67,18.98,5.31
			c1.15,7.3,0.15,15.08-0.72,22.54c-1.26,10.75,0.05,20.61,8.16,31.44c5.13-5.62,11-9.86,13.82-15.6
			c6.37-12.99,13.2-26.27,16.34-40.23c11.85-52.77,38.96-99.69,56.06-150.39c0.55-1.64,1.46-3.18,2.34-4.69
			c9.42-16.07,22.62-16.06,31.71,0.28c4.23,7.61,6.59,16.46,11.69,23.34c15.37,20.77,27.54,43.08,37.11,67.03
			C3458.62,2611.03,3466.78,2621.45,3480.43,2629.63z M3082.85,773.22c-3.18,6.21-4.34,8.2-5.25,10.3
			c-30.04,69.41-48.06,141.22-41.8,217.53c4.06,49.49-2.69,97.6-15.44,145.29c-6.61,24.75-12.42,49.78-17.06,74.96
			c-3.64,19.75-3.23,39.74,5.57,60.68c1.77-3.54,2.89-4.91,3.15-6.43c10.86-62.04,41.5-115.9,70.52-170.42
			c4.62-8.68,7.92-9.44,14.58-4.04c1.78,1.44,2.97,3.62,5.02,6.22c23.2-33.41,33.82-69.69,43.08-106.5
			c12.36-49.11,8.15-99.77,13.87-149.5c0.79-6.89-2.71-10.57-7.98-14.05c-13.14-8.66-26.18-17.49-38.92-26.73
			C3100.03,801.7,3088.15,792.37,3082.85,773.22z M2098.48,1297.72c-0.76-4.33-0.96-7.89-2.04-11.16
			c-9.19-27.78-4.64-53.61,9.09-79.02c11.48-21.26,15.75-44.74,18.52-68.74c3.1-26.9,1.63-53.54-0.82-80.25
			c-4.37-47.65-11.06-94.92-24.41-141c-7.13-24.63-16.96-48.09-32.2-69.99c-28.39,20.94-58.02,38.57-77.36,68.29
			c-18.68,28.7-32.96,59.01-38.31,93.36c5.77-1.77,10.48-4.04,14.24-7.38c16.54-14.69,32.9-29.57,49.11-44.62
			c5.54-5.14,10.17-11.26,15.69-16.44c14.3-13.41,25.54-11.84,35.37,4.66c1.78,3,3.39,6.13,4.75,9.34
			c10.81,25.44,17.07,51.95,18.39,79.6c1.79,37.35-5.65,72.69-20.19,107.21c-11.73,27.83-21.27,56.65-30.41,85.46
			c-4.74,14.95-7.23,31.09-2.6,46.6c5.81,19.45,13.13,38.45,19.92,57.6c0.53,1.48,2.05,2.61,4.61,5.74
			C2072.63,1323.97,2085.09,1311.32,2098.48,1297.72z M3992.25,2236.3c-3.05,12.7-5.99,25.42-9.16,38.09
			c-12.57,50.26-18.53,100.65-5.31,151.9c7.12,27.6,12.56,55.62,19.66,83.23c15.99,62.17,29.23,124.7,28.46,189.37
			c-0.05,3.95,0.76,7.92,1.17,11.87c3.9-4.14,6.28-8.73,6.86-13.54c2.62-21.93,6.69-43.93,6.66-65.9
			c-0.08-60.63-6.09-120.97-15.7-180.77C4013.46,2379.51,3994.48,2309.58,3992.25,2236.3z M1932.63,1993.54
			c-3.76,6.51-6.73,11.49-9.55,16.55c-34.38,61.52-67.68,123.67-103.37,184.43c-51,86.81-82.55,179.59-92.03,279.85
			c-0.8,8.46-2.05,16.87-3.1,25.3c5.03-5.03,7.55-10.71,9.51-16.58c20.13-60.19,39.07-120.81,60.49-180.54
			c33.43-93.24,79.33-180.09,139.9-258.75c17.95-23.32,18.1-18.99,2.9-45.03C1936.55,1997.33,1935.13,1996.25,1932.63,1993.54z
			 M2445.62,813.91c-3.83-6.89-6.85-12.7-10.22-18.31c-9.17-15.26-24.13-18.95-39.5-15.26c-12.03,2.89-23.95,9.17-34.04,16.51
			c-14.99,10.9-13.04,20.35,3.84,27.93C2390.39,835.86,2426.5,834.91,2445.62,813.91z M4010.52,1972.27
			c0,10.39-0.13,20.78,0.04,31.16c0.16,9.91,0.54,19.81,0.97,29.71c0.42,9.78,1.03,19.55,1.56,29.33
			C4016.48,2032.15,4017.66,2002.07,4010.52,1972.27z"/>
	</g>
</g>
<path class="st0" d="M248.02,1346.59"/>
<path class="st0" d="M249.88,1136.52"/>
<path class="st1" d="M1519.36,2485.91c-235.44-90.52-353.76,76.26-684.66,192.88c0,0-76.77-44.96-85.84-139.04
	c-9.1-94.09-152.5,10.81-195.16-56.58c-42.7-67.39-154.23-307.22-221.07-483.04c-53.36-140.38-158.78-622.22-106.98-771.42
	c36.74-105.78,65.32-119.74-14.23-65.66c-79.59,54.08-70.34,89.3-70.34,89.3s45.23-116.9,92.24-357.92
	c60.48-309.73,150.15-522.44,330.54-520.76c180.39,1.68,257.3,13.46,257.3,13.46s37.65,19.35,14.56,90.03l71.79,108.54v65.63
	c0,0,12.18,31.49,28.54,52.03c15.43,19.31,34.47,27.4,36.31,39.93c2.46,16.94-31.36,40.54-31.36,40.54l4.3,49.01l-21.53,22.09
	c0,0,14.88,10.93,16.62,22.07c1.7,11.15-9.79,22.52-9.79,22.52s15.17,84.72-20.48,85.93c-35.66,1.21-77.46-1.81-118.64-19.36
	c-54.92-23.39-65.18-131.36-65.18-131.36s-44.18,3.53-33.09-69.67c11.13-73.2,34.79-19.51,57.88-27.09
	c23.09-7.57,73.52-73.2,21.39-175.85c0,0-58.87,313.51-126.4,435.52c0,0,58.84-151.5-8.79-272.51c0,0,19.65,56.82-39.34,225.09
	c-59,168.28-170.54,524.13-31.41,691.27c0,0-50.53-523.2-42.87-671.29c0,0-45.3,122.84-179.52,196.89
	c0,0,207.09,183.95,263.48,315.2c0,0,124.43,43.26,139.82,162.74l41.98,344.07l88.23,33.33c0,0,33.89-17.17,87.25,31.31
	c0,0,56.43-35.35,138.55,60.6c82.08,95.95,58.49,16.16,189.82,68.68c131.37,52.52,135.48,98.98,135.48,98.98
	s-132.38-103.02-85.18,55.55c47.21,158.56-57.45-85.85-112.88,57.57c0,0,67.72,31.31,203.18,40.4l2.05-89.89l26.68,48.48
	l54.39-108.07c0,0-71.84,131.3-49.26,139.38c22.58,8.08,82.1-96.96,91.34-154.53c9.23-57.57-69.79-92.92-76.97-50.5
	c-7.18,42.42-28.73,52.52-28.73,52.52s14.36-82.82-6.16-87.87c-20.52-5.05-37.97,33.33-37.97,33.33s-10.26-26.26,7.19-141.4
	c17.45-115.14-95.44,19.19-214.5-123.22c-119.04-142.41-198.38-587.14-264.35-672.28c-57.84-74.64-242.67-96.99-371.61-118.97
	c-81.32-13.86-307.31,46.23-307.31,46.23"/>
<path class="st1" d="M1753.88,1335.18c15.97-53.05-71.27-17.64-53.54-116.09c18.51-102.77-98.85-98.91-101.82-151.61l-7.03-150.65
	c0,0-105.93-44.62-74.85-6.43c24.06,29.57,153.07,32.26,144.48-18.85c-3.09-42.4-2.03-44.6,9.42-52.1c0,0,25.96-14.89,3.71-35.58
	c0,0,21.9-8.45,13.74-25.36c-5.52-11.44,38.84-22.3,38.84-22.3s-36.82-84.88-31.97-114.22l15.75-37.2c0,0-15.39-82.1-63.42-131.02
	c0,0-54.16,15.74-82.05,84.31c-47.02,115.63-138.27,97.86-138.27,97.86s-36.8-97.95-80.14-11.73c-17.14,34.09-5.39,82.66,8.39,99.04
	c20.16,23.98,45.22,24.76,45.22,24.76s-32.82,38.4-112.31-26.55c-79.48-64.95-202.61-242.52-142.67-297.86
	c59.95-55.34,139.7,175.57,81.82,117.43c-57.88-58.14-22.93-138.05-22.93-138.05s275.98-135.21,406.37-19.49
	c0,0,71.8,69.29-83.15-5.92c-154.95-75.21-425.61-0.4-428.67,63.3c-3.06,63.7,3.16,78.68-13.48,123.07c0,0,65.69,8.75,84.01,66.95
	c18.33,58.2,18.58,115.08,164.64,156.09c0,0,36.69,7.66,6.5,58.99c-30.19,51.33,77.7,83.81,79.14,92.3
	c8.23,48.62-143.64,54.92-101.1,112.55c42.54,57.63,104.3,10.36,125.8,71.58c21.5,61.23,53.84,134.44,41.49,197.02
	c0,0-44.24-158.3-125.21-153.8c-80.97,4.5-85.55-31.06-122.14-153.07c-36.6-122.01-130.85-127.59-130.85-127.59
	s64.52-48.44,87.85-129.93c0,0,64.04,192.69-3.2,178.28c-67.24-14.41-111.36-40.56-295.34,109.72"/>
</svg>
