<?xml version="1.0" encoding="utf-8"?>
<!-- Generator: Adobe Illustrator 26.0.3, SVG Export Plug-In . SVG Version: 6.00 Build 0)  -->
<svg version="1.1" id="Layer_1" xmlns="http://www.w3.org/2000/svg" xmlns:xlink="http://www.w3.org/1999/xlink" x="0px" y="0px"
	 viewBox="0 0 3000 2000" style="enable-background:new 0 0 3000 2000;" xml:space="preserve">
<style type="text/css">
	.st0{fill:#FFFFFF;}
	.st1{fill:none;stroke:#000000;stroke-width:6;stroke-linecap:round;stroke-linejoin:round;}
</style>
<rect x="0" y="0" class="st0" width="3000" height="2000"/>
<path class="st1" d="M678.36,1534.18c0,0-45.13,5.72-73,15.76c-27.86,10.04-37.57,26.23-70.22,34.47
	c-32.65,8.25-60.37-1.47-60.37-1.47l-1.33-15.48c0,0,26.8,7.18,65.85-4.35c39.05-11.53,72.27-44.94,97.37-42.58
	c0,0-3.29-43.01-61.26-49.92c0,0-25.17,5.95,10.21,23.49c0,0-23.15-6.71-37.4,8.78c-14.25,15.5-29.23,36.36-67.56,52.24
	c0,0,55.21-50.36,73.36-84.26c18.15-33.9,40.04-57.74,53.76-169.25c0,0,16.22-1.7,25.78,27.4c0,0-11.51-31.51-6.04-51.93
	c0,0-52.93-37.75-16.74-139.84c37.59-106.05,26.64-167.64,39.6-195.34c26.06-55.74,239.13,18.63,286.69,18.25
	c69.09-0.54,118.08-40.49,37.88-18.03c0,0,59.6-45.68-17.47-3.1c0,0,54.62-45.48-16.36-10.53c0,0,60.04-54.49-13.78-17.59
	c0,0-0.53-10.52,8.6-16.63l-36.31-12.99c0,0,4.8-27.36,17.22-68.01c7.6-24.87,19.62-58.95,19.62-58.95l182.98,64.39
	c0,0-40.25,127.39-34.82,125.7c5.43-1.69,56.55-132.45,56.55-132.45s-172.24-57.65-174.53-65.28c-6.22-20.68,27.78-6.88,20.87-45.25
	c-7.21-40.06,38.53-38.56,39.69-59.1l2.74-58.72c0,0,41.29-17.39,29.18-2.5c-9.38,11.53-59.66,12.57-56.32-7.35
	c1.21-16.53,0.79-17.38-3.67-20.31c0,0-10.12-5.8-1.45-13.87c0,0-8.54-3.3-5.36-9.89c2.15-4.46-15.14-8.69-15.14-8.69
	s14.35-33.08,12.46-44.52L983.5,462c0,0,6-32,24.72-51.07c0,0,21.11,6.13,31.98,32.86c18.33,45.07,53.9,38.14,53.9,38.14
	s14.34-38.18,31.24-4.57c6.68,13.29,2.1,32.22-3.27,38.61c-7.86,9.35-17.62,9.65-17.62,9.65s12.79,14.97,43.78-10.35
	c30.98-25.32,78.98-94.53,55.61-116.1c-23.37-21.57-54.45,68.43-31.89,45.77c22.56-22.66,8.94-53.81,8.94-53.81
	s-107.57-52.7-158.4-7.6c0,0-27.99,27.01,32.41-2.31c60.4-29.32,165.9-0.16,167.09,24.67c1.19,24.83-1.23,30.67,5.26,47.97
	c0,0-25.6,3.41-32.75,26.1c-7.14,22.69-7.24,44.85-64.18,60.84c0,0-14.3,2.99-2.53,22.99c11.77,20.01-30.29,32.67-30.85,35.98
	c-3.21,18.95,55.99,21.41,39.41,43.87c-16.58,22.46-40.66,4.04-49.04,27.9c-8.38,23.87-34.95,40.19-30.13,64.58
	c0,0,31.2-49.49,62.76-47.73c31.56,1.76,33.35-12.11,47.61-59.66c14.26-47.56,51-49.73,51-49.73s-25.15-18.88-34.24-50.65
	c0,0-24.96,75.11,1.25,69.49c26.21-5.62,43.22-15.85,114.94,42.73c71.71,58.58,132.37,88.64,112.75,115.99
	c-19.62,27.35-226.93,4.43-226.93,4.43s-13.33,14.64-42.58-5.9c0,0-8.57,25.86-17.7,23.84c-9.13-2.02-0.19-27.88-0.19-27.88
	s-9.5,26.59-15.84,26.59c-6.34,0-0.37-32.83-0.37-32.83s-2.82,27.58-11.2,27.58c-8.39,0-9.7-26.67-9.7-26.67s4.22,29.3-2.49,29.85
	c-6.71,0.55-14.82-36.08-14.82-36.08s41-36.5,51.99-33.93c10.99,2.57,64.29,21.46,64.29,21.46l119.18,3.11
	c0,0-70.24-49.94-72.47-28.16c-2.23,21.78-2.52,88.74-18.19,148.2c-15.67,59.46-35.92,106.46-56.09,146.21
	c0,0-97.74,27.94-121.06-12.04c-23.32-39.98,61.31,38.18,105.39,39.22l-7.83,27.82c0,0-191.84,24.91-214.36,71.98
	c0,0-7.35,17.97-11.02,39.18l-25.43,1.83c0,0-58.97-104.44-101.5-104.18c-42.53,0.26,81.87,69.07,93.57,128.45
	c0,0,1.06,9.42-15.15-2.62c0,0,10.9,22.24-1.33,25.38c-12.23,3.14-36.15-9.16-29.77,9.68c6.38,18.84-4.52,17-18.08,63.31
	c-13.56,46.31,21.25,76.03-14.61,92.85c-35.86,16.82-100.9,2.46-136.34-57.46c-35.44-59.91,100.48,84.13,155.94,72.23
	c55.45-11.9,75.47-26.68,75.47-26.68L856.9,1561.1c0,0,62.99,14.32,87.11,32.33c0,0-11.56,36.42-51.17,38.39
	c-39.62,1.97-46.42-39.42-63.34-22.81c-16.92,16.62-42.9,68.13-80.35,74.93c-37.45,6.79-44.33,42.87-44.33,42.87
	s-1.82,25.3,175.96-32.65l72.05-13.04c0,0,6.48-43.87-3.73-58.34c0,0,33.35-3.66,20.54,42.62c-12.81,46.3,7.71,48.8-6.02,58.51
	c-13.73,9.71-25.77-1.33-25.77-1.33s-15.21,35.97-62.74,45.63c-47.54,9.67-80.76,30.67-77.05,48.9c0,0,87.73,9.38,218.43-9.68
	l18.7-4.99l2.65-68.5c0,0-31.29,2.07-46.35-7.05c0,0,57.46-0.26,58.94-15.56c0,0,0.66-210.04-8.4-346.98
	c0,0-30.09,164.49-76.02,198.06c0,0,65.91-260.84,60.12-346.78c0,0,55.87-40.51,150.58-76.93c94.71-36.41,142.31,30.68,275.42,77.59
	c0,0,30.88-18.09,34.53-55.93c3.66-37.85,61.34,4.35,78.51-22.76c17.18-27.11,62.04-123.58,88.93-194.31
	c21.47-56.47,63.87-250.3,43.03-310.32c-14.78-42.55-26.28-48.17,5.73-26.41c32.02,21.76,28.3,35.92,28.3,35.92
	s-18.2-47.03-37.1-143.98c-24.33-124.59-60.4-210.16-132.96-209.49c-72.56,0.68-103.51,5.42-103.51,5.42s-15.14,7.79-5.86,36.22
	l-28.88,43.66v26.4c0,0-4.9,12.67-11.48,20.93c-6.21,7.77-13.86,11.02-14.61,16.06c-0.99,6.82,12.61,16.31,12.61,16.31l-1.73,19.72
	l8.66,8.89c0,0-5.99,4.4-6.69,8.88c-0.68,4.49,3.94,9.06,3.94,9.06s-6.1,34.08,8.24,34.57c14.34,0.49,31.16-0.73,47.73-7.79
	c22.09-9.41,26.22-52.84,26.22-52.84s17.77,1.42,13.31-28.03c-4.48-29.45-14-7.85-23.28-10.9c-9.29-3.05-29.58-29.45-8.6-70.74
	c0,0,23.68,126.12,50.85,175.19c0,0-23.67-60.94,3.54-109.62c0,0-7.91,22.86,15.83,90.55c23.73,67.69,68.6,210.84,12.64,278.08
	c0,0,20.33-210.47,17.24-270.04c0,0,18.22,49.42,72.22,79.2c0,0-83.3,74-105.99,126.8c0,0-50.05,17.4-56.24,65.46l-16.89,138.41
	l-35.49,13.41c0,0-13.63-6.91-35.1,12.59c0,0-22.7-14.22-55.74,24.38c-33.02,38.6-23.53,6.5-76.36,27.63
	c-52.85,21.13-54.5,39.82-54.5,39.82s53.25-41.44,34.26,22.35c-18.99,63.79,23.11-34.54,45.41,23.16c0,0-27.24,12.6-81.74,16.25
	l-0.83-36.16l-10.73,19.5l-21.88-43.47c0,0,28.9,52.82,19.82,56.07c-9.08,3.25-33.03-39-36.74-62.16
	c-3.71-23.16,28.07-37.38,30.96-20.31c2.89,17.06,11.56,21.13,11.56,21.13s-5.78-33.32,2.48-35.35
	c8.26-2.03,15.27,13.41,15.27,13.41s4.13-10.56-2.89-56.88c-7.02-46.32,38.39,7.72,86.29-49.57
	c47.89-57.29,79.8-236.19,106.34-270.44c23.27-30.02,97.62-39.02,149.49-47.86c32.71-5.58,123.62,18.6,123.62,18.6l78.81,65.66
	c0,0,5.64-32.74,69.77-51.59c0,0,39.79-43.48,40.53-55.56c0.74-12.07-35.3-66.94-50.17-99.13c-14.87-32.19-34.94-36.94-45.34-65.84
	c-10.41-28.9,168.73-81.93,192.14-44.99c23.41,36.94,56.61,129.55,43.03,199.86c-5.42,28.07,7.51,59.84,7.51,59.84
	s-37.67-1.56-43.86,16.46l-17.09-1.46l-15.99-1.46l-2.6,12.07l-14.87-21.21l-1.1,40.97c0,0-35.68-31.09-34.94-84.49
	c0,0-37.16,26.96-75.18,28.76c-38.03,1.81-35.59-15.09-37.95-49.83l-7.37-9.65l0.01-15.39c0,0-12.69-6.93-19.78-16.8
	c0,0,20.46-20.63,29.08-41.4l-6.34-17.49c0,0-8.28-51.2,16.47-74.39c24.76-23.19,93.55-93.55,157.77-16.12
	c64.21,77.43,91.76,122.54,83.84,197.25c-3.37,31.82,13.37,55.93,13.37,55.93s19.33,6.1,24.34,19.76
	c10.36,28.19-8.08,34.39-8.08,34.39s-47.99-17.19-95.08-6.46c-34.3,7.82-84.92,30.18-84.92,30.18s-105.9,83.61-89.05-29.41
	c0,0-47.39,57.92-43.27,55.41c4.14-2.5,14.95,45.08,14.95,45.08l1.9,54.16c0,0,10.19-76.39,73.81-94.24
	c0,0-61.72,73.88-80.81,111.45c0,0-56.94,26.61-60.44,40.39s3.82,41.95,3.82,41.95l-12.09,17.53l20.04,13.15
	c0,0,52.8-57.92,91.3-30.37c38.48,27.55-99.89,3.76-118.65,73.26c-18.78,69.5-9.11,126.97-36.86,163.54l-26.76-18.04l-10.41,15.6
	l-28.24,1.46l-41.62,108.74l-79.77,0.98l34.68-55.1l51.53-2.44l4.96,57.05c0,0,13.88,11.22,24.78,24.86c0,0,6.44-22.91-6.95-41.93
	l29.24-41.45l37.66-23.89l-37.66,35.11c0,0-33.69,34.13-18.84,41.94c14.87,7.8,39.65-39.5,39.65-39.5s-41.13,39.5-30.23,47.3
	c10.9,7.8,50.04-32.67,50.04-32.67s-58.96,35.11-37.66,41.94c21.31,6.83,81.76-30.72,81.76-30.72s68.38-8.29,70.36-23.41
	c1.98-15.12-21.31-53.15-54.01-68.76l-19.82,12.68c0,0-8.43-15.6,14.37-27.31c22.79-11.7,50.04,1.95,50.04,1.95l84.73-58.52
	c0,0,15.36,15.6,62.43-29.26c0,0-59.46,15.12-39.65-11.22c19.82-26.33,36.17-38.04,36.17-38.04l18.84,3.9
	c0,0,12.88-99.97,33.69-126.79l10.9,9.75l26.26-31.21c0,0-59.46-4.88-32.7-58.52c26.76-53.64,62.93-92.16,62.93-92.16
	s3.46,119.96-14.87,109.72c-18.34-10.24,42.12-80.46,59.95-87.29c17.83-6.83,64.12-43.47,62.68,21.23
	c-1.45,64.71-17.05,43.15-17.05,43.15l27.74-110.17l6.74-71.38c0,0-18.07-14.03-56.56-3.34c-38.5,10.7,81.85-60.06,68.52-90.43
	c-13.34-30.37-23.83-32.35,1.53-66.72c25.36-34.37,14.27-64.21,14.27-64.21s30,5.05,46.24-13.64c20-23-39.23,13.96-67-2.5
	c-15.47-9.16-9-37-9-37s-5.29-3.02-5.57-7.99c-0.26-4.97,5.67-9.96,5.67-9.96l-5.05-11.53l8.42-16.3l-10.12-10.78l28.03-29.05
	c0,0-2.85-9.42-2.55-13.05c0.33-4.05,5.52-15.34,5.52-15.34l7.89-32.23c0,0,75.56-42.29,131.47-22.31
	c20.32,7.26,65.64,53.59,72.23,125.4c6.9,75.13,45.05,126.4,45.05,126.4s-27.22-4.97-42.68-4.4c-19.17,0.71-59.4,44.63-69,75.73
	c-15.87,51.3-65.21,61.46-70.99,118.72c-5.77,57.27,66.52-128.98,50.63-180.77c-11.6-37.83-11.55-87.35,10.77-91.91
	c22.32-4.56,38.75,6.22,24.01-25.28c-19.22-53.52-39.21-24.01-23.3-7.42c17.06,17.78,21.05,44.95,7.58,68.57
	c-13.47,23.63-65.14,78.13-71.89,162.68c0,0-14.64-22.35-8.25-70.8c6.38-48.45-35.8-54.25-35.8-54.25s15.07,7.97,15.91,52.74
	c0.84,44.77,12.98,107.95-33.78,180.9l6.74,16.17c0,0-21.06,12.02,0.42,14.09c21.48,2.07,50.11-2.9,73.7-37.31
	c0,0-6.32,50.57-48.85,58.86c-42.54,8.29-50.13-28.6-50.13-28.6s-25.27,32.33,9.68,59.69c34.97,27.36,24.01,55.13,24.01,55.13
	s82.97-26.94,104.03,2.07c21.06,29.02,19.37,49.33,19.37,49.33s29.4-45.48-1.08-64.28c-19.2-11.83-75.44-12.01-68.7-46.01
	c3.17-16.01,28.53-45.42,46.72-83.05c20.45-42.25,33.76-92.17,33.76-92.17s12.19,39.6-11.13,158.25
	c-11.67,59.38,67.22,82.58,67.22,82.58s12.76-39.01,41.83-32.46c0,0-9.11-132.02,26.46-166.76c42.34-41.35,71.46-63.72,76.55-51.31
	c40.35,67.83,18.86,15.74,18.86,15.74l-34.01-63.42c0,0-17.52,1.02-44.51-0.49l-1.33-53.33l21.17-10.5l-19.84-0.02l0.01-17.48
	l-27.92-9.28l36.73-53.34c0,0-1.76-9.32,4.2-23.82c7.31-17.75,27.02-33.14,27.02-33.14l-9.82-22.44c0,0,24.72-9.79,51.75-14.67
	c41.04-7.4,82.34,0.84,98.04,12.01c26.3,17.83,33.33,56,33.33,56s-2.56,47.5-7.5,79.17c-21.52,29.91-46.56,58.72-46.56,58.72
	s16.09-25.68,20-49.36c3.9-23.68,0.86-44.87,0.86-44.87l-42.3,3.51l6-24l-35.12-33.56l-43.19-2.11l64.31-7.33
	c0,0,45.55,83.68,38.74,99.72c-6.82,16.05-20.97,17.52-20.97,17.52s4.85,12.43,2.54,24.26c-2.3,11.83-11.73,23.06-11.73,23.06
	s7.27,23.02,5.81,41.6c-1.45,18.57,95.77-22.99,95.77-22.99l-85.98,83.63c0,0,70.15-22.44,62.44-19.68
	c-4.32,1.54-43.79,28.58-74.89,56.95c-24.52,22.36-42.61,47.64-42.61,47.64s62.55-37.62,113.16-53.58
	c50.58-15.96,89.21-10.27,70.98,11.47c-61.03,72.77,22.56,13.79,34.65,7.22c71.2-38.66,119.78-42.74,119.78-42.74"/>
</svg>
