<?xml version="1.0" encoding="UTF-8" standalone="no"?>
<!DOCTYPE svg PUBLIC "-//W3C//DTD SVG 1.1//EN" "http://www.w3.org/Graphics/SVG/1.1/DTD/svg11.dtd">
<svg width="60.00" height="60.00" viewBox="0.00 0.00 1000.00 1000.00" xmlns="http://www.w3.org/2000/svg" xmlns:xlink="http://www.w3.org/1999/xlink">
<g stroke-linecap="round" id="Layer_1">
<path d="M-74.85,290.74 C-76.02,288.74 -76.54,287.43 -76.87,285.31 C-77.66,279.99 -77.61,275.74 -76.43,271.31 C-75.04,266.04 -73.84,262.07 -72.49,259.20 C-69.70,253.40 -63.84,244.77 -57.76,237.45 C-52.69,231.60 -41.98,219.44 -36.35,213.13 C-29.95,206.09 -20.23,197.45 -14.96,193.09 C-6.33,186.12 0.87,180.80 10.26,174.37 C20.69,167.50 49.79,150.39 63.17,143.21 C77.55,135.85 105.30,122.84 119.13,116.58 C133.03,110.67 161.24,99.44 175.48,93.91 C189.56,88.88 219.30,78.63 233.68,74.11 C248.78,69.61 279.19,60.86 294.49,56.59 C309.63,52.74 340.16,45.24 355.56,41.60 C370.46,38.34 400.89,31.89 416.42,28.70 C447.00,22.90 507.45,12.81 537.61,8.47 C552.92,6.50 583.73,2.73 599.23,0.94 C614.44,-0.57 645.12,-3.41 660.58,-4.73 C676.11,-5.85 707.24,-7.85 722.85,-8.72 C738.76,-9.38 770.54,-10.50 786.41,-10.95 C802.23,-11.15 834.07,-11.31 850.09,-11.28 C866.00,-11.06 897.68,-10.37 913.45,-9.90 C929.35,-9.22 960.94,-7.70 976.64,-6.85 C992.56,-5.75 1024.56,-3.33 1040.64,-2.01 C1056.29,-0.52 1087.71,2.73 1103.48,4.50 C1119.03,6.48 1149.52,10.60 1164.45,12.74 C1180.31,15.38 1211.50,20.94 1226.83,23.86 C1242.33,27.18 1273.81,34.76 1289.37,38.65 C1303.21,42.38 1335.11,52.14 1348.79,56.75 C1355.75,59.26 1369.36,64.31 1376.03,66.86 C1387.08,71.35 1411.40,82.51 1418.25,85.75 C1419.42,86.31 1421.54,87.30 1422.48,87.75" fill="none" stroke="rgb(139, 210, 196)" stroke-width="54.60" stroke-opacity="1.00" stroke-linejoin="round"/>
<path d="M-44.69,164.48 C-44.76,162.62 -44.45,161.61 -43.21,160.43 C-38.98,156.32 -27.47,147.69 -20.70,143.56 C-15.34,140.35 -4.88,134.19 4.89,129.06 C17.05,123.06 49.77,108.33 65.45,101.43 C80.48,95.12 111.24,82.55 125.87,76.97 C140.37,71.78 169.67,61.69 184.46,56.80 C199.80,52.03 230.60,42.77 246.06,38.29 C261.58,34.11 291.81,26.31 306.50,22.69 C334.75,16.61 373.24,9.49 378.98,8.48 C349.75,15.61 286.09,31.47 251.90,40.68 C223.92,48.86 167.44,65.46 138.93,73.87 C107.30,83.78 45.58,103.42 15.49,113.14 C5.79,116.50 -5.71,120.78 -10.10,122.44 C1.66,116.17 32.98,99.90 45.25,94.17 C59.25,88.00 87.59,76.73 101.77,71.29 C116.19,66.19 145.35,56.23 160.07,51.37 C174.51,46.79 203.65,37.71 218.34,33.22 C233.35,28.91 264.30,21.01 280.06,17.19 C295.78,13.79 326.44,7.43 341.46,4.73 C356.00,2.33 386.39,-1.95 402.05,-4.03 C416.97,-5.74 447.92,-9.04 463.95,-10.63 C479.55,-11.82 513.86,-13.43 531.19,-13.72 C546.11,-13.80 577.32,-13.95 593.60,-14.01 C602.04,-13.90 613.15,-12.96 614.18,-12.34 C614.49,-12.15 615.05,-11.60 615.86,-10.69" fill="none" stroke="rgb(139, 210, 196)" stroke-width="54.60" stroke-opacity="1.00" stroke-linejoin="round"/>
<path d="M34.24,86.78 C26.50,88.69 13.49,93.30 8.55,94.09 C2.96,94.92 1.01,94.46 -0.96,93.43 C-0.99,91.32 -0.67,90.01 0.47,88.78 C3.72,85.29 13.12,78.54 22.02,73.43 C42.66,62.11 85.66,40.65 91.66,37.21 C88.25,37.30 84.79,38.05 79.81,39.64 C63.61,45.19 31.60,56.31 15.79,61.87 C4.68,65.50 -0.48,66.74 -7.09,68.13 C-7.02,67.48 8.55,56.86 13.01,54.12 C23.96,47.39 54.31,32.81 69.54,25.92 C93.52,15.44 100.12,12.34 102.20,11.35 C94.91,11.42 84.86,13.53 78.16,15.08 C61.64,19.01 28.49,26.85 11.87,30.75 C1.77,33.01 -9.58,35.07 -13.56,34.84 C-15.99,34.65 -19.34,33.80 -20.64,32.82 C-21.48,32.16 -24.06,29.12 -24.96,28.02 C-23.89,25.38 -23.34,24.41 -22.21,23.69 C-18.63,21.46 -3.62,15.43 3.63,12.71 C11.13,10.00 24.42,6.34 31.10,4.91 C35.28,4.03 54.71,0.91 58.48,0.48 C66.74,-0.41 76.42,-0.47 86.62,-0.05 C106.36,1.15 137.54,4.83 145.50,5.22 C153.88,5.63 182.89,5.27 189.17,5.12 C175.41,6.76 153.62,9.75 130.93,13.61 C114.20,16.65 82.98,22.34 68.49,24.99 C49.72,28.36 24.05,34.03 13.18,38.25 C11.80,38.79 9.44,39.70 8.48,40.08 C16.74,40.01 23.73,39.08 31.94,37.47 C64.39,30.62 143.99,14.04 156.38,12.00 C185.99,6.18 225.83,-2.26 231.32,-3.43 C225.23,-1.67 189.74,7.35 173.45,11.52 C156.06,16.31 128.72,25.94 114.68,31.00 C99.36,36.83 75.68,46.03 67.32,49.38 C94.94,42.21 156.52,24.70 185.47,17.05 C200.44,13.39 230.07,6.43 244.40,3.44 C258.35,0.84 287.35,-3.83 301.47,-6.01 C300.56,-6.10 262.14,0.13 246.07,2.53 C214.01,7.11 148.07,17.09 114.20,22.50 C74.67,29.24 39.31,36.76 29.09,38.53 C21.66,39.70 8.54,40.10 3.33,39.12 C0.40,38.54 -6.21,35.87 -7.08,34.67 C-8.39,32.76 -9.01,26.12 -9.17,22.86 C-9.34,19.09 -9.46,6.20 -9.55,4.50 C-8.04,4.14 -0.55,6.82 3.32,7.59 C7.77,8.44 13.90,8.60 17.69,8.15 C24.57,7.32 30.94,8.02 31.90,8.13 C32.73,9.11 33.75,10.98 33.86,12.19 C34.05,14.77 26.95,29.98 21.96,38.47 C14.25,51.04 -2.39,78.31 -11.34,93.02 C-17.78,104.14 -23.38,114.90 -26.07,121.89 C-27.35,125.46 -27.35,126.29 -26.95,129.21 C-25.02,130.37 -23.60,130.71 -21.84,130.12 C-18.78,129.09 29.36,105.69 33.82,103.81 C35.41,103.15 38.12,102.24 39.24,101.88 C40.58,101.44 41.22,101.51 42.20,102.06 C40.06,105.25 30.57,113.57 22.22,120.06 C9.26,129.60 -25.83,154.06 -27.70,156.89 C-27.86,157.14 -28.02,157.65 -28.19,158.41 C-25.54,158.21 -23.08,157.38 -18.19,155.16 C6.14,143.70 14.61,140.49 21.21,138.64 C18.28,141.83 15.12,144.37 10.86,146.76 C3.44,150.87 -18.79,162.52 -19.04,162.70 C-19.29,162.89 -19.63,163.27 -20.05,163.83" fill="none" stroke="rgb(139, 210, 196)" stroke-width="54.60" stroke-opacity="1.00" stroke-linejoin="round"/>
<path d="M30.30,26.39 C29.73,25.42 28.27,23.02 27.40,21.57 C26.38,19.99 24.74,18.54 23.35,18.13 C23.30,18.12 2.92,14.22 -5.09,12.63 C-16.90,10.44 -28.27,8.79 -35.47,8.62 C-41.89,8.64 -50.99,8.64 -52.88,8.47 C-51.18,7.02 -44.81,5.43 -43.24,5.03 C-33.83,2.69 -16.85,-0.32 -9.61,-1.42 C-1.47,-2.51 15.23,-4.59 23.47,-5.36 C34.28,-6.12 48.43,-6.48 56.20,-6.11 C63.81,-5.67 78.87,-4.95 86.31,-4.69 C94.01,-4.56 110.32,-4.67 116.43,-4.34 C129.54,-3.59 165.34,3.83 172.96,3.94 C182.02,4.04 220.06,-0.24 228.46,-1.04 C242.59,-2.09 279.36,-3.38 296.41,-3.81 C319.43,-4.20 333.53,-3.94 352.18,-2.10 C368.20,-0.95 404.65,1.22 417.02,1.30 C438.02,0.95 524.39,-6.69 534.64,-7.86 C542.08,-8.93 557.13,-10.96 564.97,-11.77 C572.72,-12.46 587.54,-13.68 593.31,-13.24 C600.76,-12.60 641.25,-11.59 657.03,-12.21 C688.30,-14.01 734.60,-15.65 750.51,-16.28 C760.50,-16.83 769.66,-18.27 773.23,-18.53 C783.82,-19.24 795.43,-19.53 804.98,-19.19 C826.11,-17.92 852.94,-17.36 868.32,-17.20 C891.15,-16.54 910.13,-16.73 925.81,-16.61 C938.86,-16.23 969.62,-13.71 982.84,-12.44 C995.94,-11.60 1029.20,-10.33 1046.10,-9.86 C1065.41,-9.44 1091.19,-8.35 1108.20,-7.65 C1112.03,-7.50 1118.51,-7.24 1121.18,-7.14" fill="none" stroke="rgb(139, 210, 196)" stroke-width="54.60" stroke-opacity="1.00" stroke-linejoin="round"/>
<path d="M-68.56,988.97 C-66.13,990.35 -40.53,996.56 -18.91,1000.47 C-6.95,1002.40 27.18,1006.34 41.95,1007.67 C56.43,1008.71 87.17,1010.05 102.33,1010.55 C135.50,1011.13 197.86,1010.75 228.90,1010.31 C259.76,1009.43 321.28,1007.25 351.92,1005.96 C383.24,1004.19 445.32,1000.06 476.08,997.70 C507.02,994.75 568.97,988.23 599.98,984.65 C632.44,980.14 695.88,970.80 726.87,965.98 C759.83,960.42 820.27,948.93 842.29,944.16 C872.30,937.07 933.14,922.22 963.98,914.46 C977.38,910.81 1003.47,903.46 1016.17,899.76 C1048.46,889.72 1112.78,869.46 1144.81,859.24 C1177.26,848.82 1243.23,827.65 1276.77,816.90 C1283.29,814.83 1294.92,811.13 1300.03,809.50 C1311.21,805.82 1326.71,800.67 1331.03,799.21" fill="none" stroke="rgb(245, 186, 251)" stroke-width="54.60" stroke-opacity="1.00" stroke-linejoin="round"/>
<path d="M642.87,1013.96 C644.21,1012.47 645.08,1011.56 645.47,1011.22 C647.39,1009.62 661.40,1006.16 666.81,1004.84 C684.50,1000.83 780.24,984.60 791.89,982.15 C823.02,976.22 887.20,964.04 920.25,957.79 C931.90,955.47 959.40,950.50 974.07,947.90 C994.69,943.64 1014.34,938.81 1020.30,936.15 C1021.86,935.48 1022.65,934.74 1023.94,932.93 C1020.68,932.67 1016.81,933.03 1012.44,934.08 C1006.29,935.59 981.16,943.06 956.28,952.04 C940.57,957.91 908.76,969.99 892.66,976.20 C886.36,978.73 864.70,987.71 860.07,989.92 C846.73,996.35 839.94,1002.18 839.19,1002.82 C839.19,1002.82 839.67,1004.93 839.67,1004.93 C846.68,1002.30 853.48,998.87 862.87,993.72 C878.05,985.32 907.49,969.45 921.75,961.98 C928.30,958.69 938.88,953.46 947.73,949.90 C955.06,947.14 972.01,941.03 978.26,940.03 C979.05,939.90 979.85,939.77 980.64,939.64 C971.52,944.42 944.10,955.30 929.77,960.94 C895.85,974.25 832.00,999.47 802.08,1011.39 C799.76,1012.33 794.60,1014.42 792.11,1015.67 C788.37,1017.60 787.44,1018.90 786.44,1021.16 C788.89,1022.16 793.12,1022.45 798.61,1021.74 C808.78,1020.35 838.44,1011.62 851.58,1007.71 C868.12,1002.82 901.45,993.21 918.22,988.49 C935.12,984.01 964.90,976.23 977.78,972.93 C983.85,971.39 998.07,968.67 1005.73,967.54 C1010.78,966.89 1015.23,966.82 1018.45,967.31 C1018.05,969.62 1017.41,970.79 1015.63,971.94 C1009.92,975.69 999.76,981.44 991.55,985.18 C980.05,990.29 948.92,1003.10 932.75,1009.55 C884.83,1027.86 871.68,1031.76 870.77,1032.03 C898.92,1022.69 957.17,1004.70 985.93,995.98 C998.30,991.86 1017.76,984.79 1018.78,984.42 C1018.23,984.00 1011.81,986.11 1010.29,986.60 C994.22,991.80 957.07,1003.42 946.90,1006.11 C938.18,1008.31 926.07,1009.86 923.59,1009.53 C924.81,1007.87 930.54,1004.47 931.81,1003.71 C959.98,986.72 996.03,964.91 1000.68,961.18 C1003.60,958.81 1003.81,958.48 1003.72,957.95 C1003.72,957.95 940.21,992.15 940.21,992.15 C940.21,992.15 940.28,993.60 940.28,993.60 C946.24,992.12 954.94,987.95 963.20,983.13 C970.26,978.83 981.30,972.05 985.28,969.59 C978.46,972.15 963.56,977.72 955.48,980.72 C946.69,983.86 936.55,986.93 927.04,989.36 C910.33,993.39 886.63,996.79 873.07,998.40 C838.57,1001.65 772.74,1006.94 741.17,1009.52 C723.29,1010.86 672.73,1013.12 652.42,1015.01 C641.52,1016.22 630.05,1018.22 622.00,1019.03 C606.31,1020.31 574.66,1022.87 558.71,1024.15 C554.57,1024.54 538.76,1027.04 533.19,1027.09 C531.67,1027.10 486.87,1025.96 471.18,1025.55 C455.71,1024.76 420.88,1023.07 410.94,1023.36 C400.52,1023.69 364.31,1028.71 352.79,1029.82 C345.41,1030.41 329.56,1031.27 322.14,1031.02 C316.28,1030.81 300.12,1029.11 293.10,1028.15 C285.44,1026.92 270.75,1024.27 263.34,1023.65 C256.14,1023.06 240.30,1023.08 233.00,1023.62 C217.67,1024.95 183.34,1026.61 170.26,1026.23 C162.24,1025.87 148.20,1024.65 142.14,1024.15 C138.04,1023.86 124.70,1022.81 113.51,1021.14 C105.67,1019.92 85.57,1016.68 85.37,1016.65 C81.66,1016.16 63.13,1015.63 54.68,1015.45 C43.30,1015.22 39.49,1015.61 29.27,1018.05 C21.80,1019.92 6.95,1024.46 3.28,1026.08 C-1.34,1028.16 -13.28,1037.86 -17.52,1041.97 C-22.63,1046.97 -32.34,1058.43 -35.68,1062.38 C-36.50,1063.33 -37.32,1064.27 -38.14,1065.22" fill="none" stroke="rgb(245, 186, 251)" stroke-width="54.60" stroke-opacity="1.00" stroke-linejoin="round"/>
<path d="M975.90,992.47 C970.44,992.22 966.85,991.94 966.50,992.34 C966.08,992.89 961.50,999.38 959.07,1003.37 C955.56,1009.28 955.42,1010.30 955.97,1011.48 C958.31,1011.50 959.82,1011.28 961.69,1010.48 C965.28,1008.93 978.05,1002.22 985.98,996.76 C992.08,992.48 1005.39,982.61 1011.83,977.73 C1020.10,971.21 1031.20,960.85 1035.01,957.13 C1036.75,955.42 1037.44,954.40 1038.04,952.95 C1034.74,954.21 1022.26,962.39 1015.52,966.88 C996.43,980.16 986.30,988.05 979.15,994.32 C975.27,997.81 973.75,999.79 973.53,1003.51 C973.45,1005.29 973.32,1008.26 973.28,1009.44" fill="none" stroke="rgb(245, 186, 251)" stroke-width="54.60" stroke-opacity="1.00" stroke-linejoin="round"/>
<path d="M-53.29,958.70 C-51.66,960.71 -39.63,970.04 -34.02,974.52 C-29.61,977.88 -16.42,984.67 -10.88,986.89 C-3.47,989.83 11.26,993.76 17.67,994.90 C31.00,997.26 57.31,998.12 76.51,998.06 C88.26,997.80 116.24,996.00 135.95,994.05 C150.54,992.39 178.65,987.96 194.14,985.31 C208.56,982.64 239.99,976.65 257.02,973.32 C288.66,966.33 347.87,951.68 377.15,944.39 C407.14,937.34 469.42,922.78 501.71,915.26 C535.18,907.55 606.59,891.40 632.11,886.40 C645.47,884.09 716.15,874.45 746.86,870.95 C762.20,869.49 792.77,866.75 808.00,865.45 C824.10,864.32 855.75,862.34 871.29,861.49 C885.02,861.08 909.73,860.52 930.02,861.04 C953.98,862.18 1029.84,868.05 1062.58,870.71 C1074.29,871.78 1107.80,876.09 1118.00,877.81 C1122.36,878.58 1129.07,880.35 1132.58,881.90 C1135.32,883.15 1141.78,887.17 1141.73,887.67 C1141.69,888.04 1141.22,888.98 1140.32,890.48" fill="none" stroke="rgb(245, 186, 251)" stroke-width="54.60" stroke-opacity="1.00" stroke-linejoin="round"/>
<path d="M360.45,990.96 C360.45,990.96 342.68,984.67 342.68,984.67 C355.11,981.21 378.92,976.76 402.88,973.07 C435.11,968.29 498.40,958.90 529.46,954.30 C539.41,952.79 555.54,950.27 561.71,949.27 C587.29,943.73 645.71,930.88 679.23,923.92 C696.05,920.78 729.72,914.90 746.55,912.17 C761.48,909.98 791.79,905.68 807.17,903.57 C818.31,902.25 841.72,900.27 864.70,899.28 C876.91,898.97 910.46,899.86 926.04,900.88 C941.50,902.20 982.75,906.08 985.57,907.06 C977.92,908.31 952.27,909.84 931.33,911.69 C897.64,915.41 828.65,923.36 793.35,927.58 C781.47,929.03 753.82,932.69 739.81,935.43 C725.91,938.37 696.18,945.11 682.66,948.58 C653.24,956.38 597.42,970.95 564.56,978.59 C531.92,985.27 468.58,997.82 437.88,1003.67 C429.78,1005.11 411.54,1008.18 408.35,1008.53 C397.06,1009.76 340.01,1010.87 332.08,1010.85 C338.22,1010.82 353.27,1010.72 361.78,1009.99 C370.30,1009.23 407.90,1002.89 423.89,1000.17 C438.80,997.81 465.74,993.85 479.16,992.27 C510.44,988.92 575.74,981.86 609.78,978.15 C642.41,974.03 704.59,966.19 736.97,962.75 C768.27,960.37 825.94,956.16 828.24,955.96 C830.35,955.77 833.01,955.48 834.56,955.28" fill="none" stroke="rgb(245, 186, 251)" stroke-width="54.60" stroke-opacity="1.00" stroke-linejoin="round"/>
<path d="M978.52,976.24 C980.97,977.44 982.45,977.88 984.57,977.86 C991.87,977.77 1006.91,975.49 1011.56,975.93 C1012.99,976.09 1016.22,976.71 1016.74,977.25 C1017.02,977.55 1017.49,978.37 1018.13,979.70 C1016.21,981.80 1013.59,983.67 1010.75,984.61 C1007.68,985.60 989.44,989.59 981.80,990.84 C974.70,991.91 959.30,993.78 951.45,994.30 C920.84,995.52 875.35,998.32 859.57,999.00 C854.13,999.12 850.49,999.13 849.51,999.13" fill="none" stroke="rgb(245, 186, 251)" stroke-width="54.60" stroke-opacity="1.00" stroke-linejoin="round"/>
</g>
</svg>
