<?xml version="1.0" encoding="UTF-8" standalone="no"?>
<!DOCTYPE svg PUBLIC "-//W3C//DTD SVG 1.1//EN" "http://www.w3.org/Graphics/SVG/1.1/DTD/svg11.dtd">
<svg width="60.00" height="32.46" viewBox="0.00 0.00 1000.00 541.00" xmlns="http://www.w3.org/2000/svg" xmlns:xlink="http://www.w3.org/1999/xlink">
<g stroke-linecap="round" id="Layer_1">
<path d="M-74.85,290.74 C-76.02,288.74 -76.54,287.43 -76.87,285.31 C-77.66,279.99 -77.61,275.74 -76.43,271.31 C-75.04,266.04 -73.84,262.07 -72.49,259.20 C-69.70,253.40 -63.84,244.77 -57.76,237.45 C-52.69,231.60 -41.98,219.44 -36.35,213.13 C-29.95,206.09 -20.23,197.45 -14.96,193.09 C-6.33,186.12 0.87,180.80 10.26,174.37 C20.69,167.50 49.79,150.39 63.17,143.21 C77.55,135.85 105.30,122.84 119.13,116.58 C133.03,110.67 161.24,99.44 175.48,93.91 C189.56,88.88 219.30,78.63 233.68,74.11 C248.78,69.61 279.19,60.86 294.49,56.59 C309.63,52.74 340.16,45.24 355.56,41.60 C370.46,38.34 400.89,31.89 416.42,28.70 C447.00,22.90 507.45,12.81 537.61,8.47 C552.92,6.50 583.73,2.73 599.23,0.94 C614.44,-0.57 645.12,-3.41 660.58,-4.73 C676.11,-5.85 707.24,-7.85 722.85,-8.72 C738.76,-9.38 770.54,-10.50 786.41,-10.95 C802.23,-11.15 834.07,-11.31 850.09,-11.28 C866.00,-11.06 897.68,-10.37 913.45,-9.90 C929.35,-9.22 960.94,-7.70 976.64,-6.85 C992.56,-5.75 1024.56,-3.33 1040.64,-2.01 C1056.29,-0.52 1087.71,2.73 1103.48,4.50 C1119.03,6.48 1149.52,10.60 1164.45,12.74 C1180.31,15.38 1211.50,20.94 1226.83,23.86 C1242.33,27.18 1273.81,34.76 1289.37,38.65 C1303.21,42.38 1335.11,52.14 1348.79,56.75 C1355.75,59.26 1369.36,64.31 1376.03,66.86 C1387.08,71.35 1411.40,82.51 1418.25,85.75 C1419.42,86.31 1421.54,87.30 1422.48,87.75" fill="none" stroke="rgb(139, 210, 196)" stroke-width="54.60" stroke-opacity="1.00" stroke-linejoin="round"/>
<path d="M-44.69,164.48 C-44.76,162.62 -44.45,161.61 -43.21,160.43 C-38.98,156.32 -27.47,147.69 -20.70,143.56 C-15.34,140.35 -4.88,134.19 4.89,129.06 C17.05,123.06 49.77,108.33 65.45,101.43 C80.48,95.12 111.24,82.55 125.87,76.97 C140.37,71.78 169.67,61.69 184.46,56.80 C199.80,52.03 230.60,42.77 246.06,38.29 C261.58,34.11 291.81,26.31 306.50,22.69 C334.75,16.61 373.24,9.49 378.98,8.48 C349.75,15.61 286.09,31.47 251.90,40.68 C223.92,48.86 167.44,65.46 138.93,73.87 C107.30,83.78 45.58,103.42 15.49,113.14 C5.79,116.50 -5.71,120.78 -10.10,122.44 C1.66,116.17 32.98,99.90 45.25,94.17 C59.25,88.00 87.59,76.73 101.77,71.29 C116.19,66.19 145.35,56.23 160.07,51.37 C174.51,46.79 203.65,37.71 218.34,33.22 C233.35,28.91 264.30,21.01 280.06,17.19 C295.78,13.79 326.44,7.43 341.46,4.73 C356.00,2.33 386.39,-1.95 402.05,-4.03 C416.97,-5.74 447.92,-9.04 463.95,-10.63 C479.55,-11.82 513.86,-13.43 531.19,-13.72 C546.11,-13.80 577.32,-13.95 593.60,-14.01 C602.04,-13.90 613.15,-12.96 614.18,-12.34 C614.49,-12.15 615.05,-11.60 615.86,-10.69" fill="none" stroke="rgb(139, 210, 196)" stroke-width="54.60" stroke-opacity="1.00" stroke-linejoin="round"/>
<path d="M34.24,86.78 C26.50,88.69 13.49,93.30 8.55,94.09 C2.96,94.92 1.01,94.46 -0.96,93.43 C-0.99,91.32 -0.67,90.01 0.47,88.78 C3.72,85.29 13.12,78.54 22.02,73.43 C42.66,62.11 85.66,40.65 91.66,37.21 C88.25,37.30 84.79,38.05 79.81,39.64 C63.61,45.19 31.60,56.31 15.79,61.87 C4.68,65.50 -0.48,66.74 -7.09,68.13 C-7.02,67.48 8.55,56.86 13.01,54.12 C23.96,47.39 54.31,32.81 69.54,25.92 C93.52,15.44 100.12,12.34 102.20,11.35 C94.91,11.42 84.86,13.53 78.16,15.08 C61.64,19.01 28.49,26.85 11.87,30.75 C1.77,33.01 -9.58,35.07 -13.56,34.84 C-15.99,34.65 -19.34,33.80 -20.64,32.82 C-21.48,32.16 -24.06,29.12 -24.96,28.02 C-23.89,25.38 -23.34,24.41 -22.21,23.69 C-18.63,21.46 -3.62,15.43 3.63,12.71 C11.13,10.00 24.42,6.34 31.10,4.91 C35.28,4.03 54.71,0.91 58.48,0.48 C66.74,-0.41 76.42,-0.47 86.62,-0.05 C106.36,1.15 137.54,4.83 145.50,5.22 C153.88,5.63 182.89,5.27 189.17,5.12 C175.41,6.76 153.62,9.75 130.93,13.61 C114.20,16.65 82.98,22.34 68.49,24.99 C49.72,28.36 24.05,34.03 13.18,38.25 C11.80,38.79 9.44,39.70 8.48,40.08 C16.74,40.01 23.73,39.08 31.94,37.47 C64.39,30.62 143.99,14.04 156.38,12.00 C185.99,6.18 225.83,-2.26 231.32,-3.43 C225.23,-1.67 189.74,7.35 173.45,11.52 C156.06,16.31 128.72,25.94 114.68,31.00 C99.36,36.83 75.68,46.03 67.32,49.38 C94.94,42.21 156.52,24.70 185.47,17.05 C200.44,13.39 230.07,6.43 244.40,3.44 C258.35,0.84 287.35,-3.83 301.47,-6.01 C300.56,-6.10 262.14,0.13 246.07,2.53 C214.01,7.11 148.07,17.09 114.20,22.50 C74.67,29.24 39.31,36.76 29.09,38.53 C21.66,39.70 8.54,40.10 3.33,39.12 C0.40,38.54 -6.21,35.87 -7.08,34.67 C-8.39,32.76 -9.01,26.12 -9.17,22.86 C-9.34,19.09 -9.46,6.20 -9.55,4.50 C-8.04,4.14 -0.55,6.82 3.32,7.59 C7.77,8.44 13.90,8.60 17.69,8.15 C24.57,7.32 30.94,8.02 31.90,8.13 C32.73,9.11 33.75,10.98 33.86,12.19 C34.05,14.77 26.95,29.98 21.96,38.47 C14.25,51.04 -2.39,78.31 -11.34,93.02 C-17.78,104.14 -23.38,114.90 -26.07,121.89 C-27.35,125.46 -27.35,126.29 -26.95,129.21 C-25.02,130.37 -23.60,130.71 -21.84,130.12 C-18.78,129.09 29.36,105.69 33.82,103.81 C35.41,103.15 38.12,102.24 39.24,101.88 C40.58,101.44 41.22,101.51 42.20,102.06 C40.06,105.25 30.57,113.57 22.22,120.06 C9.26,129.60 -25.83,154.06 -27.70,156.89 C-27.86,157.14 -28.02,157.65 -28.19,158.41 C-25.54,158.21 -23.08,157.38 -18.19,155.16 C6.14,143.70 14.61,140.49 21.21,138.64 C18.28,141.83 15.12,144.37 10.86,146.76 C3.44,150.87 -18.79,162.52 -19.04,162.70 C-19.29,162.89 -19.63,163.27 -20.05,163.83" fill="none" stroke="rgb(139, 210, 196)" stroke-width="54.60" stroke-opacity="1.00" stroke-linejoin="round"/>
<path d="M30.30,26.39 C29.73,25.42 28.27,23.02 27.40,21.57 C26.38,19.99 24.74,18.54 23.35,18.13 C23.30,18.12 2.92,14.22 -5.09,12.63 C-16.90,10.44 -28.27,8.79 -35.47,8.62 C-41.89,8.64 -50.99,8.64 -52.88,8.47 C-51.18,7.02 -44.81,5.43 -43.24,5.03 C-33.83,2.69 -16.85,-0.32 -9.61,-1.42 C-1.47,-2.51 15.23,-4.59 23.47,-5.36 C34.28,-6.12 48.43,-6.48 56.20,-6.11 C63.81,-5.67 78.87,-4.95 86.31,-4.69 C94.01,-4.56 110.32,-4.67 116.43,-4.34 C129.54,-3.59 165.34,3.83 172.96,3.94 C182.02,4.04 220.06,-0.24 228.46,-1.04 C242.59,-2.09 279.36,-3.38 296.41,-3.81 C319.43,-4.20 333.53,-3.94 352.18,-2.10 C368.20,-0.95 404.65,1.22 417.02,1.30 C438.02,0.95 524.39,-6.69 534.64,-7.86 C542.08,-8.93 557.13,-10.96 564.97,-11.77 C572.72,-12.46 587.54,-13.68 593.31,-13.24 C600.76,-12.60 641.25,-11.59 657.03,-12.21 C688.30,-14.01 734.60,-15.65 750.51,-16.28 C760.50,-16.83 769.66,-18.27 773.23,-18.53 C783.82,-19.24 795.43,-19.53 804.98,-19.19 C826.11,-17.92 852.94,-17.36 868.32,-17.20 C891.15,-16.54 910.13,-16.73 925.81,-16.61 C938.86,-16.23 969.62,-13.71 982.84,-12.44 C995.94,-11.60 1029.20,-10.33 1046.10,-9.86 C1065.41,-9.44 1091.19,-8.35 1108.20,-7.65 C1112.03,-7.50 1118.51,-7.24 1121.18,-7.14" fill="none" stroke="rgb(139, 210, 196)" stroke-width="54.60" stroke-opacity="1.00" stroke-linejoin="round"/>
<path d="M-68.56,988.97 C-66.13,990.35 -40.53,996.56 -18.91,1000.47 C-6.95,1002.40 27.18,1006.34 41.95,1007.67 C56.43,1008.71 87.17,1010.05 102.33,1010.55 C135.50,1011.13 197.86,1010.75 228.90,1010.31 C259.76,1009.43 321.28,1007.25 351.92,1005.96 C383.24,1004.19 445.32,1000.06 476.08,997.70 C507.02,994.75 568.97,988.23 599.98,984.65 C632.44,980.14 695.88,970.80 726.87,965.98 C759.83,960.42 820.27,948.93 842.29,944.16 C872.30,937.07 933.14,922.22 963.98,914.46 C977.38,910.81 1003.47,903.46 1016.17,899.76 C1048.46,889.72 1112.78,869.46 1144.81,859.24 C1177.26,848.82 1243.23,827.65 1276.77,816.90 C1283.29,814.83 1294.92,811.13 1300.03,809.50 C1311.21,805.82 1326.71,800.67 1331.03,799.21" fill="none" stroke="rgb(245, 186, 251)" stroke-width="54.60" stroke-opacity="1.00" stroke-linejoin="round"/>
<path d="M642.87,1013.96 C644.21,1012.47 645.08,1011.56 645.47,1011.22 C647.39,1009.62 661.40,1006.16 666.81,1004.84 C684.50,1000.83 780.24,984.60 791.89,982.15 C823.02,976.22 887.20,964.04 920.25,957.79 C931.90,955.47 959.40,950.50 974.07,947.90 C994.69,943.64 1014.34,938.81 1020.30,936.15 C1021.86,935.48 1022.65,934.74 1023.94,932.93 C1020.68,932.67 1016.81,933.03 1012.44,934.08 C1006.29,935.59 981.16,943.06 956.28,952.04 C940.57,957.91 908.76,969.99 892.66,976.20 C886.36,978.73 864.70,987.71 860.07,989.92 C846.73,996.35 839.94,1002.18 839.19,1002.82 C839.19,1002.82 839.67,1004.93 839.67,1004.93 C846.68,1002.30 853.48,998.87 862.87,993.72 C878.05,985.32 907.49,969.45 921.75,961.98 C928.30,958.69 938.88,953.46 947.73,949.90 C955.06,947.14 972.01,941.03 978.26,940.03 C979.05,939.90 979.85,939.77 980.64,939.64 C971.52,944.42 944.10,955.30 929.77,960.94 C895.85,974.25 832.00,999.47 802.08,1011.39 C799.76,1012.33 794.60,1014.42 792.11,1015.67 C788.37,1017.60 787.44,1018.90 786.44,1021.16 C788.89,1022.16 793.12,1022.45 798.61,1021.74 C808.78,1020.35 838.44,1011.62 851.58,1007.71 C868.12,1002.82 901.45,993.21 918.22,988.49 C935.12,984.01 964.90,976.23 977.78,972.93 C983.85,971.39 998.07,968.67 1005.73,967.54 C1010.78,966.89 1015.23,966.82 1018.45,967.31 C1018.05,969.62 1017.41,970.79 1015.63,971.94 C1009.92,975.69 999.76,981.44 991.55,985.18 C980.05,990.29 948.92,1003.10 932.75,1009.55 C884.83,1027.86 871.68,1031.76 870.77,1032.03 C898.92,1022.69 957.17,1004.70 985.93,995.98 C998.30,991.86 1017.76,984.79 1018.78,984.42 C1018.23,984.00 1011.81,986.11 1010.29,986.60 C994.22,991.80 957.07,1003.42 946.90,1006.11 C938.18,1008.31 926.07,1009.86 923.59,1009.53 C924.81,1007.87 930.54,1004.47 931.81,1003.71 C959.98,986.72 996.03,964.91 1000.68,961.18 C1003.60,958.81 1003.81,958.48 1003.72,957.95 C1003.72,957.95 940.21,992.15 940.21,992.15 C940.21,992.15 940.28,993.60 940.28,993.60 C946.24,992.12 954.94,987.95 963.20,983.13 C970.26,978.83 981.30,972.05 985.28,969.59 C978.46,972.15 963.56,977.72 955.48,980.72 C946.69,983.86 936.55,986.93 927.04,989.36 C910.33,993.39 886.63,996.79 873.07,998.40 C838.57,1001.65 772.74,1006.94 741.17,1009.52 C723.29,1010.86 672.73,1013.12 652.42,1015.01 C641.52,1016.22 630.05,1018.22 622.00,1019.03 C606.31,1020.31 574.66,1022.87 558.71,1024.15 C554.57,1024.54 538.76,1027.04 533.19,1027.09 C531.67,1027.10 486.87,1025.96 471.18,1025.55 C455.71,1024.76 420.88,1023.07 410.94,1023.36 C400.52,1023.69 364.31,1028.71 352.79,1029.82 C345.41,1030.41 329.56,1031.27 322.14,1031.02 C316.28,1030.81 300.12,1029.11 293.10,1028.15 C285.44,1026.92 270.75,1024.27 263.34,1023.65 C256.14,1023.06 240.30,1023.08 233.00,1023.62 C217.67,1024.95 183.34,1026.61 170.26,1026.23 C162.24,1025.87 148.20,1024.65 142.14,1024.15 C138.04,1023.86 124.70,1022.81 113.51,1021.14 C105.67,1019.92 85.57,1016.68 85.37,1016.65 C81.66,1016.16 63.13,1015.63 54.68,1015.45 C43.30,1015.22 39.49,1015.61 29.27,1018.05 C21.80,1019.92 6.95,1024.46 3.28,1026.08 C-1.34,1028.16 -13.28,1037.86 -17.52,1041.97 C-22.63,1046.97 -32.34,1058.43 -35.68,1062.38 C-36.50,1063.33 -37.32,1064.27 -38.14,1065.22" fill="none" stroke="rgb(245, 186, 251)" stroke-width="54.60" stroke-opacity="1.00" stroke-linejoin="round"/>
<path d="M975.90,992.47 C970.44,992.22 966.85,991.94 966.50,992.34 C966.08,992.89 961.50,999.38 959.07,1003.37 C955.56,1009.28 955.42,1010.30 955.97,1011.48 C958.31,1011.50 959.82,1011.28 961.69,1010.48 C965.28,1008.93 978.05,1002.22 985.98,996.76 C992.08,992.48 1005.39,982.61 1011.83,977.73 C1020.10,971.21 1031.20,960.85 1035.01,957.13 C1036.75,955.42 1037.44,954.40 1038.04,952.95 C1034.74,954.21 1022.26,962.39 1015.52,966.88 C996.43,980.16 986.30,988.05 979.15,994.32 C975.27,997.81 973.75,999.79 973.53,1003.51 C973.45,1005.29 973.32,1008.26 973.28,1009.44" fill="none" stroke="rgb(245, 186, 251)" stroke-width="54.60" stroke-opacity="1.00" stroke-linejoin="round"/>
<path d="M-53.29,958.70 C-51.66,960.71 -39.63,970.04 -34.02,974.52 C-29.61,977.88 -16.42,984.67 -10.88,986.89 C-3.47,989.83 11.26,993.76 17.67,994.90 C31.00,997.26 57.31,998.12 76.51,998.06 C88.26,997.80 116.24,996.00 135.95,994.05 C150.54,992.39 178.65,987.96 194.14,985.31 C208.56,982.64 239.99,976.65 257.02,973.32 C288.66,966.33 347.87,951.68 377.15,944.39 C407.14,937.34 469.42,922.78 501.71,915.26 C535.18,907.55 606.59,891.40 632.11,886.40 C645.47,884.09 716.15,874.45 746.86,870.95 C762.20,869.49 792.77,866.75 808.00,865.45 C824.10,864.32 855.75,862.34 871.29,861.49 C885.02,861.08 909.73,860.52 930.02,861.04 C953.98,862.18 1029.84,868.05 1062.58,870.71 C1074.29,871.78 1107.80,876.09 1118.00,877.81 C1122.36,878.58 1129.07,880.35 1132.58,881.90 C1135.32,883.15 1141.78,887.17 1141.73,887.67 C1141.69,888.04 1141.22,888.98 1140.32,890.48" fill="none" stroke="rgb(245, 186, 251)" stroke-width="54.60" stroke-opacity="1.00" stroke-linejoin="round"/>
<path d="M360.45,990.96 C360.45,990.96 342.68,984.67 342.68,984.67 C355.11,981.21 378.92,976.76 402.88,973.07 C435.11,968.29 498.40,958.90 529.46,954.30 C539.41,952.79 555.54,950.27 561.71,949.27 C587.29,943.73 645.71,930.88 679.23,923.92 C696.05,920.78 729.72,914.90 746.55,912.17 C761.48,909.98 791.79,905.68 807.17,903.57 C818.31,902.25 841.72,900.27 864.70,899.28 C876.91,898.97 910.46,899.86 926.04,900.88 C941.50,902.20 982.75,906.08 985.57,907.06 C977.92,908.31 952.27,909.84 931.33,911.69 C897.64,915.41 828.65,923.36 793.35,927.58 C781.47,929.03 753.82,932.69 739.81,935.43 C725.91,938.37 696.18,945.11 682.66,948.58 C653.24,956.38 597.42,970.95 564.56,978.59 C531.92,985.27 468.58,997.82 437.88,1003.67 C429.78,1005.11 411.54,1008.18 408.35,1008.53 C397.06,1009.76 340.01,1010.87 332.08,1010.85 C338.22,1010.82 353.27,1010.72 361.78,1009.99 C370.30,1009.23 407.90,1002.89 423.89,1000.17 C438.80,997.81 465.74,993.85 479.16,992.27 C510.44,988.92 575.74,981.86 609.78,978.15 C642.41,974.03 704.59,966.19 736.97,962.75 C768.27,960.37 825.94,956.16 828.24,955.96 C830.35,955.77 833.01,955.48 834.56,955.28" fill="none" stroke="rgb(245, 186, 251)" stroke-width="54.60" stroke-opacity="1.00" stroke-linejoin="round"/>
<path d="M978.52,976.24 C980.97,977.44 982.45,977.88 984.57,977.86 C991.87,977.77 1006.91,975.49 1011.56,975.93 C1012.99,976.09 1016.22,976.71 1016.74,977.25 C1017.02,977.55 1017.49,978.37 1018.13,979.70 C1016.21,981.80 1013.59,983.67 1010.75,984.61 C1007.68,985.60 989.44,989.59 981.80,990.84 C974.70,991.91 959.30,993.78 951.45,994.30 C920.84,995.52 875.35,998.32 859.57,999.00 C854.13,999.12 850.49,999.13 849.51,999.13" fill="none" stroke="rgb(245, 186, 251)" stroke-width="54.60" stroke-opacity="1.00" stroke-linejoin="round"/>
<path d="M-108.93,545.27 C-100.07,547.37 -91.33,547.27 -80.13,546.45 C-64.31,545.22 -32.59,543.16 -19.10,542.96 C10.19,542.98 73.94,542.72 108.39,542.44 C138.30,541.97 179.45,541.42 190.69,541.33" fill="none" stroke="rgb(245, 186, 251)" stroke-width="54.60" stroke-opacity="1.00" stroke-linejoin="round"/>
<path d="M1028.89,386.01 C1041.93,379.05 1072.12,362.43 1084.01,354.45 C1099.44,343.90 1144.85,306.66 1159.58,295.07 C1160.57,294.28 1162.15,292.95 1163.01,292.20" fill="none" stroke="rgb(245, 186, 251)" stroke-width="54.60" stroke-opacity="1.00" stroke-linejoin="round"/>
<path d="M651.40,560.43 C651.40,560.43 645.51,556.98 645.51,556.98 C645.51,556.98 657.74,551.20 657.74,551.20" fill="none" stroke="rgb(245, 186, 251)" stroke-width="54.60" stroke-opacity="1.00" stroke-linejoin="round"/>
<path d="M577.84,551.47 C577.84,551.47 567.58,553.08 567.58,553.08" fill="none" stroke="rgb(245, 186, 251)" stroke-width="54.60" stroke-opacity="1.00" stroke-linejoin="round"/>
<path d="M1029.19,438.30 C1029.42,438.27 1030.53,440.54 1028.64,443.48 C1028.10,444.32 1027.55,445.16 1027.01,446.00 C1027.01,446.00 1000.51,515.12 1000.51,515.12" fill="none" stroke="rgb(245, 186, 251)" stroke-width="54.60" stroke-opacity="1.00" stroke-linejoin="round"/>
<path d="M918.50,544.25 C918.50,544.25 978.66,543.62 978.66,543.62" fill="none" stroke="rgb(245, 186, 251)" stroke-width="54.60" stroke-opacity="1.00" stroke-linejoin="round"/>
<path d="M1001.22,500.71 C1012.00,497.35 1019.32,496.02 1022.04,496.76 C1023.45,497.20 1025.19,498.63 1025.49,499.73 C1026.06,502.11 1025.16,506.07 1024.67,507.33" fill="none" stroke="rgb(245, 186, 251)" stroke-width="54.60" stroke-opacity="1.00" stroke-linejoin="round"/>
<path d="M943.97,546.53 C943.97,546.53 960.84,542.13 960.84,542.13" fill="none" stroke="rgb(245, 186, 251)" stroke-width="54.60" stroke-opacity="1.00" stroke-linejoin="round"/>
<path d="M1000.01,521.32 C1000.01,521.32 1000.17,558.90 1000.17,558.90" fill="none" stroke="rgb(245, 186, 251)" stroke-width="54.60" stroke-opacity="1.00" stroke-linejoin="round"/>
<path d="M993.55,552.59 C993.55,552.59 986.45,586.94 986.45,586.94" fill="none" stroke="rgb(245, 186, 251)" stroke-width="54.60" stroke-opacity="1.00" stroke-linejoin="round"/>
<path d="M1011.23,534.57 C1011.23,534.57 982.13,561.01 982.13,561.01" fill="none" stroke="rgb(245, 186, 251)" stroke-width="54.60" stroke-opacity="1.00" stroke-linejoin="round"/>
<path d="M1005.09,535.20 C1005.09,535.20 991.73,552.54 991.73,552.54" fill="none" stroke="rgb(245, 186, 251)" stroke-width="54.60" stroke-opacity="1.00" stroke-linejoin="round"/>
<path d="M968.74,552.75 C968.74,552.75 966.90,553.64 966.90,553.64 C966.90,553.64 951.52,560.26 951.52,560.26 C941.37,561.52 931.40,562.43 924.28,562.29 C916.65,562.06 902.17,560.56 897.87,559.95 C891.00,558.91 881.25,556.41 869.72,553.02 C859.35,549.81 854.30,547.13 854.48,547.15" fill="none" stroke="rgb(245, 186, 251)" stroke-width="54.60" stroke-opacity="1.00" stroke-linejoin="round"/>
<path d="M883.84,546.76 C870.59,547.33 840.03,548.81 822.37,550.02 C806.22,551.53 789.01,553.14 787.94,553.24 C787.94,553.24 801.76,550.59 801.76,550.59" fill="none" stroke="rgb(245, 186, 251)" stroke-width="54.60" stroke-opacity="1.00" stroke-linejoin="round"/>
<path d="M798.21,544.23 C798.21,544.23 797.20,544.45 797.20,544.45" fill="none" stroke="rgb(245, 186, 251)" stroke-width="54.60" stroke-opacity="1.00" stroke-linejoin="round"/>
<path d="M1022.76,501.65 C1023.63,499.65 1023.94,498.01 1023.60,495.90 C1023.07,492.62 1021.18,484.93 1020.90,483.15 C1020.38,479.49 1021.12,473.81 1022.34,468.95 C1024.46,461.02 1028.78,443.93 1029.45,436.34 C1030.89,419.31 1030.51,405.07 1030.20,402.38 C1027.68,409.67 1018.23,451.75 1016.36,461.89 C1015.51,466.76 1014.83,473.43 1014.94,477.36 C1015.00,478.89 1014.78,479.67 1014.17,480.57 C1012.50,478.20 1010.68,471.30 1010.09,468.67 C1008.75,462.66 1005.97,443.19 1005.78,438.25 C1005.66,435.04 1006.01,427.99 1006.49,423.54 C1007.26,417.45 1007.76,416.46 1009.25,414.87 C1010.58,414.72 1012.38,415.74 1013.61,417.58 C1014.31,418.63 1015.44,424.91 1015.41,428.61 C1015.32,435.55 1013.29,451.14 1012.04,458.90 C1009.92,470.52 1002.89,500.54 1000.03,511.81" fill="none" stroke="rgb(245, 186, 251)" stroke-width="54.60" stroke-opacity="1.00" stroke-linejoin="round"/>
<path d="M1004.10,515.74 C1004.10,515.74 987.89,559.32 987.89,559.32" fill="none" stroke="rgb(245, 186, 251)" stroke-width="54.60" stroke-opacity="1.00" stroke-linejoin="round"/>
<path d="M998.33,544.73 C998.33,544.73 996.12,555.13 996.12,555.13" fill="none" stroke="rgb(245, 186, 251)" stroke-width="54.60" stroke-opacity="1.00" stroke-linejoin="round"/>
<path d="M997.65,542.19 C997.65,542.19 996.97,544.83 996.97,544.83" fill="none" stroke="rgb(245, 186, 251)" stroke-width="54.60" stroke-opacity="1.00" stroke-linejoin="round"/>
<path d="M971.66,544.17 C971.66,544.17 871.39,558.00 871.39,558.00 C871.39,558.00 858.30,562.47 858.30,562.47" fill="none" stroke="rgb(245, 186, 251)" stroke-width="54.60" stroke-opacity="1.00" stroke-linejoin="round"/>
<path d="M-17.28,554.30 C-16.70,552.89 -16.05,552.15 -14.66,551.65 C-9.65,549.84 1.49,547.32 13.01,546.03 C21.66,545.23 41.41,543.58 44.30,543.44 C48.46,543.24 87.58,545.67 103.86,546.61 C118.08,547.66 145.57,547.98 160.36,548.10 C192.80,547.91 257.45,547.01 289.66,546.29 C322.10,545.93 386.22,545.24 417.90,544.91 C449.15,544.28 500.85,543.47 521.29,543.29" fill="none" stroke="rgb(245, 186, 251)" stroke-width="54.60" stroke-opacity="1.00" stroke-linejoin="round"/>
<path d="M1028.50,481.99 C1035.34,480.79 1051.04,478.06 1059.91,476.54 C1071.29,474.80 1087.56,473.44 1089.19,473.37 C1091.43,473.31 1094.10,474.06 1095.56,475.13 C1095.92,475.41 1096.42,475.92 1097.05,476.66" fill="none" stroke="rgb(245, 186, 251)" stroke-width="54.60" stroke-opacity="1.00" stroke-linejoin="round"/>
<path d="M1064.68,495.84 C1063.98,496.19 1061.71,497.32 1060.95,497.71 C1039.23,509.53 1029.55,513.93 1020.17,516.92" fill="none" stroke="rgb(245, 186, 251)" stroke-width="54.60" stroke-opacity="1.00" stroke-linejoin="round"/>
<path d="M893.31,541.23 C893.31,541.23 791.38,546.68 791.38,546.68 C791.38,546.68 789.86,546.78 789.86,546.78" fill="none" stroke="rgb(245, 186, 251)" stroke-width="54.60" stroke-opacity="1.00" stroke-linejoin="round"/>
<path d="M-125.58,495.63 C-125.58,495.63 -137.36,494.31 -137.36,494.31 C-133.96,498.02 -131.36,500.27 -127.19,501.86 C-122.72,503.52 -109.33,507.08 -100.86,508.62 C-68.04,513.86 -30.79,519.84 -26.38,520.57" fill="none" stroke="rgb(245, 186, 251)" stroke-width="54.60" stroke-opacity="1.00" stroke-linejoin="round"/>
<path d="M1028.09,415.17 C1057.67,405.04 1118.76,383.70 1147.58,372.98 C1175.82,361.87 1232.90,337.63 1261.81,325.08 C1268.98,321.87 1283.47,315.33 1290.80,311.99 C1299.18,308.09 1315.05,300.63 1322.55,297.08 C1325.31,295.77 1330.11,293.49 1332.15,292.53" fill="none" stroke="rgb(245, 186, 251)" stroke-width="54.60" stroke-opacity="1.00" stroke-linejoin="round"/>
<path d="M21.53,549.89 C20.42,549.25 13.89,545.54 9.05,544.58 C4.17,543.66 -10.51,543.59 -13.43,543.58 C-8.44,543.22 4.90,542.26 13.84,542.86 C24.91,543.62 59.23,549.02 75.14,551.62 C91.11,553.94 121.98,557.69 136.65,559.32 C155.23,560.98 176.91,561.58 193.82,561.16 C209.74,560.51 239.44,558.43 253.39,557.04 C285.95,553.06 327.78,547.28 334.87,546.29" fill="none" stroke="rgb(245, 186, 251)" stroke-width="54.60" stroke-opacity="1.00" stroke-linejoin="round"/>
<path d="M735.32,542.61 C735.32,542.61 817.05,541.12 817.05,541.12" fill="none" stroke="rgb(245, 186, 251)" stroke-width="54.60" stroke-opacity="1.00" stroke-linejoin="round"/>
<path d="M-154.69,485.20 C-153.52,486.84 -152.75,487.89 -152.38,488.34 C-152.11,488.67 -143.62,497.17 -141.61,499.43 C-140.29,500.93 -137.95,504.27 -137.37,505.59 C-137.07,506.28 -136.51,509.54 -136.12,510.61 C-135.43,512.51 -133.42,515.62 -131.93,516.98 C-130.16,518.55 -122.56,521.94 -119.28,522.84 C-112.57,524.61 -101.73,526.23 -90.71,527.51 C-70.78,529.56 -52.51,530.62 -30.94,531.09 C-1.10,531.41 62.80,531.73 96.85,531.72 C132.87,530.84 195.95,527.56 225.76,525.91 C255.09,524.27 316.04,520.35 344.58,517.86 C370.20,515.13 439.18,506.32 469.29,502.34 C503.13,497.75 569.34,488.50 601.70,483.83 C614.45,481.72 641.41,477.05 655.63,474.49 C671.35,471.49 702.52,465.36 717.98,462.23 C733.59,458.82 764.52,451.87 779.85,448.34 C794.85,444.63 824.81,436.98 839.77,433.04 C854.60,428.85 884.40,419.61 899.41,414.82 C914.33,409.71 944.18,399.12 959.10,393.62 C973.83,387.91 1003.20,376.09 1017.86,369.98 C1032.04,363.69 1059.04,351.43 1073.01,344.59 C1088.73,336.50 1114.58,321.39 1127.26,313.47 C1141.56,304.22 1167.62,287.30 1179.37,279.62 C1184.56,276.21 1193.40,270.39 1197.05,268.00 C1199.51,266.39 1203.60,263.71 1205.23,262.65" fill="none" stroke="rgb(245, 186, 251)" stroke-width="54.60" stroke-opacity="1.00" stroke-linejoin="round"/>
<path d="M584.27,533.45 C584.27,533.45 568.61,528.83 568.61,528.83 C579.42,526.21 587.47,524.53 596.31,523.44 C611.99,521.85 643.37,518.18 659.06,516.10 C691.54,511.46 760.33,502.03 784.04,498.22 C816.90,492.65 882.28,481.68 914.80,476.29 C938.55,472.60 984.33,464.27 1000.99,460.74 C1007.95,459.18 1022.94,455.76 1027.77,453.68 C1030.24,452.58 1034.72,449.17 1036.29,447.32 C1037.58,445.77 1040.61,440.53 1041.61,437.79 C1042.84,434.28 1043.59,428.58 1043.06,425.26 C1042.83,423.97 1041.69,420.85 1041.10,420.14 C1040.30,419.22 1037.59,418.22 1036.00,418.15 C1032.37,418.07 1023.07,421.68 1013.21,425.91 C997.79,432.66 966.88,446.12 951.40,452.84 C929.38,462.10 902.98,471.99 891.37,475.88 C880.07,479.34 871.35,481.58 870.51,481.36 C870.16,481.26 869.64,480.85 868.96,480.13 C872.11,475.69 881.51,465.87 887.74,460.78 C892.25,457.17 902.22,449.62 911.21,443.78 C921.83,437.12 953.92,418.58 967.90,410.67 C976.13,406.10 988.14,400.95 991.80,399.98 C991.78,400.79 991.35,401.39 989.57,402.81 C983.51,407.72 972.32,416.62 967.75,419.46 C964.31,421.58 949.63,429.85 942.97,433.55 C928.71,441.06 905.20,451.61 887.41,458.89 C856.49,471.40 813.42,488.89 809.61,491.01 C809.61,491.01 809.61,492.02 809.61,492.02 C813.31,491.71 828.41,486.34 836.49,483.42 C843.89,480.75 860.13,475.01 866.22,473.04 C872.43,471.19 890.07,466.60 894.49,465.69 C898.83,464.81 915.86,462.30 923.43,461.49 C931.14,460.77 948.41,460.89 953.98,461.15 C958.16,461.38 963.77,462.36 965.42,463.44 C966.41,464.11 968.12,465.71 969.09,466.76 C968.89,469.69 967.32,472.77 964.00,476.02 C959.92,479.93 950.31,486.55 943.45,490.76 C934.96,495.89 925.24,501.03 912.34,506.86 C891.73,515.74 827.95,541.01 827.34,541.73 C836.51,539.24 871.48,528.30 887.09,524.58 C898.67,522.03 928.96,516.75 946.59,514.59 C969.98,512.14 979.90,512.85 983.52,513.68 C975.31,518.40 963.86,523.88 956.18,526.80 C953.31,527.88 935.86,533.81 928.13,536.17 C920.37,538.30 904.80,541.90 896.95,543.38 C880.83,546.07 855.72,548.36 847.64,549.01 C861.30,545.23 889.54,537.71 904.11,533.97 C919.43,530.40 949.20,523.69 964.43,520.62 C974.07,518.87 994.14,517.85 995.21,517.79 C981.57,519.37 957.08,521.95 941.20,523.14 C907.76,525.26 840.11,529.31 805.90,531.24 C798.59,531.50 786.00,531.90 780.73,532.03 C769.49,532.18 761.05,532.04 757.08,530.94 C764.43,527.85 774.91,524.94 781.20,523.18 C798.85,518.41 832.32,509.52 849.73,505.27 C859.87,503.04 871.25,501.11 877.61,500.09 C892.38,498.14 924.76,494.85 935.83,494.87 C939.96,494.90 954.45,495.72 957.34,495.90 C952.90,497.46 941.58,499.74 929.85,501.64 C915.64,503.66 883.69,508.11 865.95,510.53 C849.09,512.59 818.98,515.85 805.72,517.05 C790.12,518.26 758.01,521.00 744.84,522.53 C753.09,524.08 761.44,523.86 771.30,522.91 C787.30,520.92 818.64,516.94 833.99,514.94 C846.82,513.51 884.01,511.23 900.02,510.71 C919.75,510.31 946.23,511.47 958.31,512.78 C967.26,513.77 979.90,516.30 988.59,518.89 C992.35,520.05 999.65,522.46 1002.47,523.84 C1004.68,524.94 1010.29,529.61 1011.40,531.62 C1011.93,532.64 1012.26,535.58 1011.95,536.63 C1011.27,538.68 1006.79,543.69 1004.89,545.02 C994.36,552.27 972.17,560.33 967.96,561.81 C968.57,560.54 973.48,556.89 976.35,554.75 C983.42,549.66 997.09,540.59 1003.68,536.36 C1006.44,534.57 1011.31,530.41 1011.01,529.05 C1010.57,527.49 1006.19,526.02 1003.69,525.78 C995.39,525.01 983.47,525.24 973.86,526.07 C958.78,527.64 929.26,532.68 916.19,535.40 C911.99,536.31 906.51,537.48 905.24,537.75" fill="none" stroke="rgb(245, 186, 251)" stroke-width="54.60" stroke-opacity="1.00" stroke-linejoin="round"/>
<path d="M-5.22,549.46 C-5.32,549.42 -5.24,549.30 -4.98,549.10 C-4.73,548.90 -3.95,548.34 -2.64,547.42 C16.35,548.39 33.90,551.53 52.36,551.92 C60.36,551.92 77.08,551.78 85.80,551.65 C96.15,551.33 104.51,550.73 113.78,549.22 C127.03,547.22 157.19,542.86 174.10,540.49 C191.06,538.46 223.08,535.36 238.80,534.20 C270.00,532.45 332.23,529.32 361.78,527.47 C376.42,526.15 405.96,523.59 420.86,522.37 C436.39,521.36 466.79,519.53 483.22,518.88 C490.72,518.72 505.26,518.85 512.54,519.31 C519.90,519.87 535.13,521.89 543.71,523.30 C558.31,526.06 595.99,533.45 604.08,534.33 C612.68,535.26 650.34,535.53 663.99,535.01 C679.73,534.03 715.78,531.34 721.36,531.17 C726.56,530.93 766.55,526.55 782.72,524.72 C797.01,523.06 827.93,520.00 841.28,519.51 C847.58,519.37 862.52,522.29 873.55,524.89 C880.85,526.60 891.52,529.07 899.23,529.47 C913.62,530.04 947.95,530.55 960.72,529.97 C969.20,529.38 988.77,528.05 991.56,528.02 C996.70,527.99 1001.20,528.92 1003.95,529.86 C1009.71,531.87 1023.42,538.48 1028.34,539.39 C1031.20,539.88 1037.07,539.63 1040.00,539.11 C1045.88,537.99 1054.73,533.75 1065.54,528.16 C1067.36,527.21 1070.33,525.67 1071.49,525.07" fill="none" stroke="rgb(245, 186, 251)" stroke-width="54.60" stroke-opacity="1.00" stroke-linejoin="round"/>
</g>
</svg>
