<?xml version="1.0" encoding="UTF-8" standalone="no"?>
<!DOCTYPE svg PUBLIC "-//W3C//DTD SVG 1.1//EN" "http://www.w3.org/Graphics/SVG/1.1/DTD/svg11.dtd">
<svg width="72.00" height="25.14" viewBox="0.00 0.00 1200.00 419.00" xmlns="http://www.w3.org/2000/svg" xmlns:xlink="http://www.w3.org/1999/xlink">
<g stroke-linecap="round" transform="translate(0.00, -262.00)" id="Layer_3_2">
<path d="M662.50,291.50 C667.09,288.24 671.13,286.42 675.20,286.28 C685.61,286.11 698.71,286.72 706.56,288.49 C710.57,289.42 718.14,292.08 721.70,293.77 C727.61,296.60 741.68,306.37 745.75,310.70 C748.47,313.63 751.70,319.46 752.76,322.66 C753.69,325.58 754.04,331.89 753.52,336.17 C752.79,341.69 751.76,347.60 751.51,349.00 C750.65,353.92 750.37,358.19 751.29,362.63 C752.69,369.21 757.79,382.40 763.11,394.16 C766.54,401.92 773.47,418.72 774.10,423.38 C775.10,431.39 773.36,453.70 771.69,461.55 C771.38,462.99 772.40,465.45 772.50,466.50 C772.55,467.02 765.48,486.39 765.50,486.50 C765.58,486.97 766.31,487.07 766.50,487.50 C766.59,487.70 763.28,506.94 762.76,514.70 C761.99,526.56 763.49,565.45 763.52,578.90 C763.08,605.55 762.34,608.02 761.50,609.50" fill="none" stroke="rgb(255, 255, 255)" stroke-width="14.88" stroke-opacity="1.00" stroke-linejoin="round"/>
<path d="M803.50,442.50 C802.83,441.83 802.17,441.17 801.50,440.50 C796.65,435.60 794.11,432.03 794.33,429.34 C794.52,427.77 796.61,422.10 797.50,415.50 C797.91,412.42 799.21,393.13 799.70,384.42 C800.37,372.91 800.58,370.63 802.50,359.50 C803.02,356.63 804.22,349.27 805.50,345.50 C805.87,344.43 809.41,336.70 810.53,334.85 C812.37,331.86 817.97,325.86 820.89,323.42 C826.31,318.95 840.03,309.84 846.40,306.47 C850.28,304.44 857.21,301.54 861.26,300.51 C864.85,299.62 872.18,299.11 875.56,299.24 C878.95,299.40 885.14,301.25 888.39,303.25 C893.33,306.38 907.84,319.48 911.50,323.50 C916.49,329.01 923.49,339.37 927.80,347.78 C928.97,350.12 933.06,358.86 934.36,361.98 C936.25,366.66 937.76,371.86 937.54,375.32 C937.45,376.65 937.67,381.22 936.79,383.38 C933.12,392.42 930.40,401.57 927.99,412.00 C926.30,420.23 923.11,438.40 923.45,442.98 C923.54,444.36 924.60,448.21 924.50,448.50 C924.35,448.95 923.39,449.75 923.39,451.69 C923.11,464.48 922.50,471.04 921.05,473.88 C920.64,474.66 917.84,477.42 917.50,477.50 C916.85,477.65 914.75,477.72 913.58,479.02 C912.31,480.49 911.81,482.16 912.09,484.05 C912.66,487.74 911.48,495.85 910.50,497.50 C909.52,499.17 906.63,500.79 906.50,501.50 C906.38,502.24 907.74,504.04 907.87,505.80 C908.01,507.73 907.95,510.71 907.50,511.50 C906.77,512.77 903.87,513.89 903.50,514.50 C903.15,515.07 903.65,515.85 903.50,516.50 C903.33,517.23 900.40,521.50 899.50,522.50 C898.49,523.58 896.23,524.75 895.50,524.50 C894.14,523.94 892.07,518.29 890.51,513.53 C888.60,507.52 886.37,501.40 884.50,497.50 C881.43,491.17 872.31,478.85 867.48,474.71 C864.60,472.28 858.00,468.66 854.50,467.50 C851.02,466.38 841.49,464.89 839.22,464.36 C837.56,463.95 834.49,462.61 833.69,461.84 C833.31,461.45 830.04,454.91 827.50,451.50" fill="none" stroke="rgb(255, 255, 255)" stroke-width="14.88" stroke-opacity="1.00" stroke-linejoin="round"/>
<path d="M662.50,308.50 C666.42,311.28 670.44,313.74 674.03,314.75 C675.23,315.08 679.59,316.07 680.50,316.50 C681.48,316.96 684.86,318.95 686.50,319.50 C688.92,320.30 703.89,321.96 707.29,322.42 C709.95,322.80 712.77,323.73 714.62,325.07 C717.82,327.44 722.89,333.94 724.53,336.49 C726.61,339.76 730.88,347.69 732.54,351.45 C734.11,355.04 736.71,362.81 737.46,366.92 C738.24,371.33 738.31,378.43 737.82,383.28 C737.53,386.04 736.41,393.55 735.28,396.75 C734.41,399.15 729.76,404.32 726.84,406.88 C723.58,409.71 715.69,416.43 715.50,416.50 C714.87,416.71 710.00,417.80 706.96,416.87 C703.68,415.85 694.62,412.80 693.50,412.50 C691.39,411.97 688.82,411.62 687.75,411.81 C686.73,412.02 684.40,412.99 682.95,413.81 C680.97,415.00 679.25,417.18 678.50,419.50 C677.84,421.71 678.01,430.16 677.92,433.48 C677.83,435.25 677.07,435.81 675.04,435.57 C673.11,435.35 671.93,435.33 671.50,435.50 C670.18,436.06 663.49,453.27 663.50,453.50 C663.54,453.97 664.75,454.92 664.60,456.74 C664.43,459.48 665.38,461.48 667.50,462.50 C670.07,463.67 694.23,462.97 697.55,464.48 C697.69,464.55 700.11,466.83 701.50,467.50 C703.17,468.32 712.28,470.56 714.31,471.95 C714.84,472.31 724.76,480.37 726.67,481.99 C730.09,484.91 735.62,490.97 736.50,491.50 C737.64,492.18 739.43,492.55 740.50,492.50" fill="none" stroke="rgb(255, 255, 255)" stroke-width="14.88" stroke-opacity="1.00" stroke-linejoin="round"/>
<path d="M994.50,435.50 C994.36,431.34 993.82,427.46 992.08,424.52 C991.48,423.53 986.59,416.81 985.50,413.50 C983.95,408.66 982.45,395.77 981.92,384.92 C981.55,374.01 982.39,359.03 984.55,352.82 C985.56,349.98 989.90,342.24 990.50,341.50 C992.02,339.68 993.98,338.20 995.92,337.43 C998.02,336.64 1000.37,336.17 1001.30,336.00 C1003.52,335.64 1005.94,336.16 1008.50,337.50 C1011.32,339.03 1027.80,352.84 1032.50,356.50 C1037.18,360.09 1043.35,364.46 1045.86,365.80 C1048.87,367.38 1056.28,369.63 1059.67,370.01 C1060.49,370.11 1065.98,370.48 1067.08,370.65 C1068.36,370.86 1071.62,371.89 1072.50,372.50 C1074.08,373.67 1075.56,376.24 1075.95,378.53 C1076.36,381.18 1076.56,388.34 1076.31,390.32 C1075.82,394.01 1065.93,422.28 1065.50,423.50" fill="none" stroke="rgb(255, 255, 255)" stroke-width="14.88" stroke-opacity="1.00" stroke-linejoin="round"/>
<path d="M893.50,338.50 C888.88,339.88 886.01,341.01 883.60,342.84 C881.05,344.78 875.85,349.04 873.91,351.00 C868.88,356.13 859.45,370.91 855.56,378.35 C851.72,385.85 842.80,402.90 841.18,405.35 C840.37,406.55 836.32,411.42 835.91,413.83 C835.64,415.32 835.48,415.52 834.11,416.08 C831.70,417.06 827.00,422.02 824.52,424.67 C823.15,426.10 821.59,427.08 819.94,427.66 C818.69,428.12 818.28,428.96 818.03,431.30 C817.67,435.01 815.60,436.80 814.50,437.50" fill="none" stroke="rgb(255, 255, 255)" stroke-width="14.88" stroke-opacity="1.00" stroke-linejoin="round"/>
<path d="M892.50,338.50 C895.30,351.71 897.95,362.79 901.73,368.40 C903.00,370.25 909.49,375.58 911.50,378.50 C913.44,381.40 916.11,388.71 916.94,392.86 C917.66,396.61 917.62,403.09 916.98,406.60 C916.29,410.17 914.35,415.80 912.72,418.65 C909.77,423.70 900.08,432.60 898.17,434.53 C896.87,435.86 895.62,438.54 895.11,439.52 C894.34,440.96 893.13,441.73 891.39,442.04 C887.60,442.71 881.11,443.43 877.32,443.52 C870.41,443.65 850.97,440.33 850.87,440.29 C849.11,439.65 844.56,432.46 842.01,428.27 C840.97,426.57 839.22,423.68 838.50,422.50" fill="none" stroke="rgb(255, 255, 255)" stroke-width="14.88" stroke-opacity="1.00" stroke-linejoin="round"/>
<path d="M164.50,473.50 C163.07,475.17 162.05,475.75 159.79,475.89 C155.06,476.19 147.19,477.14 144.50,478.50 C142.64,479.50 140.64,481.58 139.75,483.43 C136.79,490.41 126.70,507.02 123.05,510.15 C121.95,511.06 119.60,511.74 118.47,511.76 C117.32,511.72 115.32,511.14 114.45,510.51 C113.24,509.59 112.21,508.04 111.77,506.52 C110.86,502.98 111.13,497.73 112.12,493.81 C113.68,487.76 119.01,470.76 120.67,462.78 C123.30,449.97 125.19,420.80 125.50,418.50 C126.31,412.78 127.30,409.77 129.28,405.25 C130.50,402.50 134.63,393.73 135.15,392.83 C137.13,389.45 142.41,384.88 146.00,382.89 C148.80,381.38 155.95,378.53 159.48,377.38 C162.94,376.27 169.73,375.34 173.13,375.59 C176.57,375.89 181.41,377.47 183.38,379.12 C185.44,380.90 188.51,386.30 190.35,390.75 C191.23,392.90 195.18,403.55 195.50,404.50 C196.70,408.15 197.18,410.91 197.50,416.50 C197.83,424.35 198.61,446.13 198.50,446.50 C198.29,447.22 197.43,448.85 197.87,451.13 C198.10,452.33 199.91,463.20 200.42,467.70 C200.68,470.01 200.05,471.67 198.62,472.26 C198.25,472.40 197.54,472.48 196.50,472.50" fill="none" stroke="rgb(255, 255, 255)" stroke-width="14.88" stroke-opacity="1.00" stroke-linejoin="round"/>
<path d="M245.50,455.50 C247.78,457.18 248.99,457.71 251.24,457.84 C259.64,458.50 274.12,459.51 274.50,459.50 C277.00,459.39 278.94,458.26 279.50,456.50 C279.94,454.98 281.78,433.63 282.50,426.50 C283.19,420.13 284.51,412.55 284.50,412.50 C284.30,411.78 283.43,409.33 283.36,408.17 C282.83,406.30 280.90,403.70 279.04,402.37 C275.90,400.19 269.15,396.16 267.35,396.27 C264.63,396.48 260.21,395.51 257.50,395.50 C254.80,395.51 244.99,396.81 243.50,397.50 C241.52,398.45 239.20,400.76 239.50,401.50 C239.69,401.93 240.59,402.04 240.50,402.50 C240.38,403.33 239.35,403.74 239.00,404.50 C238.88,404.78 238.68,415.55 238.64,419.82 C238.63,422.08 237.67,423.77 237.50,424.50 C237.47,424.66 239.49,435.02 239.50,436.50 C239.51,438.75 239.04,441.28 238.50,442.50" fill="none" stroke="rgb(255, 255, 255)" stroke-width="14.88" stroke-opacity="1.00" stroke-linejoin="round"/>
<path d="M239.50,401.50 C238.83,400.83 238.17,400.17 237.50,399.50 C236.42,398.42 234.42,396.42 233.50,395.50" fill="none" stroke="rgb(255, 255, 255)" stroke-width="14.88" stroke-opacity="1.00" stroke-linejoin="round"/>
<path d="M239.50,404.50 C239.50,404.50 232.50,400.50 232.50,400.50" fill="none" stroke="rgb(255, 255, 255)" stroke-width="14.88" stroke-opacity="1.00" stroke-linejoin="round"/>
<path d="M196.50,472.50 C194.99,472.00 190.70,470.65 189.79,470.17 C187.99,469.18 185.50,466.33 184.77,464.52 C183.75,461.84 182.39,453.00 182.21,450.57 C182.05,448.01 183.64,426.53 183.64,422.67 C183.62,420.69 183.26,417.35 182.85,415.80 C182.44,414.36 181.06,412.24 179.98,411.27 C177.83,409.47 171.32,407.02 168.50,406.53 C164.98,405.95 158.96,406.95 155.67,408.42 C152.32,409.98 147.47,414.18 145.50,417.50 C143.96,420.17 141.81,427.03 140.92,431.97 C140.29,435.67 139.26,442.57 139.70,445.31 C139.91,446.52 143.96,453.69 144.41,454.25 C147.01,457.48 161.92,468.71 162.50,469.50 C162.81,469.92 164.05,473.08 164.50,473.50 C164.98,473.94 171.98,476.02 175.14,478.03 C178.42,480.18 183.14,484.74 183.96,487.57 C184.17,488.32 184.40,491.41 184.50,492.50" fill="none" stroke="rgb(255, 255, 255)" stroke-width="14.88" stroke-opacity="1.00" stroke-linejoin="round"/>
<path d="M473.50,495.50 C476.03,494.04 482.72,491.92 483.50,491.50 C484.11,491.18 486.83,488.82 487.50,488.50 C488.65,487.93 492.24,487.36 492.50,487.00 C493.21,486.01 493.69,482.85 494.74,480.89 C495.62,479.18 500.56,469.44 501.50,465.50 C502.38,461.60 501.74,454.20 501.57,452.08 C501.46,450.49 501.63,447.48 501.99,445.84 C502.42,444.01 504.30,441.89 506.50,440.50 C508.18,439.49 518.66,436.08 518.99,435.94 C522.29,434.53 529.32,429.44 532.23,426.67 C535.06,423.94 546.18,410.70 546.50,410.50 C547.29,410.03 550.57,409.31 551.64,409.12 C554.25,408.64 556.08,408.71 557.50,409.50 C558.33,410.00 560.70,412.95 561.36,414.19 C563.03,417.47 563.63,425.38 563.39,429.43 C562.93,436.30 559.69,452.39 557.11,459.62 C555.64,463.70 552.01,471.80 550.12,475.24 C548.65,477.88 543.82,484.72 540.75,486.68 C538.46,488.10 529.82,488.60 526.94,488.03 C523.72,487.26 516.67,485.66 514.67,485.43 C511.05,485.04 505.56,486.07 501.18,488.27 C499.28,489.28 495.62,490.33 495.50,490.50 C494.95,491.34 495.64,492.51 495.50,493.50 C495.44,493.94 493.22,495.78 492.25,496.64 C490.32,498.29 488.90,500.30 488.58,502.42 C488.08,506.13 489.92,514.81 490.74,517.59 C492.48,523.38 502.10,547.08 502.50,547.50 C503.63,548.61 506.72,549.09 508.50,548.50 C511.42,547.42 515.66,543.07 517.89,539.24 C520.74,534.34 528.65,519.32 532.50,513.50 C535.14,509.54 539.72,503.70 542.73,500.43 C544.83,498.23 549.01,493.87 550.40,493.85 C551.46,493.87 552.86,494.74 554.00,496.01 C556.09,498.46 556.65,502.75 556.19,506.64 C555.64,510.59 553.14,516.56 549.50,521.50 C546.03,526.14 530.12,541.48 527.17,544.58 C524.46,547.46 519.06,553.93 516.60,557.49 C513.90,561.44 510.81,567.68 508.86,572.67 C505.17,582.25 502.66,590.57 502.29,596.87 C502.14,599.82 502.17,602.39 502.50,603.50 C502.85,604.57 504.82,606.89 505.92,607.43 C508.41,608.58 516.84,608.64 518.54,608.65 C527.19,608.51 544.39,608.11 552.93,607.85 C554.56,607.79 562.30,607.55 563.74,606.44 C564.86,605.55 568.36,600.04 570.03,597.45 C572.24,593.80 575.32,585.45 576.46,581.03 C578.19,574.14 581.49,555.58 582.87,549.02 C583.51,545.76 586.12,543.32 587.50,542.50" fill="none" stroke="rgb(255, 255, 255)" stroke-width="14.88" stroke-opacity="1.00" stroke-linejoin="round"/>
<path d="M284.50,412.50 C284.50,412.50 291.50,412.50 291.50,412.50" fill="none" stroke="rgb(255, 255, 255)" stroke-width="14.88" stroke-opacity="1.00" stroke-linejoin="round"/>
<path d="M734.50,426.50 C732.81,424.66 730.34,422.45 729.50,422.50 C728.95,422.54 725.73,429.12 723.50,430.50 C721.53,431.72 719.60,433.59 718.50,435.50 C717.79,436.76 715.95,446.15 715.50,447.50 C714.61,450.02 712.97,452.64 711.50,453.50 C710.30,454.19 707.50,455.04 705.50,455.50" fill="none" stroke="rgb(255, 255, 255)" stroke-width="14.88" stroke-opacity="1.00" stroke-linejoin="round"/>
<path d="M1065.50,423.50 C1065.50,423.50 1068.50,424.50 1068.50,424.50" fill="none" stroke="rgb(255, 255, 255)" stroke-width="14.88" stroke-opacity="1.00" stroke-linejoin="round"/>
<path d="M668.50,426.50 C668.50,426.50 665.50,429.50 665.50,429.50" fill="none" stroke="rgb(255, 255, 255)" stroke-width="14.88" stroke-opacity="1.00" stroke-linejoin="round"/>
<path d="M734.50,426.50 C733.83,427.17 733.17,427.83 732.50,428.50 C731.42,429.59 729.42,431.59 728.50,432.50" fill="none" stroke="rgb(255, 255, 255)" stroke-width="14.88" stroke-opacity="1.00" stroke-linejoin="round"/>
<path d="M657.50,431.50 C656.11,429.73 655.44,429.48 652.70,429.85 C650.70,430.08 648.67,429.08 647.68,427.25 C645.89,423.80 645.36,417.58 645.77,414.58 C647.20,404.90 647.64,391.07 647.78,384.65 C647.86,366.92 648.22,323.97 648.50,321.50 C648.99,317.48 651.88,311.22 652.50,309.50 C653.30,307.27 654.38,301.34 655.83,298.40 C656.57,296.93 658.54,293.96 659.49,292.92 C660.76,291.61 662.19,291.44 663.26,292.62 C663.34,292.71 664.09,293.67 665.50,295.50 C666.16,296.38 671.16,302.51 672.50,305.50 C673.87,308.63 676.39,319.08 676.50,320.50 C676.53,320.98 670.37,341.93 669.52,345.72 C668.56,350.07 667.41,358.53 667.21,362.62 C666.89,369.67 668.85,385.82 669.50,392.50 C670.38,403.12 669.98,412.69 669.50,414.50 C668.54,417.98 664.18,422.43 663.85,424.69 C663.62,426.33 663.25,426.86 661.65,427.86 C659.84,428.99 655.79,435.56 653.60,437.19 C646.80,442.08 636.63,452.51 631.05,458.46 C624.03,466.12 614.21,478.83 610.72,485.40 C607.79,490.95 602.64,507.78 602.26,513.54 C602.19,514.64 602.12,517.29 601.91,519.51 C601.75,521.04 601.32,521.83 599.94,523.35 C598.70,524.73 598.38,525.98 598.72,528.33 C599.36,533.14 600.61,540.15 601.74,545.68 C602.73,550.38 605.48,555.92 605.50,556.50 C605.55,557.50 605.16,558.56 605.50,559.50 C605.75,560.20 608.66,561.91 609.50,563.50 C610.21,564.83 617.75,603.78 617.79,604.21 C618.28,609.98 618.33,615.93 617.50,617.50 C616.61,619.02 614.09,619.86 612.23,619.19 C610.85,618.65 608.85,616.91 608.20,615.83 C606.23,612.30 603.93,597.87 602.47,586.17 C601.06,573.58 600.43,563.75 600.50,563.50 C600.87,562.17 603.42,560.16 603.50,559.50 C603.56,559.03 602.72,558.92 602.50,558.50 C602.30,558.13 602.46,551.64 602.50,550.50" fill="none" stroke="rgb(255, 255, 255)" stroke-width="14.88" stroke-opacity="1.00" stroke-linejoin="round"/>
<path d="M726.50,427.50 C727.99,433.61 731.67,448.47 733.86,457.22 C734.78,460.53 736.96,468.37 738.46,470.81 C738.53,470.91 740.91,473.34 741.50,474.50 C742.09,475.65 742.79,478.95 743.16,479.88 C743.77,481.33 746.19,483.59 748.20,484.60 C749.58,485.26 755.14,487.42 755.50,487.50 C757.30,487.87 763.15,486.12 765.50,485.50" fill="none" stroke="rgb(255, 255, 255)" stroke-width="14.88" stroke-opacity="1.00" stroke-linejoin="round"/>
<path d="M808.50,431.50 C808.50,431.50 818.50,428.50 818.50,428.50" fill="none" stroke="rgb(255, 255, 255)" stroke-width="14.88" stroke-opacity="1.00" stroke-linejoin="round"/>
<path d="M671.50,435.50 C671.50,435.50 665.50,429.50 665.50,429.50" fill="none" stroke="rgb(255, 255, 255)" stroke-width="14.88" stroke-opacity="1.00" stroke-linejoin="round"/>
<path d="M814.50,437.50 C814.50,437.50 808.50,431.50 808.50,431.50" fill="none" stroke="rgb(255, 255, 255)" stroke-width="14.88" stroke-opacity="1.00" stroke-linejoin="round"/>
<path d="M798.50,434.50 C798.50,434.50 802.50,434.50 802.50,434.50" fill="none" stroke="rgb(255, 255, 255)" stroke-width="14.88" stroke-opacity="1.00" stroke-linejoin="round"/>
<path d="M812.50,438.50 C812.50,438.50 806.50,432.50 806.50,432.50" fill="none" stroke="rgb(255, 255, 255)" stroke-width="14.88" stroke-opacity="1.00" stroke-linejoin="round"/>
<path d="M810.50,439.50 C810.50,439.50 804.50,433.50 804.50,433.50" fill="none" stroke="rgb(255, 255, 255)" stroke-width="14.88" stroke-opacity="1.00" stroke-linejoin="round"/>
<path d="M677.50,435.50 C678.54,436.70 684.68,443.71 688.50,446.50 C692.54,449.40 704.37,454.97 705.50,455.50" fill="none" stroke="rgb(255, 255, 255)" stroke-width="14.88" stroke-opacity="1.00" stroke-linejoin="round"/>
<path d="M805.50,441.50 C804.63,440.63 802.63,438.63 801.50,437.50 C800.58,436.58 799.08,435.08 798.50,434.50" fill="none" stroke="rgb(255, 255, 255)" stroke-width="14.88" stroke-opacity="1.00" stroke-linejoin="round"/>
<path d="M808.50,440.50 C808.50,440.50 802.50,434.50 802.50,434.50" fill="none" stroke="rgb(255, 255, 255)" stroke-width="14.88" stroke-opacity="1.00" stroke-linejoin="round"/>
<path d="M990.50,436.50 C991.01,439.09 989.84,444.37 987.73,446.75 C985.42,449.28 977.91,452.66 974.76,453.57 C973.23,453.98 969.54,454.60 968.50,454.50 C966.95,454.31 964.43,452.95 963.49,451.76 C961.76,449.42 960.38,444.02 959.68,438.99 C958.85,432.28 957.25,415.46 956.49,406.55 C955.96,398.67 955.18,381.78 956.02,374.49 C956.58,369.83 960.30,357.77 963.48,351.46 C966.84,344.85 973.35,336.00 981.12,326.80 C986.82,320.30 997.50,309.39 1003.71,304.95 C1006.34,303.08 1012.78,299.25 1014.50,298.50 C1017.88,297.06 1024.58,295.67 1028.51,295.52 C1032.09,295.40 1039.57,296.17 1042.18,296.54 C1046.39,297.16 1053.81,299.39 1058.50,301.50 C1066.26,305.04 1093.28,322.99 1096.37,325.59 C1098.91,327.76 1101.46,332.11 1102.41,335.07 C1104.59,342.07 1105.77,353.06 1106.34,364.09 C1106.56,369.19 1107.42,375.53 1108.41,379.13 C1109.49,382.94 1113.13,390.54 1115.86,394.05 C1116.38,394.70 1124.37,404.23 1124.50,404.50 C1124.67,404.84 1125.01,412.38 1124.90,413.00 C1124.43,415.65 1119.37,421.84 1116.14,425.09 C1114.83,426.37 1111.93,429.22 1111.50,429.50 C1110.58,430.09 1108.09,430.37 1107.50,430.50 C1103.89,431.16 1101.00,430.36 1095.88,427.84 C1093.79,426.78 1084.99,422.14 1081.77,420.51 C1079.88,419.55 1078.65,419.40 1077.55,420.08 C1076.84,420.52 1074.80,421.86 1072.97,422.21 C1067.16,423.27 1061.93,424.99 1058.30,427.38 C1056.19,428.80 1048.41,435.07 1045.50,436.50 C1041.84,438.25 1037.65,438.85 1031.50,439.50 C1026.72,439.93 1012.54,438.06 1004.52,436.98 C1002.28,436.66 999.89,436.17 996.92,435.42 C994.98,434.95 993.95,435.06 992.49,435.77 C991.04,436.49 989.03,436.09 988.28,436.05 C986.50,435.95 983.72,436.72 981.72,437.84 C978.28,439.80 969.07,445.31 968.50,445.50 C967.49,445.82 965.08,445.42 964.50,445.50 C963.75,445.60 958.03,447.61 952.74,448.21 C942.97,449.10 930.63,449.74 924.50,448.50" fill="none" stroke="rgb(255, 255, 255)" stroke-width="14.88" stroke-opacity="1.00" stroke-linejoin="round"/>
<path d="M800.50,443.50 C799.22,442.17 797.14,440.05 796.50,439.50 C794.56,437.84 794.41,436.98 795.50,435.50" fill="none" stroke="rgb(255, 255, 255)" stroke-width="14.88" stroke-opacity="1.00" stroke-linejoin="round"/>
<path d="M215.50,447.50 C218.28,446.19 224.50,443.26 228.68,441.49 C230.62,440.70 234.05,439.97 235.23,440.36 C235.84,440.57 241.54,447.17 243.50,449.50" fill="none" stroke="rgb(255, 255, 255)" stroke-width="14.88" stroke-opacity="1.00" stroke-linejoin="round"/>
<path d="M853.50,440.50 C851.17,442.33 849.83,444.67 849.50,447.50" fill="none" stroke="rgb(255, 255, 255)" stroke-width="14.88" stroke-opacity="1.00" stroke-linejoin="round"/>
<path d="M808.50,440.50 C805.85,441.79 797.27,445.97 795.17,447.14 C791.11,449.42 784.66,454.62 782.30,458.27 C781.33,459.79 779.36,462.84 778.50,463.50 C776.74,464.83 774.14,465.60 772.50,465.50" fill="none" stroke="rgb(255, 255, 255)" stroke-width="14.88" stroke-opacity="1.00" stroke-linejoin="round"/>
<path d="M912.50,481.50 C907.65,481.36 904.10,480.86 902.64,478.84 C901.85,477.67 899.45,470.10 899.02,468.21 C897.80,462.64 900.53,449.98 900.67,448.05 C900.75,446.47 899.95,443.56 899.02,442.63 C898.50,442.12 895.53,440.94 894.50,440.50" fill="none" stroke="rgb(255, 255, 255)" stroke-width="14.88" stroke-opacity="1.00" stroke-linejoin="round"/>
<path d="M832.50,445.50 C831.04,445.98 828.99,446.87 828.50,447.50 C827.96,448.18 827.80,451.18 827.50,451.50 C826.69,452.39 823.73,454.09 823.14,455.33 C822.53,456.67 822.50,457.56 822.99,459.90 C823.65,462.99 822.91,470.35 822.56,473.09 C821.53,480.30 818.72,498.49 818.68,499.23 C818.40,503.75 818.39,549.81 817.93,562.21 C817.21,574.48 815.68,587.98 813.64,597.17 C813.00,600.14 811.51,607.41 811.50,607.50 C811.47,608.90 812.39,610.82 813.50,611.50 C817.24,613.63 833.46,613.43 840.66,613.35 C858.71,613.00 887.46,612.46 888.48,612.10 C889.79,611.61 890.68,610.20 891.29,608.11 C891.38,607.77 909.28,549.19 910.50,546.50 C912.62,541.91 916.50,538.44 917.50,537.50" fill="none" stroke="rgb(255, 255, 255)" stroke-width="14.88" stroke-opacity="1.00" stroke-linejoin="round"/>
<path d="M832.50,445.50 C833.90,447.14 835.07,447.83 837.48,448.12 C841.30,448.56 843.57,448.71 844.50,448.50 C845.44,448.29 847.69,446.93 848.00,447.00 C848.53,447.13 868.25,461.47 872.55,465.01 C879.78,470.99 889.25,481.17 893.50,486.50 C896.25,489.95 901.76,497.73 902.50,498.50 C903.63,499.66 905.37,500.91 906.50,501.50" fill="none" stroke="rgb(255, 255, 255)" stroke-width="14.88" stroke-opacity="1.00" stroke-linejoin="round"/>
<path d="M849.50,447.50 C849.15,446.88 848.82,446.55 848.50,446.50 C847.85,446.38 846.70,447.14 846.50,446.50 C846.16,445.51 847.32,444.53 847.45,443.49 C847.58,442.26 847.27,441.26 846.50,440.50 C845.66,439.68 834.56,440.74 833.50,441.50 C832.39,442.32 832.08,444.20 832.50,445.50" fill="none" stroke="rgb(255, 255, 255)" stroke-width="14.88" stroke-opacity="1.00" stroke-linejoin="round"/>
<path d="M245.50,448.50 C245.50,448.50 248.50,447.50 248.50,447.50" fill="none" stroke="rgb(255, 255, 255)" stroke-width="14.88" stroke-opacity="1.00" stroke-linejoin="round"/>
<path d="M208.50,456.50 C212.00,451.67 215.50,447.54 215.50,447.50 C215.45,446.70 214.19,443.44 214.50,441.50 C214.79,439.75 225.83,417.73 228.24,412.45 C230.36,407.69 231.89,402.77 232.11,399.06 C232.30,396.76 234.53,390.34 235.88,387.92 C237.33,385.38 241.53,382.09 244.61,381.37 C249.34,380.30 270.53,379.51 276.44,380.67 C278.31,381.06 281.35,382.22 282.88,383.15 C285.62,384.90 288.49,390.29 289.63,394.08 C291.31,399.87 292.14,415.04 292.50,422.50 C293.62,437.54 294.99,458.80 295.08,459.49 C295.54,462.69 299.05,469.42 301.86,473.01 C304.17,475.92 311.92,484.08 312.50,484.50 C313.55,485.26 317.67,487.66 318.50,488.50 C320.80,490.87 328.33,506.96 329.99,513.78 C330.25,514.86 344.70,596.26 346.87,605.87 C347.69,609.52 350.29,616.13 352.38,618.90 C353.19,619.90 355.01,622.13 355.50,622.50 C357.17,623.70 360.44,624.67 362.50,624.50 C363.14,624.43 368.69,622.91 369.30,622.63 C370.97,621.84 373.22,619.85 374.15,618.49 C376.07,615.51 377.89,610.14 378.50,604.50 C379.01,599.54 378.65,581.48 378.90,576.25 C379.30,568.39 381.51,554.60 383.80,545.55 C388.54,528.05 393.68,516.52 398.50,506.50" fill="none" stroke="rgb(255, 255, 255)" stroke-width="14.88" stroke-opacity="1.00" stroke-linejoin="round"/>
<path d="M244.50,455.50 C244.50,455.50 243.50,449.50 243.50,449.50" fill="none" stroke="rgb(255, 255, 255)" stroke-width="14.88" stroke-opacity="1.00" stroke-linejoin="round"/>
<path d="M243.50,449.50 C243.97,448.75 244.30,448.42 244.50,448.50 C245.09,448.79 246.03,453.21 245.50,454.50 C245.17,455.32 240.97,459.68 240.50,460.50 C240.05,461.31 240.74,463.95 241.47,464.66 C243.26,466.29 252.22,468.65 255.35,469.30 C259.89,470.22 270.31,472.40 270.50,472.50 C271.23,472.91 271.69,473.80 272.50,474.00 C273.17,474.17 274.89,473.47 276.76,474.06 C281.16,475.39 286.69,477.46 289.30,478.97 C291.52,480.28 296.70,484.54 298.95,487.21 C303.68,493.05 312.00,503.41 312.10,503.60 C313.63,506.32 314.61,513.35 314.84,518.23 C314.99,522.53 314.44,542.07 313.93,550.72 C312.23,572.18 308.67,588.51 305.86,599.47 C304.58,604.26 302.94,608.88 301.62,610.59 C300.67,611.77 298.86,612.88 297.32,613.29 C291.72,614.65 277.61,614.20 270.61,613.77 C267.06,613.50 259.69,612.38 256.49,611.51 C253.07,610.54 246.32,606.27 244.50,603.50 C242.39,600.13 242.55,588.72 243.55,578.25 C244.68,567.86 249.13,534.91 250.03,533.16 C250.61,532.11 252.41,530.91 253.74,530.66 C256.39,530.16 257.91,529.37 259.50,527.50 C260.95,525.74 263.57,519.09 264.99,514.13 C265.53,512.14 265.39,509.92 264.58,508.88 C264.48,508.76 263.79,508.30 262.50,507.50 C261.73,507.04 259.66,505.45 258.50,504.50" fill="none" stroke="rgb(255, 255, 255)" stroke-width="14.88" stroke-opacity="1.00" stroke-linejoin="round"/>
<path d="M251.50,531.50 C250.85,529.18 249.68,524.82 249.50,524.50 C249.33,524.21 247.90,524.45 246.50,523.42 C245.08,522.39 243.94,520.63 243.79,519.27 C243.63,517.69 242.11,516.22 241.50,515.50 C239.90,513.63 234.01,498.28 231.65,488.23 C229.88,479.91 227.53,469.14 226.38,465.59 C225.82,463.88 224.44,462.34 223.21,462.46 C222.76,462.52 213.20,467.53 212.40,467.95 C211.22,468.60 209.79,470.43 209.32,471.89 C208.55,474.47 208.51,480.63 209.28,482.93 C210.15,485.41 214.95,490.83 215.95,492.52 C219.56,498.65 230.25,530.77 232.50,537.50 C233.82,541.57 235.75,547.66 235.71,550.67 C235.63,554.70 233.62,573.07 232.62,581.37 C230.97,593.05 228.47,605.89 225.73,611.52 C225.01,612.91 223.37,614.75 222.29,615.23 C221.23,615.68 210.79,615.19 209.54,615.06 C207.13,614.77 204.17,613.26 202.50,611.50 C199.80,608.51 194.82,592.06 194.50,591.50 C193.68,590.06 191.26,588.15 191.00,587.50 C190.74,586.86 191.55,583.73 191.50,583.50 C191.36,582.77 190.40,581.17 190.44,579.03 C190.45,578.74 190.35,554.97 190.37,545.76 C190.49,535.95 191.14,533.54 191.50,532.50" fill="none" stroke="rgb(255, 255, 255)" stroke-width="14.88" stroke-opacity="1.00" stroke-linejoin="round"/>
<path d="M1057.50,524.50 C1059.23,523.05 1059.69,522.11 1059.37,520.07 C1058.95,516.47 1057.82,508.26 1056.77,504.45 C1055.61,500.40 1052.35,493.24 1050.04,489.66 C1045.59,482.83 1035.06,470.57 1031.50,468.50 C1029.79,467.54 1027.52,466.95 1025.83,467.03 C1024.36,467.15 1022.02,468.15 1020.50,469.31 C1018.98,470.52 1018.17,472.22 1018.29,473.64 C1018.36,474.26 1018.36,476.76 1018.30,477.39 C1018.21,478.77 1018.64,479.82 1019.99,481.60 C1030.38,495.28 1048.63,518.67 1049.50,519.50 C1051.52,521.41 1057.49,523.98 1059.76,527.04 C1060.74,528.39 1063.03,532.35 1063.50,533.50 C1064.03,534.83 1064.79,539.97 1066.53,544.00 C1068.05,547.44 1071.98,555.62 1072.98,558.10 C1074.56,562.04 1076.42,568.97 1076.87,572.58 C1077.53,578.13 1076.23,593.34 1074.03,601.38 C1073.06,604.85 1070.37,612.17 1068.47,615.06 C1066.74,617.62 1061.56,621.69 1058.59,622.73 C1055.61,623.74 1049.30,624.67 1046.94,624.28 C1040.42,622.78 1027.35,621.56 1019.96,620.92 C994.03,618.89 979.96,617.04 973.18,615.17 C971.17,614.58 968.54,610.55 966.47,609.29 C964.95,608.34 964.32,607.14 964.14,604.90 C962.80,588.73 961.50,568.97 960.87,565.88 C960.47,563.86 961.66,558.03 961.31,555.19 C960.89,551.49 958.50,533.50 957.71,525.34 C957.18,517.98 956.57,509.56 956.50,508.50" fill="none" stroke="rgb(255, 255, 255)" stroke-width="14.88" stroke-opacity="1.00" stroke-linejoin="round"/>
<path d="M306.50,463.50 C306.44,461.64 307.41,458.24 307.88,455.15 C309.81,442.32 311.54,432.42 313.52,425.88 C314.61,422.35 317.33,415.61 318.50,413.50 C320.63,409.73 325.98,403.68 328.50,401.50 C331.03,399.35 337.77,395.13 340.50,394.50 C343.28,393.92 349.90,395.01 354.50,396.50 C355.79,396.93 365.75,400.84 368.52,402.16 C372.37,404.02 378.01,408.01 380.02,410.83 C382.56,414.49 390.45,430.38 390.95,432.99 C391.46,435.77 392.98,453.39 392.13,460.21 C391.61,464.21 390.00,471.24 388.78,474.16 C388.11,475.66 386.32,478.05 385.12,478.90 C383.96,479.68 380.96,480.25 379.34,480.12 C377.78,479.96 375.04,478.95 373.79,478.08 C373.71,478.02 369.39,474.48 368.16,473.88 C362.75,471.30 349.88,471.84 344.83,472.24 C342.77,472.36 341.95,473.36 341.50,473.50 C341.34,473.55 331.35,471.43 329.50,470.50 C327.92,469.67 326.15,467.90 325.51,466.48 C324.45,463.96 323.50,457.13 323.44,453.56 C323.39,449.81 324.34,441.84 324.97,438.38 C325.77,434.02 327.68,427.57 329.05,424.99 C330.65,422.10 335.49,417.74 339.41,415.37 C341.51,414.13 344.63,412.65 346.44,412.07 C348.25,411.53 351.25,411.51 352.88,412.08 C354.41,412.67 357.12,415.10 358.01,416.69 C359.55,419.62 360.34,426.49 360.23,429.36 C359.80,437.57 361.27,451.74 363.71,462.05 C364.18,464.07 365.75,471.16 365.50,471.50 C364.78,472.46 363.37,472.68 362.50,473.50 C362.37,473.62 362.21,476.88 361.50,478.50 C361.12,479.38 353.06,489.44 352.50,490.50 C351.87,491.68 349.85,496.92 349.50,497.50 C348.72,498.80 343.47,503.61 342.50,504.50" fill="none" stroke="rgb(255, 255, 255)" stroke-width="14.88" stroke-opacity="1.00" stroke-linejoin="round"/>
<path d="M272.50,473.50 C271.60,474.07 270.24,475.76 269.50,477.50 C268.98,478.75 264.94,496.58 265.00,497.00 C265.10,497.65 266.34,500.26 266.50,501.50 C266.66,502.77 265.69,508.44 265.50,509.50" fill="none" stroke="rgb(255, 255, 255)" stroke-width="14.88" stroke-opacity="1.00" stroke-linejoin="round"/>
<path d="M1197.50,476.50 C1186.32,490.06 1178.38,503.76 1177.50,504.50 C1176.11,505.66 1173.89,506.46 1172.50,506.50" fill="none" stroke="rgb(255, 255, 255)" stroke-width="14.88" stroke-opacity="1.00" stroke-linejoin="round"/>
<path d="M352.50,495.50 C356.62,494.76 359.94,493.96 363.48,491.36 C365.43,489.94 367.51,489.10 369.37,489.03 C372.39,488.98 379.72,489.93 383.90,490.82 C386.00,491.25 388.48,492.51 388.50,492.50 C389.39,492.19 389.67,490.95 390.50,490.50 C391.20,490.12 395.35,491.01 396.50,491.50 C397.76,492.11 399.24,494.04 399.50,495.50 C399.71,496.81 399.65,500.16 399.50,502.50" fill="none" stroke="rgb(255, 255, 255)" stroke-width="14.88" stroke-opacity="1.00" stroke-linejoin="round"/>
<path d="M495.50,490.50 C495.50,490.50 492.50,487.50 492.50,487.50" fill="none" stroke="rgb(255, 255, 255)" stroke-width="14.88" stroke-opacity="1.00" stroke-linejoin="round"/>
<path d="M653.50,491.50 C656.06,498.36 661.79,514.05 663.38,521.09 C664.56,526.45 667.24,574.07 667.50,574.50 C667.99,575.30 668.98,575.72 669.50,576.50 C669.75,576.88 671.18,588.99 671.50,590.50 C672.34,594.27 675.24,598.55 677.83,600.40 C680.63,602.33 687.99,604.08 693.38,604.66 C695.20,604.85 700.58,605.25 701.83,605.37 C703.69,605.55 707.06,604.29 712.06,604.18 C713.26,604.16 714.08,604.27 714.50,604.50 C715.56,605.06 716.36,606.14 717.50,606.50 C718.10,606.69 722.10,605.14 723.95,604.44 C726.17,603.54 726.84,603.46 728.00,604.00 C729.28,604.61 732.66,605.45 734.50,605.50 C735.71,605.53 745.53,602.88 746.02,602.58 C747.58,601.59 748.72,598.97 748.86,596.75 C749.47,587.99 749.68,565.82 749.50,565.50 C749.04,564.68 747.99,564.31 747.50,563.50 C747.19,562.99 748.39,560.13 748.50,557.50 C748.59,555.59 746.67,539.86 746.50,538.50" fill="none" stroke="rgb(255, 255, 255)" stroke-width="14.88" stroke-opacity="1.00" stroke-linejoin="round"/>
<path d="M6.50,614.50 C17.71,612.32 27.21,611.06 33.98,611.55 C39.37,611.85 53.86,609.92 60.50,608.50 C64.96,607.54 73.22,605.13 74.50,604.50 C76.27,603.60 78.57,601.78 79.50,600.50 C81.24,598.01 83.15,592.64 83.83,589.19 C84.70,584.69 83.65,563.82 83.65,561.13 C83.66,553.60 86.26,536.99 88.42,528.44 C90.63,519.78 94.36,508.67 94.50,508.50 C95.46,507.42 99.53,505.24 100.50,505.50 C101.62,505.86 102.68,507.86 103.31,510.26 C104.04,513.27 107.20,523.31 108.50,525.50 C109.94,527.85 111.75,529.44 114.02,530.43 C114.52,530.63 118.89,532.47 119.68,532.50 C121.12,532.51 122.90,531.19 123.98,529.61 C131.49,518.03 136.95,510.24 141.99,506.18 C144.01,504.57 150.67,500.48 152.50,499.50 C156.11,497.60 160.96,495.96 164.50,495.50 C166.76,495.22 174.86,494.95 177.99,494.77 C181.21,494.57 183.71,493.23 184.50,492.50" fill="none" stroke="rgb(255, 255, 255)" stroke-width="14.88" stroke-opacity="1.00" stroke-linejoin="round"/>
<path d="M184.50,492.50 C186.16,494.82 187.00,496.54 186.95,498.12 C186.87,499.85 186.24,502.53 185.50,504.21 C184.56,506.23 182.90,508.52 181.50,509.50 C180.05,510.48 177.53,511.33 174.16,512.11 C171.94,512.58 170.21,511.74 169.50,511.50 C169.16,511.38 163.80,511.35 163.64,511.36 C161.23,511.50 157.61,512.45 155.50,513.50 C153.17,514.71 148.06,519.41 144.71,523.25 C139.49,529.29 129.98,542.67 127.30,548.94 C124.70,555.11 121.18,568.42 118.87,579.53 C116.82,590.69 115.28,604.68 116.53,610.75 C116.85,612.15 117.89,614.74 118.50,615.50 C119.33,616.46 121.48,617.58 122.76,617.69 C123.07,617.71 141.97,617.48 153.82,617.97 C157.54,618.13 166.20,618.53 166.50,618.50 C166.98,618.46 174.88,616.96 175.54,616.56 C176.81,615.77 179.11,612.66 179.94,610.91 C180.68,609.25 186.68,592.73 188.72,589.55 C189.99,587.55 190.20,586.78 189.87,585.40 C189.44,583.82 189.59,582.99 190.50,581.50" fill="none" stroke="rgb(255, 255, 255)" stroke-width="14.88" stroke-opacity="1.00" stroke-linejoin="round"/>
<path d="M388.50,492.50 C389.36,494.61 391.09,499.01 391.50,499.50 C391.98,500.07 394.07,500.81 395.54,502.31 C397.00,503.77 397.87,505.05 398.50,506.50" fill="none" stroke="rgb(255, 255, 255)" stroke-width="14.88" stroke-opacity="1.00" stroke-linejoin="round"/>
<path d="M470.50,496.50 C471.64,495.74 472.30,495.40 472.50,495.50 C472.70,495.60 472.70,496.27 472.50,497.50" fill="none" stroke="rgb(255, 255, 255)" stroke-width="14.88" stroke-opacity="1.00" stroke-linejoin="round"/>
<path d="M598.50,525.50 C596.73,524.93 594.20,523.99 593.50,523.50 C593.44,523.46 590.84,520.57 589.50,519.50 C588.83,518.96 578.70,512.76 576.20,510.89 C574.47,509.55 571.57,506.33 570.72,504.60 C569.96,502.99 569.90,499.35 570.50,498.50 C571.44,497.34 578.12,497.71 581.92,496.82 C583.91,496.38 585.39,496.70 586.72,497.84 C587.33,498.39 588.99,499.85 590.50,500.50" fill="none" stroke="rgb(255, 255, 255)" stroke-width="14.88" stroke-opacity="1.00" stroke-linejoin="round"/>
<path d="M470.50,497.50 C469.34,499.43 465.71,502.07 460.72,504.85 C456.93,506.85 449.92,510.75 447.45,512.76 C445.22,514.59 441.54,519.30 440.13,521.78 C438.20,525.27 436.48,530.34 435.50,537.50 C434.90,542.09 431.60,589.19 430.35,599.83 C429.64,604.90 428.12,611.27 426.18,613.99 C425.70,614.65 420.27,619.83 418.36,620.30 C417.71,620.44 415.17,620.52 414.53,620.39 C413.25,620.09 412.17,619.23 411.34,617.85 C409.17,614.21 407.29,609.46 406.50,603.50 C405.56,596.06 404.29,515.23 403.84,511.26 C403.60,509.03 401.55,507.11 400.50,506.50" fill="none" stroke="rgb(255, 255, 255)" stroke-width="14.88" stroke-opacity="1.00" stroke-linejoin="round"/>
<path d="M264.50,498.50 C262.70,498.71 260.16,500.29 258.50,502.50 C257.61,503.70 255.37,512.05 254.43,515.70 C253.33,519.66 250.61,523.61 249.50,524.50" fill="none" stroke="rgb(255, 255, 255)" stroke-width="14.88" stroke-opacity="1.00" stroke-linejoin="round"/>
<path d="M400.50,506.50 C400.50,506.50 399.50,502.50 399.50,502.50" fill="none" stroke="rgb(255, 255, 255)" stroke-width="14.88" stroke-opacity="1.00" stroke-linejoin="round"/>
<path d="M1063.50,532.50 C1066.11,530.82 1071.43,529.56 1071.50,529.50 C1073.66,527.77 1078.25,514.53 1081.43,503.65 C1083.73,495.35 1088.61,478.17 1090.50,473.50 C1092.69,468.18 1095.82,463.40 1098.33,461.06 C1101.15,458.49 1104.80,455.84 1108.25,453.97 C1111.72,452.13 1118.23,450.35 1121.74,450.40 C1125.58,450.51 1132.75,451.67 1136.51,452.95 C1140.15,454.22 1146.71,457.62 1149.81,459.52 C1153.78,461.98 1159.02,466.34 1161.38,469.38 C1163.64,472.36 1166.91,479.59 1167.85,483.51 C1168.50,486.30 1170.47,499.93 1170.28,502.86 C1170.22,503.98 1171.29,505.32 1171.58,505.81 C1172.29,507.02 1172.61,509.30 1172.34,511.57 C1171.90,515.07 1170.71,522.18 1170.50,522.50 C1170.24,522.89 1169.30,523.07 1169.50,523.50 C1169.92,524.35 1171.02,524.69 1171.50,525.50 C1171.65,525.75 1170.75,545.72 1170.17,553.91 C1169.50,561.50 1167.44,577.97 1166.38,582.80 C1164.85,589.63 1160.00,603.97 1155.99,613.60 C1153.87,618.52 1150.71,625.27 1150.50,625.50 C1149.76,626.31 1147.73,627.20 1146.50,627.50" fill="none" stroke="rgb(255, 255, 255)" stroke-width="14.88" stroke-opacity="1.00" stroke-linejoin="round"/>
<path d="M907.50,511.50 C909.11,512.23 911.01,515.33 913.09,520.71 C913.75,522.44 915.13,526.05 915.50,526.50 C916.10,527.23 917.04,527.68 917.50,528.50 C917.72,528.90 917.43,533.01 917.36,534.12 C917.21,536.11 917.81,536.90 919.50,537.50" fill="none" stroke="rgb(255, 255, 255)" stroke-width="14.88" stroke-opacity="1.00" stroke-linejoin="round"/>
<path d="M956.50,513.50 C955.05,517.38 954.03,521.39 954.16,523.75 C954.33,526.42 957.25,546.80 958.57,555.71 C959.48,561.44 959.69,562.07 960.50,563.50" fill="none" stroke="rgb(255, 255, 255)" stroke-width="14.88" stroke-opacity="1.00" stroke-linejoin="round"/>
<path d="M1169.50,523.50 C1165.45,526.29 1162.85,528.62 1161.16,531.89 C1158.06,537.87 1149.86,555.36 1147.24,562.05 C1143.64,571.29 1140.38,584.20 1139.08,594.20 C1138.53,598.86 1138.37,602.77 1138.90,605.82 C1140.00,612.35 1141.96,624.77 1142.50,625.50 C1143.28,626.54 1146.49,627.47 1146.50,627.50 C1146.64,627.81 1146.64,628.81 1146.50,630.50" fill="none" stroke="rgb(255, 255, 255)" stroke-width="14.88" stroke-opacity="1.00" stroke-linejoin="round"/>
<path d="M964.50,607.50 C961.24,612.02 958.93,614.60 956.35,615.58 C953.85,616.42 947.55,615.82 943.42,614.82 C939.56,613.86 932.04,611.59 928.08,610.36 C922.87,608.67 919.68,607.14 918.50,605.50 C917.44,603.91 917.52,601.09 918.34,595.86 C920.06,585.71 920.90,573.58 920.59,565.25 C920.31,557.70 921.71,539.83 921.50,539.50 C920.99,538.71 919.87,538.37 919.50,537.50 C919.32,537.07 920.27,536.91 920.50,536.50 C920.70,536.16 920.31,531.82 920.28,531.04 C920.21,529.31 920.86,527.51 921.97,526.22 C922.47,525.64 923.86,523.92 923.95,522.76 C924.30,517.28 928.02,498.99 929.50,494.50 C931.08,489.81 934.94,482.70 936.50,480.50 C938.52,477.77 943.14,475.08 947.18,473.28 C958.27,468.39 970.92,463.36 976.19,462.77 C979.44,462.41 985.56,460.57 989.12,459.09 C998.50,455.12 1002.12,451.35 1002.78,451.07 C1004.83,450.28 1014.01,451.00 1017.04,451.40 C1030.91,453.33 1037.22,454.01 1042.57,453.18 C1045.08,452.77 1049.41,449.89 1053.25,446.76 C1056.75,443.82 1061.87,438.76 1063.50,436.50 C1066.02,432.94 1068.15,425.74 1068.50,424.50" fill="none" stroke="rgb(255, 255, 255)" stroke-width="14.88" stroke-opacity="1.00" stroke-linejoin="round"/>
<path d="M665.50,541.50 C664.65,542.91 664.41,543.90 664.48,546.27 C664.61,555.14 664.70,567.88 664.66,571.75 C664.64,574.11 664.37,574.88 663.08,576.28 C661.88,577.58 661.21,579.21 661.07,581.38 C660.92,584.03 660.63,592.22 659.84,594.50 C659.30,596.12 661.23,604.14 662.46,608.55 C663.18,611.02 664.07,612.30 665.26,612.49 C666.00,612.57 668.16,612.55 669.25,613.06 C672.89,614.69 677.90,615.57 682.66,615.56 C691.26,615.47 710.41,613.85 714.01,611.97 C714.16,611.89 716.99,609.32 718.50,608.50 C719.92,607.73 723.05,606.68 725.10,606.21 C727.23,605.70 727.96,605.14 728.00,604.00 C728.03,601.66 729.64,599.29 733.91,594.79 C736.84,591.68 739.56,584.72 740.11,580.78 C740.32,579.20 741.29,568.07 741.50,567.50 C742.14,565.77 744.47,564.11 744.50,563.50 C744.53,563.03 743.67,562.94 743.50,562.50 C743.39,562.21 745.31,550.66 745.50,548.50 C745.69,546.33 745.66,544.01 745.49,542.31 C745.33,540.96 746.52,539.25 746.50,538.50 C746.50,538.03 745.73,537.91 745.50,537.50 C745.35,537.22 746.66,530.85 746.35,526.55 C745.99,521.96 745.02,513.03 744.65,510.36 C742.87,498.75 739.72,492.93 740.00,492.50 C740.61,491.62 741.92,491.40 742.50,490.50 C742.80,490.06 742.24,485.49 742.50,484.50 C742.71,483.64 745.33,480.79 745.50,480.50 C745.91,479.76 746.01,477.25 745.50,476.50 C744.17,474.57 743.50,473.57 743.50,473.50 C743.52,472.30 744.93,471.56 745.50,470.50 C745.91,469.74 744.27,447.09 743.47,445.01 C740.39,437.15 736.75,428.47 734.50,426.50" fill="none" stroke="rgb(255, 255, 255)" stroke-width="14.88" stroke-opacity="1.00" stroke-linejoin="round"/>
<path d="M588.50,542.50 C589.43,543.48 592.32,546.54 593.06,547.37 C594.42,548.92 594.58,550.25 593.53,551.09 C592.87,551.59 591.20,552.83 591.06,554.10 C589.90,566.26 589.08,570.85 586.35,582.59 C583.30,594.95 578.96,608.74 575.86,612.74 C574.58,614.34 572.56,615.26 570.40,615.53 C569.22,615.64 548.68,618.92 544.74,619.21 C537.99,619.67 520.34,618.67 511.50,617.91 C503.11,617.06 491.54,615.53 491.50,615.50 C490.21,614.72 489.46,612.24 489.50,609.50 C489.88,594.55 490.66,552.79 490.15,547.91 C489.71,544.44 488.40,539.04 486.50,537.50 C486.45,537.46 481.77,534.54 480.50,533.50 C479.74,532.86 478.33,530.69 478.08,529.65 C477.17,525.67 477.67,503.52 477.65,503.41 C477.38,502.24 471.41,496.51 468.41,493.63 C466.85,492.08 465.93,490.51 466.22,489.60 C466.50,488.83 467.81,486.95 468.39,485.16 C472.32,473.26 475.02,466.39 476.12,460.52 C477.31,453.01 479.63,439.71 481.49,433.12 C482.55,429.44 485.91,422.93 488.50,419.50 C492.47,414.34 505.83,403.11 512.74,399.03 C516.61,396.78 523.62,393.71 527.90,392.55 C531.80,391.53 539.61,390.69 543.64,390.52 C548.54,390.40 554.16,391.03 556.50,392.60 C557.27,393.14 563.72,398.42 565.94,400.34 C569.96,403.69 573.61,407.72 575.50,411.50 C577.94,416.52 580.82,432.88 581.50,441.50 C582.05,448.61 582.18,464.91 582.36,472.14 C582.89,483.28 584.00,492.48 584.50,496.50" fill="none" stroke="rgb(255, 255, 255)" stroke-width="14.88" stroke-opacity="1.00" stroke-linejoin="round"/>
<path d="M601.50,547.50 C603.35,548.06 603.65,548.94 602.50,550.50" fill="none" stroke="rgb(255, 255, 255)" stroke-width="14.88" stroke-opacity="1.00" stroke-linejoin="round"/>
<path d="M600.50,548.50 C600.50,548.50 594.50,549.50 594.50,549.50" fill="none" stroke="rgb(255, 255, 255)" stroke-width="14.88" stroke-opacity="1.00" stroke-linejoin="round"/>
<path d="M710.50,612.50 C710.50,612.50 704.50,605.50 704.50,605.50" fill="none" stroke="rgb(255, 255, 255)" stroke-width="14.88" stroke-opacity="1.00" stroke-linejoin="round"/>
</g>
</svg>
