<?xml version="1.0" encoding="utf-8"?>
<!-- Generator: Adobe Illustrator 26.0.3, SVG Export Plug-In . SVG Version: 6.00 Build 0)  -->
<svg version="1.1" id="Layer_1" xmlns="http://www.w3.org/2000/svg" xmlns:xlink="http://www.w3.org/1999/xlink" x="0px" y="0px"
	 viewBox="0 0 1503.43 1434.75" style="enable-background:new 0 0 1503.43 1434.75;" xml:space="preserve">
<style type="text/css">
	.st0{fill-rule:evenodd;clip-rule:evenodd;fill:#FFFFFF;}
	
		.st1{fill-rule:evenodd;clip-rule:evenodd;fill:none;stroke:#000000;stroke-width:8.3999;stroke-linecap:round;stroke-linejoin:round;stroke-miterlimit:22.9256;}
</style>
<rect class="st0" width="1503.43" height="1434.75"/>
<path class="st1" d="M971.23,1278.05c78.96-77.14,157.92-154.28,237.33-273.48c79.41-119.2,159.28-280.46,182.57-439.27
	c23.29-158.82-10-315.19-94.6-408.02c-84.6-92.82-220.51-122.1-320.62-108.18C875.8,63.03,811.49,120.15,764.83,171.37
	c-46.67,51.22-75.69,96.53-85.62,135.9c-9.94,39.38-0.79,72.81,20.12,84.47c20.91,11.65,53.58,1.52,52.36-49.19
	c-1.22-50.71-36.32-141.99-113.65-197.83C560.7,88.87,441.15,68.45,335.57,95.17C230,121.88,138.41,195.71,102.83,320.75
	c-35.58,125.04-15.15,301.28,59.63,470.77c74.78,169.48,203.91,332.21,323.01,428.31c119.1,96.1,228.17,125.57,281.25,111.82
	c53.08-13.75,50.18-70.74,49.63-110.62c-0.54-39.88,1.27-62.67,6.5-81.45c5.22-18.79,13.86-33.58,30.35-53.47
	c16.49-19.89,40.84-44.89,54.4-63.88c13.55-18.98,16.31-31.95,21.55-46.61c5.24-14.66,12.96-31.01,18.51-45.18
	c5.54-14.18,8.91-26.17,12.6-34.36c3.69-8.19,7.71-12.57,11.39-16.98c3.68-4.41,7.01-8.84,8.27-15.28
	c1.26-6.43,0.44-14.87,0.18-20.91c-0.26-6.04,0.03-9.69,6.65-17.18c6.62-7.5,19.56-18.85,26.9-26.8c7.34-7.96,9.08-12.52,8.42-15.03
	c-0.66-2.52-3.72-2.99-7.28-3.58c-3.56-0.59-7.63-1.28-12.77,2.13c-5.14,3.42-11.36,10.94-14.74,15.95c-3.38,5-3.92,7.48-2.49,8.92
	c1.43,1.43,4.84,1.82,8.36-1.34c3.52-3.16,7.15-9.86,13.25-15.15c6.1-5.29,14.66-9.16,16.21-13.61c1.56-4.45-3.89-9.47-10.1-12.14
	c-6.21-2.67-13.17-3-21.49-2.23c-8.32,0.77-17.98,2.64-28.94,8.47c-10.96,5.83-23.2,15.63-32.54,27.04
	c-9.34,11.41-15.76,24.42-21.47,37.04c-5.71,12.61-10.69,24.83-14.7,33.34c-4,8.51-7.02,13.31-9.88,17.55
	c-2.86,4.24-5.56,7.93-6.91,9.77c-1.35,1.84-1.35,1.84-3.34-1.93c-1.99-3.77-5.98-11.31-9.53-25.64
	c-3.56-14.33-6.69-35.44-7.89-63.51c-1.2-28.07-0.47-63.09,1.24-98.84c1.71-35.75,4.39-72.22,1.09-104.13
	c-3.3-31.91-12.58-59.25-21.9-74.66c-9.32-15.42-18.67-18.92-27.55-15.38c-8.88,3.53-17.29,14.1-20.18,28.77
	c-2.89,14.67-0.26,33.46,0.6,52.79c0.86,19.33-0.03,39.21-2.11,66.67c-2.08,27.46-5.33,62.52-9.58,81.32
	c-4.25,18.81-9.5,21.37-11.64,16.61c-2.14-4.76-1.18-16.83,0.46-31.61c1.64-14.77,3.95-32.24,5.85-47.46
	c1.9-15.21,3.39-28.16,1.17-41.98c-2.22-13.82-8.16-28.51-11.59-50.11c-3.44-21.6-4.37-50.11-8.02-70.46
	c-3.65-20.35-10.01-32.56-19.77-35.28c-9.76-2.73-22.91,4.02-29.75,12.19c-6.84,8.17-7.38,17.76-6.37,35.26
	c1.01,17.51,3.57,42.93,6.08,66.06c2.51,23.13,4.98,43.96,4.34,70.63c-0.64,26.66-4.38,59.15-7.72,78.03
	c-3.34,18.88-6.28,24.15-7.07,22.48c-0.78-1.67,0.59-10.27,1.31-23.63c0.72-13.36,0.79-31.47-2.04-49.12
	c-2.83-17.65-8.57-34.85-11.2-57.87c-2.63-23.03-2.17-51.88-6.38-70.9c-4.21-19.02-13.11-28.22-22.17-31.12
	c-9.06-2.9-18.27,0.49-24.12,12.06c-5.85,11.57-8.35,31.32-4.5,63.61c3.84,32.29,14.02,77.13,13.97,115.19
	c-0.06,38.06-10.35,69.34-17.25,84.04c-6.91,14.7-10.42,12.81-13.05,8.36c-2.63-4.45-4.36-11.47-9.33-28.89
	c-4.97-17.42-13.19-45.25-16.86-71.74c-3.68-26.49-2.82-51.64-10.27-66c-7.45-14.35-23.22-17.9-33.67-9.05
	c-10.45,8.85-15.59,30.11-12.81,63.58c2.78,33.47,13.46,79.15,16.14,128.15c2.68,49-2.64,101.31,8.01,154.61
	c10.65,53.3,37.27,107.59,51.65,153.74c14.37,46.15,16.5,84.15,13.57,120.78c-2.93,36.63-10.92,71.87-18.91,107.12"/>
</svg>
