<?xml version="1.0" encoding="UTF-8" standalone="no"?>
<!DOCTYPE svg PUBLIC "-//W3C//DTD SVG 1.1//EN" "http://www.w3.org/Graphics/SVG/1.1/DTD/svg11.dtd">
<svg width="72.00" height="60.00" viewBox="0.00 0.00 1200.00 1000.00" xmlns="http://www.w3.org/2000/svg" xmlns:xlink="http://www.w3.org/1999/xlink">
<g stroke-linecap="round" id="Layer_2">
<path d="M-67.72,602.24 C-67.56,602.19 -67.42,602.02 -67.30,601.73 C-67.07,601.15 -64.18,592.01 -62.11,588.66 C-60.31,585.79 -35.74,551.98 -25.89,539.24 C-16.65,527.54 0.02,507.39 11.75,494.41 C22.39,482.98 42.07,463.13 56.10,450.30 C64.38,442.89 85.40,425.63 101.50,413.36 C110.73,406.55 138.93,387.30 151.12,379.55 C163.71,371.82 190.22,356.57 203.66,349.29 C216.61,342.60 243.35,329.55 257.30,323.16 C271.46,316.89 300.81,304.83 315.75,298.86 C330.05,293.59 358.58,283.44 372.81,278.56 C387.05,274.00 415.71,265.12 430.14,260.81 C460.43,252.41 519.74,237.53 549.20,230.91 C564.10,227.78 594.76,221.58 610.51,218.51 C626.03,215.71 657.09,210.34 672.62,207.78 C687.91,205.46 718.52,201.05 733.83,198.94 C764.61,195.12 827.33,188.66 857.78,186.18 C888.22,184.06 949.24,181.16 980.79,180.38 C996.82,180.22 1028.55,180.15 1044.24,180.24 C1059.89,180.56 1091.25,181.47 1106.97,182.06 C1123.02,182.93 1154.68,184.89 1170.28,185.97 C1185.64,187.26 1214.84,189.85 1228.68,191.15 C1256.66,194.23 1321.35,203.02 1353.85,207.59 C1368.94,209.85 1386.05,212.44 1388.07,212.76" fill="none" stroke="rgb(139, 210, 196)" stroke-width="28.70" stroke-opacity="1.00" stroke-linejoin="round"/>
<path d="M-19.10,475.99 C-18.20,474.06 -16.19,469.80 -13.83,466.54 C-6.39,456.35 5.72,443.69 23.34,427.18 C36.26,415.17 64.23,389.32 69.99,384.80 C95.00,365.31 142.11,328.15 166.71,309.34 C172.81,304.74 180.60,299.92 187.75,296.03 C201.25,288.76 229.94,273.60 245.12,265.71 C266.53,255.24 287.38,245.98 295.44,242.43 C275.56,254.52 263.66,262.96 261.11,265.99 C261.11,265.99 264.52,267.43 264.52,267.43 C264.52,267.43 261.02,268.30 261.02,268.30 C261.02,268.30 216.49,296.65 216.49,296.65 C229.84,289.98 254.00,278.21 270.54,271.24 C300.28,259.31 376.98,228.72 386.81,225.36 C398.24,221.70 433.26,213.69 444.14,210.80 C459.15,206.51 492.98,195.98 503.69,192.98 C511.39,191.00 527.32,187.37 535.07,185.83 C547.00,183.68 580.07,179.22 594.56,176.27 C606.07,173.70 637.82,165.15 651.22,161.42 C661.50,158.68 695.06,153.30 711.15,150.82 C727.22,148.47 758.70,144.07 774.11,142.02 C789.08,140.45 823.94,137.65 834.80,137.23 C847.85,136.94 879.40,133.44 895.54,131.48 C902.57,130.73 917.36,129.57 927.16,129.36 C934.76,129.34 969.09,131.09 984.86,131.50 C1001.40,131.74 1043.20,132.35 1047.85,132.56 C1054.61,133.01 1089.15,136.04 1108.08,136.76 C1123.77,137.17 1153.45,138.31 1169.12,140.11 C1185.45,142.30 1204.46,144.88 1207.14,145.26 C1208.57,145.47 1209.67,145.22 1211.37,144.45 C1210.49,141.48 1203.38,126.05 1200.69,118.83 C1198.12,111.89 1183.86,64.49 1182.83,59.37 C1180.92,49.60 1182.00,25.62 1183.60,11.43 C1183.60,11.43 1181.70,27.83 1181.70,27.83 C1179.91,26.43 1173.81,21.11 1170.97,19.59 C1167.23,17.64 1161.74,15.57 1158.33,14.78 C1151.95,13.34 1138.18,11.88 1129.69,11.72 C1116.65,11.62 1086.49,12.67 1068.04,14.22 C1052.66,15.79 1022.42,18.70 1007.89,19.77 C992.68,20.56 965.27,21.00 945.86,20.40 C933.65,19.93 930.40,20.14 918.73,21.60 C910.49,22.66 895.40,24.53 888.53,25.34 C858.08,27.39 794.08,31.71 760.54,33.97 C745.46,34.81 708.34,36.30 695.41,36.15 C682.05,35.91 662.25,35.53 643.51,34.05 C626.84,32.76 595.96,31.31 580.25,30.79 C565.42,30.43 534.16,29.75 517.77,29.65 C501.87,29.86 468.48,31.50 452.30,32.54 C436.87,33.46 406.87,34.86 393.50,34.58 C378.70,33.96 354.02,31.36 338.53,29.88 C322.83,28.60 291.22,26.31 274.72,25.59 C244.76,25.00 183.34,26.91 151.78,27.03 C135.70,26.86 104.76,26.29 89.89,25.90 C77.63,25.25 69.62,24.42 60.24,23.18 C49.03,21.47 42.07,20.81 32.14,21.41 C29.09,21.60 27.13,21.77 25.66,22.00 C24.31,22.24 23.19,23.09 22.87,24.12 C22.42,25.74 23.98,39.61 24.63,52.38 C25.07,67.92 25.29,103.15 24.07,112.43 C23.16,118.77 21.01,133.60 20.48,140.02 C19.96,146.48 19.83,159.31 20.10,168.49 C20.69,179.69 25.13,222.81 25.51,227.51 C26.43,241.24 26.86,273.54 26.89,289.59 C26.72,306.12 27.17,336.96 28.46,353.26 C28.92,360.28 29.93,380.56 29.94,381.26 C29.98,382.99 30.46,384.67 31.30,385.51 C32.40,386.52 34.67,386.12 36.65,384.69 C39.95,382.20 50.21,368.90 53.59,363.50 C58.72,355.03 71.77,332.07 81.82,310.95 C88.76,295.24 102.08,264.38 108.45,249.23 C114.72,232.95 125.81,200.33 127.50,193.18 C129.01,186.70 131.03,171.24 131.93,163.12 C132.63,155.21 133.01,140.45 132.69,133.57 C132.31,126.21 129.04,112.46 126.52,108.09 C124.37,104.40 111.58,88.55 108.58,85.02 C105.56,81.48 102.04,78.03 99.37,76.23 C93.96,72.62 86.29,69.69 84.85,70.02 C83.72,70.34 82.67,71.49 81.93,73.16 C80.39,76.82 79.75,80.40 79.42,84.54 C78.69,95.46 79.10,165.77 79.34,181.84 C79.72,191.95 81.11,202.58 82.77,208.90 C83.67,212.29 86.03,219.63 86.90,221.76 C88.03,224.51 95.19,238.68 98.55,247.05 C100.04,250.74 102.96,257.55 105.07,259.81 C106.35,261.13 112.93,264.03 116.57,264.74 C119.40,265.26 122.21,265.67 123.33,265.62 C126.09,265.45 131.17,261.79 134.65,259.09 C141.61,253.58 146.53,248.39 153.96,239.27 C159.93,231.66 165.89,222.16 170.27,214.07 C173.80,207.32 180.31,192.94 182.23,188.21 C184.77,181.66 189.45,168.42 191.60,161.67 C192.92,157.36 196.97,141.29 198.21,134.52 C199.49,127.20 200.78,113.09 200.62,107.82 C200.49,104.23 199.27,94.19 199.13,93.25 C198.57,89.73 196.24,83.83 194.50,80.00 C192.83,76.37 189.76,71.68 186.84,68.43 C185.81,67.29 179.33,60.65 177.71,58.92 C175.03,56.02 171.49,51.13 170.54,48.76 C169.28,45.48 169.08,42.30 169.08,39.89 C170.70,38.53 171.84,37.90 173.77,37.42 C175.64,36.98 178.14,36.77 179.34,37.15 C180.83,37.66 183.01,39.46 183.68,40.62 C184.98,43.00 186.36,48.17 186.70,50.82 C187.25,55.39 187.18,69.79 186.50,75.56 C184.38,91.10 178.45,130.86 177.91,138.36 C177.51,144.55 177.67,158.27 178.67,164.29 C179.83,171.01 184.49,183.30 187.41,188.23 C189.78,192.16 193.56,196.32 195.91,197.74 C197.46,198.65 203.66,200.29 205.12,200.32 C209.32,200.38 230.42,195.71 233.75,194.74 C236.24,194.00 242.58,191.40 244.79,190.16 C247.59,188.57 252.27,183.83 254.36,181.23 C257.98,176.66 263.09,166.37 266.60,157.14 C271.98,142.10 282.25,110.57 286.70,95.71 C289.43,85.89 291.89,75.09 293.12,67.52 C293.70,63.83 294.02,56.77 293.53,53.53 C293.17,51.37 291.14,45.47 289.11,43.32 C287.99,42.18 285.87,40.98 284.46,40.65 C283.05,40.36 280.75,40.64 279.41,41.29 C276.98,42.53 272.52,47.50 270.50,50.41 C266.45,56.29 250.72,86.17 242.81,102.84 C239.77,109.70 233.94,123.32 231.15,130.09 C224.23,148.21 219.43,165.74 218.71,171.37 C218.21,175.47 218.38,181.24 219.05,184.54 C219.69,187.40 222.82,193.20 225.34,195.68 C227.69,197.92 233.37,201.04 236.60,201.86 C239.84,202.64 247.07,202.42 249.74,201.98 C253.50,201.31 269.70,194.44 274.96,191.50 C280.93,188.14 290.22,181.23 298.68,174.30 C305.97,168.06 316.58,157.85 322.21,152.17 C329.25,144.87 334.59,138.82 340.29,131.46 C344.72,125.34 351.91,115.24 357.65,106.11 C361.68,99.45 369.99,83.90 371.83,80.00 C377.29,68.22 382.18,51.16 382.53,47.94 C382.66,46.57 381.63,43.82 380.69,42.75 C379.72,41.75 373.97,42.48 369.18,44.67 C364.40,46.90 352.47,55.37 346.67,60.55 C341.63,65.07 330.95,76.60 326.11,82.97 C315.20,97.54 307.23,110.39 296.13,130.60 C291.88,138.63 286.65,150.25 284.36,157.38 C283.59,159.77 281.26,167.90 281.04,170.99 C280.97,172.18 281.52,175.00 281.91,176.16 C282.45,177.65 283.56,179.16 284.75,179.99 C286.91,181.41 293.09,182.31 296.19,182.01 C302.75,181.31 314.03,177.73 321.13,174.44 C329.27,170.65 359.56,151.69 371.76,143.40 C384.14,134.99 418.84,112.93 422.96,110.12 C427.34,107.11 440.76,96.40 444.32,93.12 C447.79,89.89 460.28,75.91 465.31,70.21 C456.75,79.58 438.68,102.48 428.89,114.93 C417.87,129.08 395.79,157.63 384.73,172.02 C380.62,177.60 372.44,188.91 371.16,191.22 C370.37,192.65 370.33,194.06 370.75,196.23 C372.94,197.25 374.41,197.60 375.95,197.22 C380.01,196.18 390.63,190.41 398.45,185.25 C413.24,175.12 432.07,160.59 445.86,148.88 C457.20,138.82 479.35,118.16 490.25,107.88 C496.88,101.91 509.67,90.61 515.00,86.17 C521.82,80.61 531.28,75.37 536.17,73.58 C532.33,74.92 521.29,85.12 516.79,89.58 C506.82,99.98 487.47,119.78 471.90,134.15 C465.02,140.26 452.57,151.27 446.99,156.18 C439.66,162.70 438.55,164.87 437.84,167.02 C439.25,168.19 440.37,168.64 442.03,168.46 C446.89,167.92 454.48,164.60 462.20,160.85 C476.60,153.89 508.48,139.22 523.70,132.31 C538.74,125.66 573.23,110.70 583.40,107.46 C588.80,105.80 601.01,102.21 607.81,100.28 C615.59,98.16 627.14,95.93 639.20,94.06 C646.76,92.98 664.59,90.43 665.45,91.03 C666.76,92.02 667.61,94.33 667.19,95.74 C665.33,101.51 655.03,123.44 654.94,123.98 C654.87,124.38 654.91,125.16 655.05,126.30 C656.56,126.98 657.37,127.10 658.82,126.71 C664.76,125.04 677.01,117.78 686.39,111.74 C693.30,107.19 708.09,97.26 712.38,94.48 C721.24,89.01 732.81,82.57 739.16,80.58 C740.02,80.32 744.61,79.18 745.61,79.17 C748.04,79.19 751.24,80.19 752.94,81.53 C753.54,82.01 760.50,88.23 763.16,89.69 C765.66,91.03 771.51,92.47 774.44,92.83 C780.20,93.48 795.00,92.11 801.69,91.49 C819.53,89.76 854.79,87.17 869.52,87.09 C883.75,87.07 912.99,85.97 927.87,84.98 C943.51,83.69 972.64,81.16 986.14,79.92 C1018.02,77.99 1090.23,72.91 1113.99,72.19 C1121.57,72.11 1138.88,72.43 1145.55,73.00 C1154.06,73.75 1162.14,75.40 1175.28,78.80 C1180.08,80.01 1185.48,81.24 1188.73,82.15 C1190.44,82.66 1192.22,83.93 1193.09,85.30 C1193.33,85.68 1193.57,86.30 1193.82,87.18" fill="none" stroke="rgb(139, 210, 196)" stroke-width="80.30" stroke-opacity="1.00" stroke-linejoin="round"/>
</g>
</svg>
