<?xml version="1.0" encoding="UTF-8" standalone="no"?>
<!DOCTYPE svg PUBLIC "-//W3C//DTD SVG 1.1//EN" "http://www.w3.org/Graphics/SVG/1.1/DTD/svg11.dtd">
<svg width="72.00" height="60.00" viewBox="0.00 0.00 1200.00 1000.00" xmlns="http://www.w3.org/2000/svg" xmlns:xlink="http://www.w3.org/1999/xlink">
<g stroke-linecap="round" id="Layer_2">
<path d="M-159.35,469.00 C-160.98,468.89 -163.29,468.92 -164.16,469.20 C-165.08,469.53 -166.34,471.28 -166.84,472.74 C-167.13,473.63 -168.40,478.53 -168.68,479.18 C-169.25,480.49 -169.59,480.99 -169.70,480.69 C-169.80,479.14 -158.26,462.44 -152.75,456.02 C-150.69,453.63 -138.17,440.09 -132.73,434.49 C-122.83,424.59 -101.04,406.56 -86.22,395.42 C-72.99,385.94 -49.70,370.44 -35.55,361.59 C-22.45,353.90 5.20,338.11 19.76,329.99 C32.97,323.09 59.94,309.31 74.95,302.11 C104.05,288.88 170.52,260.48 191.77,252.47 C205.53,247.49 234.71,237.12 250.14,231.72 C265.00,226.88 295.01,217.37 310.16,212.71 C325.08,208.40 355.08,199.97 370.17,195.87 C385.13,192.06 415.15,184.66 430.20,181.06 C445.14,177.72 475.20,171.21 490.31,168.03 C505.17,165.15 535.22,159.50 550.41,156.74 C565.24,154.24 595.29,149.35 610.50,146.96 C640.87,142.70 701.96,134.75 732.68,131.06 C763.86,127.92 826.52,122.23 857.99,119.68 C889.42,117.70 952.32,114.34 983.79,112.94 C1015.26,112.16 1078.62,111.20 1110.53,111.01 C1126.55,111.13 1158.43,111.54 1174.31,111.84 C1206.14,112.90 1269.28,115.62 1300.59,117.28 C1331.74,119.49 1394.11,124.50 1425.33,127.30 C1457.28,130.84 1519.81,138.32 1550.40,142.25 C1564.92,144.33 1594.12,148.72 1608.80,151.02 C1640.84,156.67 1689.94,165.54 1707.00,168.78" fill="none" stroke="rgb(245, 186, 251)" stroke-width="80.30" stroke-opacity="1.00" stroke-linejoin="round"/>
<path d="M-15.13,320.62 C-15.85,319.77 -18.14,317.08 -18.74,316.34 C-19.88,314.89 -20.60,313.02 -20.40,311.92 C-19.77,308.96 -11.65,294.62 -7.61,289.25 C-4.80,285.55 5.12,273.77 10.64,268.78 C15.11,264.74 24.13,257.41 31.00,252.72 C39.98,246.74 49.85,241.00 57.44,237.38 C66.53,233.25 98.69,220.66 112.42,215.47 C126.76,210.24 157.60,199.96 171.69,195.73 C201.95,187.53 263.41,171.09 294.61,162.85 C324.16,155.41 390.52,139.09 401.91,136.63 C433.29,130.44 501.22,117.29 537.78,110.33 C566.71,104.88 633.37,92.65 656.65,88.93 C670.55,86.86 700.46,82.69 716.47,80.60 C747.43,77.18 809.65,70.68 837.60,68.36 C852.97,67.34 880.02,65.72 891.70,65.12 C924.51,64.90 991.47,64.73 1025.62,64.78 C1061.72,65.18 1098.14,67.05 1148.36,67.39 C1164.29,67.43 1189.72,67.49 1208.05,68.29 C1216.37,68.80 1235.78,69.90 1239.50,69.98 C1245.48,70.11 1258.50,68.30 1261.99,66.74 C1262.86,66.32 1264.74,64.12 1265.35,62.77 C1266.03,61.16 1265.79,57.62 1265.05,55.78 C1264.29,54.07 1259.62,50.42 1255.29,48.27 C1250.69,46.03 1232.86,39.94 1228.25,38.66 C1218.87,36.11 1209.10,34.17 1197.62,32.52 C1189.98,31.57 1177.03,30.44 1172.09,30.29 C1155.23,30.06 1123.07,30.16 1106.12,30.26 C1092.96,30.39 1071.97,30.79 1050.82,32.01 C1017.67,34.03 969.94,36.77 955.36,37.50 C927.83,37.49 864.33,37.35 828.37,37.22 C796.38,37.07 710.06,36.57 703.90,36.72 C689.89,37.38 659.14,39.70 643.36,41.01 C625.10,42.75 592.75,45.94 578.67,47.39 C564.09,48.92 541.21,53.80 523.65,58.12 C507.15,62.64 473.49,72.02 456.33,76.88 C440.88,81.45 411.60,90.40 395.94,95.97 C367.41,106.77 309.45,129.15 280.00,140.72 C250.91,152.23 199.01,173.04 167.64,186.52 C136.41,200.16 62.60,232.28 48.44,238.03 C41.61,240.65 27.53,245.22 23.64,246.28 C13.93,248.85 2.43,250.93 -2.27,249.96 C-2.79,249.84 -5.35,248.80 -5.89,248.33 C-7.42,246.93 -8.48,244.41 -8.63,241.91 C-8.69,239.95 -6.87,235.82 -4.25,231.71 C-0.31,225.62 9.85,216.12 15.87,211.25 C21.87,206.43 31.52,200.11 40.72,194.56 C47.86,190.34 61.29,182.49 67.58,178.86 C78.75,172.72 106.87,159.81 120.68,153.56 C135.90,147.04 164.06,136.05 178.12,130.76 C192.60,125.53 221.89,115.12 236.71,109.94 C251.69,104.96 281.73,95.43 296.77,90.88 C327.00,82.36 387.99,66.66 418.71,59.00 C449.54,51.66 511.41,37.52 542.45,30.70 C557.38,27.60 586.98,21.59 601.64,18.68 C634.11,12.88 686.70,3.75 693.06,3.14 C713.12,1.38 720.62,3.02 721.83,3.50 C717.89,4.41 632.28,16.02 595.36,21.02 C563.18,25.57 504.67,34.32 478.33,38.51 C461.93,41.39 430.91,47.24 416.28,50.22 C386.16,57.10 326.56,71.24 297.07,78.51 C283.98,81.82 252.98,90.04 235.08,94.95 C205.49,103.59 145.21,121.40 114.53,130.57 C96.13,136.23 64.50,146.07 51.28,150.25 C36.58,154.71 4.15,164.14 -6.59,165.90 C-17.47,167.53 -28.00,168.26 -29.95,166.40 C-30.97,165.36 -31.29,163.39 -30.69,161.99 C-29.09,158.54 -26.03,154.54 -23.00,151.61 C-16.20,145.07 -7.99,138.17 -0.87,133.10 C11.45,124.49 36.54,110.09 49.58,103.07 C59.29,98.18 89.26,84.66 102.02,79.59 C115.90,74.36 146.04,63.23 161.80,57.80 C176.87,52.93 206.68,44.02 221.14,40.03 C235.42,36.34 264.63,29.57 280.48,26.33 C296.54,23.39 327.81,18.00 343.02,15.55 C360.63,13.13 379.09,11.75 382.34,11.50 C377.30,11.40 342.45,16.88 326.81,19.52 C292.41,25.53 224.64,37.23 191.27,42.92 C174.49,45.58 148.95,48.98 135.15,50.73 C118.39,52.64 86.95,56.05 72.26,57.54 C57.76,58.59 46.21,58.75 41.15,58.46 C22.03,57.33 8.57,52.17 5.57,50.66 C5.77,49.29 6.58,48.38 8.88,47.32 C14.20,44.88 23.44,42.19 32.63,39.96 C49.51,35.95 82.94,28.19 99.49,24.43 C111.13,22.00 142.22,17.05 157.26,14.88 C173.48,12.75 201.36,9.04 207.97,7.73 C202.00,6.63 192.59,7.16 185.91,8.15 C180.59,8.94 139.04,17.07 121.76,20.47 C105.70,23.51 77.43,28.59 64.76,29.84 C57.44,30.42 41.35,31.28 34.12,31.09 C27.31,30.90 11.11,29.35 5.03,28.74 C10.74,28.13 45.43,21.11 61.32,19.09 C76.85,17.70 112.64,14.81 123.19,14.32 C132.62,14.04 143.41,14.69 151.57,15.87 C154.40,16.29 157.40,17.41 158.41,17.88 C144.86,20.73 114.89,26.87 98.47,30.16 C83.11,32.88 49.46,36.74 38.06,37.08 C31.03,37.27 15.75,36.60 5.80,35.76 C-8.56,34.34 -36.13,29.02 -39.20,27.55 C-34.75,25.00 -20.69,21.59 -9.26,19.43 C-0.24,17.99 9.26,16.99 19.03,16.67 C24.43,16.57 29.59,16.71 32.23,17.18 C34.71,17.65 41.04,19.41 42.89,20.18 C45.13,21.14 50.13,24.28 52.15,26.21 C54.57,28.59 57.17,32.57 58.83,36.51 C60.09,39.57 61.64,45.67 62.13,51.23 C62.35,53.75 62.92,75.75 62.45,82.79 C61.87,91.15 59.47,105.19 57.34,112.35 C55.27,119.21 50.11,132.00 46.53,139.14 C40.53,150.82 26.84,171.20 13.49,189.82 C8.65,196.64 -2.42,212.51 -3.50,214.24 C-5.52,217.54 -7.62,222.71 -8.07,225.39 C-8.33,227.07 -8.25,228.65 -7.85,230.19 C-7.49,231.40 -5.95,233.29 -4.26,234.66 C-3.30,235.42 2.76,236.90 4.77,236.93 C9.29,236.95 28.20,233.06 30.18,233.25 C30.18,233.25 -44.11,292.55 -44.11,292.55 C-30.92,281.16 -9.18,263.65 3.75,253.73 C17.81,243.20 35.36,231.27 50.22,222.03 C64.48,213.44 93.13,196.61 106.55,189.26 C134.17,174.80 189.27,147.40 217.53,134.26 C231.56,128.15 259.97,116.13 274.34,110.22 C289.14,104.50 319.17,93.27 334.40,87.76 C349.16,82.72 378.83,73.41 393.51,69.19 C422.21,61.32 482.26,46.46 512.90,39.61 C528.48,36.33 559.24,30.19 574.42,27.32 C589.40,24.79 619.33,20.06 634.28,17.87 C649.37,15.93 678.84,12.87 694.78,11.72 C725.17,10.34 786.09,8.04 819.32,7.65 C834.20,7.65 859.34,7.88 877.59,9.15 C909.25,11.67 956.21,16.27 998.34,19.43 C1015.79,20.68 1048.22,23.08 1063.19,24.24 C1080.71,25.88 1104.46,29.05 1117.32,30.88 C1134.99,32.91 1166.08,35.80 1182.82,37.30 C1214.79,40.95 1263.86,46.14 1267.58,47.10 C1261.55,44.62 1247.99,39.06 1240.47,35.98 C1232.03,32.56 1219.16,29.47 1213.44,28.55 C1206.92,27.50 1189.44,26.48 1181.68,26.41 C1174.12,26.48 1157.45,27.12 1151.30,27.85 C1147.95,28.31 1142.33,29.07 1139.45,30.64 C1140.81,31.82 1141.94,32.48 1143.49,32.77 C1148.00,33.58 1177.52,35.36 1189.06,35.60 C1192.91,35.68 1200.82,35.82 1204.86,35.90 C1206.36,35.92 1208.98,35.97 1210.10,35.99" fill="none" stroke="rgb(245, 186, 251)" stroke-width="80.30" stroke-opacity="1.00" stroke-linejoin="round"/>
<path d="M445.86,20.91 C445.80,19.75 445.14,9.89 444.32,8.70 C443.05,6.98 440.44,5.84 437.59,5.66 C432.70,5.34 428.53,5.50 425.79,5.99 C422.75,6.57 403.56,13.02 396.86,15.62 C386.63,19.78 347.32,38.43 344.06,40.74 C342.48,41.89 341.30,43.46 341.14,44.60 C340.99,46.47 343.98,51.49 346.54,53.75 C349.22,56.07 355.29,59.34 357.76,60.22 C360.94,61.34 368.49,62.80 372.17,63.01 C379.64,63.39 393.79,61.66 400.67,60.08 C404.29,59.24 420.33,54.45 426.18,52.51 C433.94,49.84 469.30,34.98 484.32,28.56 C489.57,26.18 503.82,19.72 507.46,17.92 C517.04,13.03 527.40,7.19 532.14,2.18 C533.61,0.58 534.44,-1.60 534.38,-3.50 C534.27,-4.96 531.04,-8.93 528.16,-10.36 C525.32,-11.74 519.61,-12.76 514.91,-13.06 C507.04,-13.37 497.60,-12.74 486.85,-10.73 C467.64,-6.83 439.57,0.29 426.14,4.64 C417.27,7.75 403.61,13.28 395.69,16.80 C388.88,20.00 374.11,27.05 369.06,30.30 C364.46,33.32 351.12,43.07 346.01,48.34 C340.60,53.95 337.29,60.64 335.32,65.79 C334.43,68.14 333.48,69.25 331.62,70.46 C324.05,62.51 316.11,54.76 309.52,49.70 C303.22,44.89 291.17,37.43 285.07,34.39 C277.02,30.51 267.16,26.34 260.05,24.00 C252.75,21.60 237.97,18.11 230.64,17.04 C223.90,16.08 209.35,15.34 201.54,15.70 C194.40,16.05 179.14,18.23 172.69,19.74 C168.76,20.67 150.64,25.70 146.96,27.16 C140.63,29.68 91.11,51.09 85.47,52.43 C84.29,52.71 77.23,53.67 74.33,53.85 C70.41,54.07 63.81,53.51 60.53,52.59 C57.85,51.82 52.05,48.94 49.25,46.73 C44.57,42.95 38.47,34.72 33.13,25.87 C31.52,23.24 27.48,16.74 26.17,15.02 C22.11,9.77 14.07,4.97 12.73,3.61 C12.62,2.18 16.89,-1.15 20.92,-2.75 C26.70,-4.97 43.10,-7.87 49.92,-8.50 C56.99,-9.13 140.87,-11.62 174.76,-12.53 C192.16,-12.70 225.90,-12.70 242.25,-12.52 C255.27,-12.31 284.33,-11.91 297.16,-10.93 C312.57,-9.52 343.62,-6.75 359.24,-5.70 C368.27,-5.33 404.19,-5.23 420.46,-5.23 C446.55,-5.39 506.09,-3.79 537.38,-3.12 C549.23,-2.60 583.36,0.14 599.01,1.50 C613.63,3.04 641.81,5.89 656.05,6.26 C665.94,6.37 702.59,5.18 718.87,4.57 C734.54,3.82 765.23,2.03 780.28,0.68 C796.02,-0.97 827.65,-3.35 843.29,-3.89 C858.83,-4.51 897.69,-6.54 905.70,-6.87 C920.42,-7.21 996.52,-4.29 1025.82,-2.76 C1041.13,-1.60 1070.78,0.29 1085.12,1.02 C1094.10,1.63 1133.37,7.02 1149.99,9.50 C1157.82,10.81 1175.32,13.85 1179.02,14.68 C1184.76,15.98 1197.12,21.04 1201.47,24.49 C1203.69,26.28 1208.16,31.10 1209.75,33.28 C1212.87,37.59 1216.51,47.06 1217.62,50.02" fill="none" stroke="rgb(245, 186, 251)" stroke-width="80.30" stroke-opacity="1.00" stroke-linejoin="round"/>
</g>
</svg>
