<?xml version="1.0" encoding="utf-8"?>
<!-- Generator: Adobe Illustrator 26.0.3, SVG Export Plug-In . SVG Version: 6.00 Build 0)  -->
<svg version="1.1" id="Layer_1" xmlns="http://www.w3.org/2000/svg" xmlns:xlink="http://www.w3.org/1999/xlink" x="0px" y="0px"
	 viewBox="0 0 404.87 612.13" style="enable-background:new 0 0 404.87 612.13;" xml:space="preserve">
<style type="text/css">
	
		.st0{fill-rule:evenodd;clip-rule:evenodd;fill:none;stroke:#34302F;stroke-width:4;stroke-linecap:round;stroke-linejoin:round;stroke-miterlimit:10;}
</style>
<path class="st0" d="M349.19,573.05c-6.84-0.54-11.57-1.31-25.26-5.47c-39.53-12.03-32.13-71.56-32.61-77.64
	c-1-12.52-9.71-55.42-0.2-46.67c9.5,8.75,17.38,31.91,10.67,42.29c-6.72,10.39-23.62,12.01-28.02,5.99
	c-4.4-6.02-12.71-38.45-9.99-43.64c2.72-5.2,38.7-20.11,30.68-9.15c-8.03,10.98-33.97,11.05-52.18,11.29
	c-18.23,0.25-52.82,0.79-53.41-1.86c-0.58-2.65-3.09-6.67,1.5-7.22c4.58-0.55,49.6-2.81,50.75,3.14c1.16,5.95,7.99,72,3.97,76.54
	c-4.02,4.55-69.44,7.25-73.67-6.08c-4.23-13.33,3.2-71.32,5.85-72.58c2.65-1.26-4.1,6.5-18.4,2.88
	c-14.32-3.63-65.96-13.41-56.02-15.83c9.93-2.41,39.33,2.9,40.53,6.89c1.2,3.99-1.29,71.43-16.47,73.78
	c-15.21,2.35-40-6.78-38.24-22.01c1.76-15.23,17.36-77.75,19.84-72.4c2.48,5.35,35.03,15.36,65.11,16.72
	c30.01,1.36,62.56,2.11,82.81-2.02c20.21-4.12,35.96-12.93,30.61-5.84c-5.35,7.09-19-41.79-19.72-66.02
	c-0.72-24.2,26.97-50.18,27.61-77.53c0.64-27.3-15.28-56.44-17.44-46.76c-2.16,9.68,27.97,92.68,30.6,90.8
	c2.62-1.88,0.19-8.47,21.43-7.87c21.2,0.6,19.9,30.52,26.47,24.18c6.56-6.33,12.54-15.93,7.59-24.52
	c-4.95-8.59-32.33-19.14-40.12-16.11c-7.79,3.03-16.1,0.18-12.39,6.8c3.71,6.62,1.56,16.33-0.74,31.92
	c-2.29,15.61-12.68,46.06-18.45,43.95c-5.77-2.11-39.7-18.7-33.38-11.99c6.32,6.71,22.42,10.4,16.53,12.87
	c-5.89,2.47-21.68,11.91-16.57,15.31c5.1,3.41,18.89-4.12,16.23-0.91c-2.67,3.22-18.46,12.67-11.42,16.78
	c7.03,4.11,11.66,0.28,11.66,0.28s-12.53,8.89-3.44,8.45c9.09-0.44,13.91-12.79,23.53-9.28c9.62,3.51,12.2,3.57,15.58-2.9
	c3.38-6.47,42.78-69.43,45.7-85.63c2.92-16.18,6.12-16.08,2.46-24.64c-3.66-8.56-44.95-80.63-55.66-90.05
	c-10.71-9.43-14.39-17.33-16.59-5.73c-2.21,11.61-5.07,23.85-1.06,17.49c4.01-6.36,2.4-20.04-1.98-25.37
	c-4.38-5.33-31.37-15.29-40.22-23.38c-8.84-8.09-10.41-23.06-6.15-12.54c4.26,10.53-24.21,36.21-20.52,44.14
	c3.68,7.93,9.4-13.34-7.77-25.62c-17.19-12.29-30.89-34.22-29.03-30.91c1.86,3.32-16.7,41.08-10.23,42.6
	c6.46,1.52,31.29-4.16,40.87,1.37c9.58,5.52,11.36,62.9,12.5,43.38c1.14-19.5-4.72-43.77,5.02-44.74
	c9.73-0.97,22.35,11.14,21.18,6.56c-1.18-4.59-21.18-31.89-18.25-45.41c2.92-13.51,18.87-31.96,16.03-24.78
	c-2.84,7.18-16.99,21.01-33.09,15.34c-16.12-5.69-31.38-17.19-33.99-28.96c-2.6-11.77-5.69-33.04-7.11-25.07
	c-1.43,7.97-0.51,18.95,3.42,17.63c3.93-1.31,0.06-20.42,7.1-29.38c7.04-8.95,46.33-20.03,47.99-28.19
	c1.65-8.16-0.62-13.57-0.03-8.47c0.59,5.1,7.64,13.12,14.2,21.36c6.56,8.24,4.87,27.55,5.41,25.39c0.53-2.16,3.86-9.54,4.95-4.9
	c1.09,4.65-1,30.74-3.79,26.51c-2.8-4.23,3.93-22.14,4.67-42.69c0.75-20.52-12.65-35.07-18.5-32.65c-5.86,2.42-0.17,6.76-0.31,2.89
	c-0.15-3.87-2.64-10.5-20.02-11.2c-17.41-0.7-30.94-2.46-43.51,13.99c-12.6,16.49-13.16,46.11-4.97,40.34
	c8.18-5.76,13.03-41.96-0.26-44.43c-13.3-2.47-28.04,11.02-23.36,27c4.68,15.98,18.02,26.7,21.01,24.38c2.98-2.32,1.9-7.46,1.54-3.1
	c-0.36,4.36-1.88,15.49,3.69,25.67c5.57,10.18,13.06,11.92,10.51,25.45c-2.55,13.55,10.74,17.19-12.41,27.11
	c-23.2,9.95-32.61-0.42-43.29,13.89c-10.7,14.33-7.43,72.34,2.17,62.32c9.59-10,1.89-67.57-13.04-59.27
	c-14.96,8.32-78.39,70.7-73.99,72.31c4.4,1.61,32.43,4.94,41.15,10.13c8.71,5.19,6.62,26.31,1.57,30.61
	c-5.06,4.29-11.96-12.68-29.13-16.15c-17.2-3.47-31.31,5-29.51-5.32c1.8-10.32,3-17.19,20.16-12.22c17.13,4.96,35,17.82,32.92,21.7
	c-2.09,3.88,64.28-31.02,49.07-30.51c-15.23,0.51-47.05,45.86-55.63,52.52c-8.59,6.67-12.03-10.71-3.74-7.02
	c8.28,3.69,28.04,52.86,40.07,62.57c12.03,9.7,10.87,16.1,22.37,8.98c11.49-7.1,20.01-13.29,29.79-12.54
	c9.78,0.75,40.34,10.42,30.51,12.13c-9.82,1.72-33.67-4.33-30.34-0.3c3.32,4.03,33.11,25.51,22.83,25.74
	c-10.29,0.24-23.67-12.94-23.67-12.94s25.31,24.82,13.56,24.53c-11.76-0.29-19.25-13.81-19.25-13.81s12.14,23.03,5.35,19.9
	c-6.79-3.13-11.81-17.09-16.77-15.24c-4.97,1.85-19.41,8.43-25.7,4.31c-6.29-4.12-4.18-9.01-10.96-13.14
	c-6.78-4.13-64.06-46.88-76.55-75.94c-12.49-29.05-6.13-34.83,5.99-42.87c12.11-8.02,30.63-16.82,44.55-20.82
	c13.9-3.99,44.37-2.04,47.7,19.19c3.33,21.25,25.8,51.24,3.92,84.04c-17.54,26.3-19.98,63.77-13.13,65.42
	c6.85,1.65,82.58,14.32,103.5-1.47c20.88-15.75,8.64-72.11,2.43-96.34c-6.2-24.21-5.48-52.6-2.49-36.35
	c2.99,16.25-4.99,62.16,0.77,84.93c5.76,22.79,28.07,86.89,34.24,113.69c6.18,26.82-13.33,66.05-25.16,69.81
	c-11.85,3.76-28.95-17.42-24.3-7.4c43.87,74.21-51.07-33.7-101.37,4.87c-28.34,21.73-12.74-26.83-11.94-38.51
	c1.7-24.92,7.25-19.72,11.93-10.66c4.69,9.05,12.12-37.95,9.12-53.9c-3-15.94-24.93-42.73-21.38-46.12
	c3.55-3.38,16.89-4.53,13.88-2.63c-3.01,1.91-21.78-48.54-20.05-40.09c1.73,8.45,13.96,46.38,16.4,47.43
	c2.44,1.05,19.96,8.41,19.54,5.92c-0.42-2.48-10.85-17.09-8-30.87c2.85-13.77,19.86-24.68,19.27-21.24
	c-0.59,3.44-13.75,17.42-8.16,28.44c5.6,11.02,14.36,14.2,17.11,3.4c2.75-10.8,1.64-24.15,4.48-20.13
	c2.83,4.02,5.59,29.28-4.87,34.46c-10.47,5.19-22.62,17.27-11.87,20.5c10.73,3.22,47.55,21.89,52.56,17.55
	c5.01-4.34,11.73-55.51,11.73-55.51s3.41,0.58,3.35,3.04c-0.06,2.46-12.11,70.34-7.74,71.93c4.37,1.58,21.28-66.66,22.75-66.62
	c1.46,0.04,6.44-3.78,5.3,2.6c-1.13,6.38-29.43,60.53-13.79,61.87c15.61,1.34,69.26,1.04,69.91-5.84
	c0.65-6.89-28.71-60.27-28.18-62.22c0.53-1.95,4.53-6.28,5.96-4.77c1.42,1.51,29.17,60.74,27.99,69.59
	c-1.18,8.84-47.24,19.2-68.21,17.26c-21-1.94-54.44,0.31-54.43,18.17c0.01,17.87,25.05,28.4-0.76,37.87
	c-23.7,8.7-36.6-26.66-43.47,24.05c-5.14,37.93-11.17,34.35-19.77,28.36"/>
</svg>
